<?xml version="1.0" encoding="UTF-8"?>
<svg width="53px" height="53px" viewBox="0 0 53 53" version="1.1" xmlns="http://www.w3.org/2000/svg" xmlns:xlink="http://www.w3.org/1999/xlink">
    <!-- Generator: Sketch 63.1 (92452) - https://sketch.com -->
    <title>Icon / Dashboard ventas</title>
    <desc>Created with Sketch.</desc>
    <g id="Icon-/-Dashboard-ventas" stroke="none" stroke-width="1" fill="none" fill-rule="evenodd">
        <g id="Shape-2" transform="translate(28.000000, 17.000000)" fill="#EA0074" fill-rule="nonzero">
            <g id="Shape-3">
                <path d="M15.5833333,0 C14.875,0 14.2994792,0.556675063 14.2994792,1.2418136 C14.2994792,1.32745592 14.3050134,1.41845122 14.3216146,1.49874055 L12.5950521,2.86901763 C12.4290365,2.79140445 12.2381187,2.74055416 12.0416667,2.74055416 C11.6210938,2.74055416 11.2586261,2.9519838 11.0234375,3.25440806 L9.73958333,2.99748111 C9.60123733,2.45418749 9.10319046,2.05541562 8.5,2.05541562 C7.79166667,2.05541562 7.21614583,2.61209068 7.21614583,3.29722922 C7.21614583,3.39892981 7.2355145,3.50330587 7.26041667,3.59697733 L5.51171875,4.92443325 C5.34570313,4.84682007 5.15478533,4.79596977 4.95833333,4.79596977 C4.25,4.79596977 3.67447917,5.35264484 3.67447917,6.03778338 C3.67447917,6.0725754 3.67171242,6.11004425 3.67447917,6.14483627 L2.08072917,7.0440806 C1.88427717,6.92632242 1.662923,6.85138539 1.41666667,6.85138539 C0.708333333,6.85138539 0.1328125,7.40806045 0.1328125,8.09319899 C0.1328125,8.77833753 0.708333333,9.33501259 1.41666667,9.33501259 C2.125,9.33501259 2.70052083,8.77833753 2.70052083,8.09319899 C2.70052083,8.0423487 2.68391963,7.99149908 2.67838542,7.94332494 L4.27213542,7.06549118 C4.47412092,7.19127851 4.70100929,7.27959698 4.95833333,7.27959698 C5.66666667,7.27959698 6.2421875,6.72292191 6.2421875,6.03778338 C6.2421875,5.95214106 6.236654,5.86114644 6.22005208,5.78085642 L7.99088542,4.43198992 C8.14583333,4.49354551 8.32291667,4.53904282 8.5,4.53904282 C8.90397171,4.53904282 9.26090513,4.35170059 9.49609375,4.06801008 L10.8020833,4.32493703 C10.9542645,4.84949622 11.4523114,5.22418136 12.0416667,5.22418136 C12.75,5.22418136 13.3255208,4.6675063 13.3255208,3.98236776 C13.3255208,3.89672544 13.3199873,3.80573082 13.3033854,3.72544081 L15.0299479,2.35516373 C15.1959635,2.43277691 15.3868813,2.4836272 15.5833333,2.4836272 C16.2916667,2.4836272 16.8671875,1.92695214 16.8671875,1.2418136 C16.8671875,0.556675063 16.2916667,0 15.5833333,0 Z M14.875,6.72292191 C14.4848635,6.72292191 14.1666667,7.03069916 14.1666667,7.40806045 L14.1666667,16.3148615 C14.1666667,16.6922228 14.4848635,17 14.875,17 L16.2916667,17 C16.6818032,17 17,16.6922228 17,16.3148615 L17,7.40806045 C17,7.03069916 16.6818032,6.72292191 16.2916667,6.72292191 L14.875,6.72292191 Z M7.79166667,8.09319899 C7.40153012,8.09319899 7.08333333,8.40097624 7.08333333,8.77833753 L7.08333333,16.3148615 C7.08333333,16.6922228 7.40153012,17 7.79166667,17 L9.20833333,17 C9.59846988,17 9.91666667,16.6922228 9.91666667,16.3148615 L9.91666667,8.77833753 C9.91666667,8.40097624 9.59846988,8.09319899 9.20833333,8.09319899 L7.79166667,8.09319899 Z M11.3333333,9.46347607 C10.9431968,9.46347607 10.625,9.77125332 10.625,10.1486146 L10.625,16.3148615 C10.625,16.6922228 10.9431968,17 11.3333333,17 L12.75,17 C13.1401365,17 13.4583333,16.6922228 13.4583333,16.3148615 L13.4583333,10.1486146 C13.4583333,9.77125332 13.1401365,9.46347607 12.75,9.46347607 L11.3333333,9.46347607 Z M4.25,10.1486146 C3.85986346,10.1486146 3.54166667,10.4563919 3.54166667,10.8337531 L3.54166667,16.3148615 C3.54166667,16.6922228 3.85986346,17 4.25,17 L5.66666667,17 C6.05680321,17 6.375,16.6922228 6.375,16.3148615 L6.375,10.8337531 C6.375,10.4563919 6.05680321,10.1486146 5.66666667,10.1486146 L4.25,10.1486146 Z M0.708333333,11.5188917 C0.318196792,11.5188917 0,11.8266689 0,12.2040302 L0,16.3148615 C0,16.6922228 0.318196792,17 0.708333333,17 L2.125,17 C2.51513654,17 2.83333333,16.6922228 2.83333333,16.3148615 L2.83333333,12.2040302 C2.83333333,11.8266689 2.51513654,11.5188917 2.125,11.5188917 L0.708333333,11.5188917 Z" id="Shape"></path>
            </g>
        </g>
        <g id="Group" transform="translate(4.000000, 6.000000)" fill="#444B54" fill-rule="nonzero">
            <path d="M3.91304348,0 C1.76163359,0 0,1.75790526 0,3.9047619 L0,37.0952381 C0,39.2420947 1.76163359,41 3.91304348,41 L41.0869565,41 C43.2383664,41 45,39.2420947 45,37.0952381 L45,3.9047619 C45,1.75790526 43.2383664,0 41.0869565,0 L3.91304348,0 Z M3.91304348,1.95238095 L41.0869565,1.95238095 C42.1798578,1.95238095 43.0434783,2.8141746 43.0434783,3.9047619 L43.0434783,6.83333333 L1.95652174,6.83333333 L1.95652174,3.9047619 C1.95652174,2.8141746 2.82014315,1.95238095 3.91304348,1.95238095 Z M1.95652174,8.78571429 L43.0434783,8.78571429 L43.0434783,32.2142857 L1.95652174,32.2142857 L1.95652174,8.78571429 Z M4.89130435,11.7142857 L4.89130435,18.547619 L21.5217391,18.547619 L21.5217391,11.7142857 L4.89130435,11.7142857 Z M4.89130435,21.4761905 L4.89130435,28.3095238 L21.5217391,28.3095238 L21.5217391,21.4761905 L4.89130435,21.4761905 Z M6.84782609,13.6666667 L19.5652174,13.6666667 L19.5652174,16.5952381 L6.84782609,16.5952381 L6.84782609,13.6666667 Z M6.84782609,23.4285714 L19.5652174,23.4285714 L19.5652174,26.3571429 L6.84782609,26.3571429 L6.84782609,23.4285714 Z M1.95652174,34.1666667 L43.0434783,34.1666667 L43.0434783,37.0952381 C43.0434783,38.1858264 42.1798578,39.047619 41.0869565,39.047619 L3.91304348,39.047619 C2.82014315,39.047619 1.95652174,38.1858264 1.95652174,37.0952381 L1.95652174,34.1666667 Z" id="Shape"></path>
        </g>
    </g>
</svg>