<?xml version="1.0" encoding="UTF-8"?>
<svg width="53px" height="53px" viewBox="0 0 53 53" version="1.1" xmlns="http://www.w3.org/2000/svg" xmlns:xlink="http://www.w3.org/1999/xlink">
    <!-- Generator: Sketch 63.1 (92452) - https://sketch.com -->
    <title>Icon / DEVOPS</title>
    <desc>Created with Sketch.</desc>
    <g id="Icon-/-DEVOPS" stroke="none" stroke-width="1" fill="none" fill-rule="evenodd">
        <g id="Group" transform="translate(4.000000, 6.000000)" fill="#444B54" fill-rule="nonzero">
            <path d="M3.91304348,0 C1.76163359,0 0,1.75790526 0,3.9047619 L0,37.0952381 C0,39.2420947 1.76163359,41 3.91304348,41 L41.0869565,41 C43.2383664,41 45,39.2420947 45,37.0952381 L45,3.9047619 C45,1.75790526 43.2383664,0 41.0869565,0 L3.91304348,0 Z M3.91304348,1.95238095 L41.0869565,1.95238095 C42.1798578,1.95238095 43.0434783,2.8141746 43.0434783,3.9047619 L43.0434783,6.83333333 L1.95652174,6.83333333 L1.95652174,3.9047619 C1.95652174,2.8141746 2.82014315,1.95238095 3.91304348,1.95238095 Z M1.95652174,8.78571429 L43.0434783,8.78571429 L43.0434783,32.2142857 L1.95652174,32.2142857 L1.95652174,8.78571429 Z M1.95652174,34.1666667 L43.0434783,34.1666667 L43.0434783,37.0952381 C43.0434783,38.1858264 42.1798578,39.047619 41.0869565,39.047619 L3.91304348,39.047619 C2.82014315,39.047619 1.95652174,38.1858264 1.95652174,37.0952381 L1.95652174,34.1666667 Z" id="Shape"></path>
        </g>
        <rect id="Rectangle-Copy" stroke="#444B54" stroke-width="2" fill="#FFFFFF" x="33" y="18" width="11" height="3"></rect>
        <rect id="Rectangle-Copy-2" stroke="#444B54" stroke-width="2" fill="#FFFFFF" x="33" y="25" width="11" height="3"></rect>
        <rect id="Rectangle-Copy-3" stroke="#444B54" stroke-width="2" fill="#FFFFFF" x="33" y="32" width="11" height="3"></rect>
        <g id="icons8-cloud_development" transform="translate(8.000000, 17.000000)" fill="#EA0074" fill-rule="nonzero">
            <path d="M8,11 L8,13.876736 L6.93437504,16.243056 C7.10732013,16.533492 7.19968413,16.873971 7.2,17.2222222 C7.2,18.2040618 6.4836556,19 5.6,19 C4.7163444,19 4,18.2040618 4,17.2222222 C4.00092557,16.2829359 4.65931766,15.5065228 5.50312496,15.4496524 L5.50312496,15.4496524 L6.4,13.4565973 L6.4,11 L8,11 Z M12,11 L12,15.6840276 C12.618313,16.0013457 12.9994352,16.5875858 13,17.2222222 C13,18.2040618 12.1045695,19 11,19 C9.8954305,19 9,18.2040618 9,17.2222222 C9.00126128,16.5882062 9.38229019,16.0027711 10,15.6857636 L10,15.6857636 L10,11 L12,11 Z M15.6,11 L15.6,13.4565973 L16.4968752,15.4496524 C17.3406824,15.5065229 17.9990744,16.282936 18,17.2222222 C18,18.2040618 17.2836556,19 16.4,19 C15.5163444,19 14.8,18.2040618 14.8,17.2222222 C14.8006215,16.8745624 14.8929725,16.5347348 15.0656248,16.244792 L15.0656248,16.244792 L14,13.876736 L14,11 L15.6,11 Z M11,0 C13.8865833,0 16.3524882,1.81621108 17.1463215,4.42050791 C19.8394882,4.51591634 22,6.65738828 22,9.27581969 C22,11.5709225 20.339616,13.4938053 18.1166993,14 L18.1166993,14 L17.4166667,12.6524531 L17.4166667,8.85999529 L4.58333333,8.85999529 L4.58333333,12.6524531 L3.98535152,13.8033031 C1.66801818,13.0161836 0,10.8915792 0,8.39240828 C0,5.29781821 2.55274479,2.76676175 5.73632812,2.65368509 C6.93074479,1.00523941 8.89991667,0 11,0 Z" id="Shape"></path>
        </g>
    </g>
</svg>