<?xml version="1.0" encoding="UTF-8"?>
<svg width="53px" height="53px" viewBox="0 0 53 53" version="1.1" xmlns="http://www.w3.org/2000/svg" xmlns:xlink="http://www.w3.org/1999/xlink">
    <!-- Generator: Sketch 63.1 (92452) - https://sketch.com -->
    <title>Icon / PM</title>
    <desc>Created with Sketch.</desc>
    <g id="Icon-/-PM" stroke="none" stroke-width="1" fill="none" fill-rule="evenodd">
        <g id="icons8-move_node_down" transform="translate(3.000000, 4.000000)">
            <path d="M0,0 L0,0.774227488 L0,7.74227488 L3.1487079,7.74227488 C3.1487079,8.16986892 3.50113903,8.51650237 3.93588487,8.51650237 C4.37063071,8.51650237 4.72306185,8.16986892 4.72306185,7.74227488 L7.87176974,7.74227488 L7.87176974,0 L0,0 Z M1.57435395,1.54845498 L6.29741579,1.54845498 L6.29741579,6.19381991 L1.57435395,6.19381991 L1.57435395,1.54845498 Z M3.93588487,10.0649573 C3.50113903,10.0649573 3.1487079,10.4115908 3.1487079,10.8391848 C3.1487079,11.2667789 3.50113903,11.6134123 3.93588487,11.6134123 C4.37063071,11.6134123 4.72306185,11.2667789 4.72306185,10.8391848 C4.72306185,10.4115908 4.37063071,10.0649573 3.93588487,10.0649573 Z M3.93588487,13.1618673 C3.50113903,13.1618673 3.1487079,13.5085008 3.1487079,13.9360948 C3.1487079,14.3636888 3.50113903,14.7103223 3.93588487,14.7103223 C4.37063071,14.7103223 4.72306185,14.3636888 4.72306185,13.9360948 C4.72306185,13.5085008 4.37063071,13.1618673 3.93588487,13.1618673 Z M3.93588487,16.2587773 C3.50113903,16.2587773 3.1487079,16.6054107 3.1487079,17.0330047 C3.1487079,17.4605988 3.50113903,17.8072322 3.93588487,17.8072322 C4.37063071,17.8072322 4.72306185,17.4605988 4.72306185,17.0330047 C4.72306185,16.6054107 4.37063071,16.2587773 3.93588487,16.2587773 Z M3.93588487,19.3556872 C3.50113903,19.3556872 3.1487079,19.7023207 3.1487079,20.1299147 C3.1487079,20.5575087 3.50113903,20.9041422 3.93588487,20.9041422 C4.37063071,20.9041422 4.72306185,20.5575087 4.72306185,20.1299147 C4.72306185,19.7023207 4.37063071,19.3556872 3.93588487,19.3556872 Z M22.0409553,19.3556872 L22.0409553,20.1299147 L22.0409553,27.0979621 L29.912725,27.0979621 L29.912725,19.3556872 L22.0409553,19.3556872 Z M23.6153092,20.9041422 L28.3383711,20.9041422 L28.3383711,25.5495071 L23.6153092,25.5495071 L23.6153092,20.9041422 Z M3.93588487,22.4525972 C3.50113903,22.4525972 3.1487079,22.7992306 3.1487079,23.2268247 C3.1487079,23.6544187 3.50113903,24.0010521 3.93588487,24.0010521 C4.37063071,24.0010521 4.72306185,23.6544187 4.72306185,23.2268247 C4.72306185,22.7992306 4.37063071,22.4525972 3.93588487,22.4525972 Z M7.08459277,22.4525972 C6.64984693,22.4525972 6.29741579,22.7992306 6.29741579,23.2268247 C6.29741579,23.6544187 6.64984693,24.0010521 7.08459277,24.0010521 C7.51933861,24.0010521 7.87176974,23.6544187 7.87176974,23.2268247 C7.87176974,22.7992306 7.51933861,22.4525972 7.08459277,22.4525972 Z M10.2333007,22.4525972 C9.79855483,22.4525972 9.44612369,22.7992306 9.44612369,23.2268247 C9.44612369,23.6544187 9.79855483,24.0010521 10.2333007,24.0010521 C10.6680465,24.0010521 11.0204776,23.6544187 11.0204776,23.2268247 C11.0204776,22.7992306 10.6680465,22.4525972 10.2333007,22.4525972 Z M13.3820086,22.4525972 C12.9472627,22.4525972 12.5948316,22.7992306 12.5948316,23.2268247 C12.5948316,23.6544187 12.9472627,24.0010521 13.3820086,24.0010521 C13.8167544,24.0010521 14.1691855,23.6544187 14.1691855,23.2268247 C14.1691855,22.7992306 13.8167544,22.4525972 13.3820086,22.4525972 Z M16.5307165,22.4525972 C16.0959706,22.4525972 15.7435395,22.7992306 15.7435395,23.2268247 C15.7435395,23.6544187 16.0959706,24.0010521 16.5307165,24.0010521 C16.9654623,24.0010521 17.3178934,23.6544187 17.3178934,23.2268247 C17.3178934,22.7992306 16.9654623,22.4525972 16.5307165,22.4525972 Z M19.6794244,22.4525972 C19.2446785,22.4525972 18.8922474,22.7992306 18.8922474,23.2268247 C18.8922474,23.6544187 19.2446785,24.0010521 19.6794244,24.0010521 C20.1141702,24.0010521 20.4666013,23.6544187 20.4666013,23.2268247 C20.4666013,22.7992306 20.1141702,22.4525972 19.6794244,22.4525972 Z M25.9768401,22.4525972 C25.5420943,22.4525972 25.1896632,22.7992306 25.1896632,23.2268247 C25.1896632,23.6544187 25.5420943,24.0010521 25.9768401,24.0010521 C26.411586,24.0010521 26.7640171,23.6544187 26.7640171,23.2268247 C26.7640171,22.7992306 26.411586,22.4525972 25.9768401,22.4525972 Z M3.93588487,25.5495071 C3.50113903,25.5495071 3.1487079,25.8961406 3.1487079,26.3237346 C3.1487079,26.7513286 3.50113903,27.0979621 3.93588487,27.0979621 C4.37063071,27.0979621 4.72306185,26.7513286 4.72306185,26.3237346 C4.72306185,25.8961406 4.37063071,25.5495071 3.93588487,25.5495071 Z M3.93588487,28.6464171 C3.50113903,28.6464171 3.1487079,28.9930505 3.1487079,29.4206446 C3.1487079,29.8482386 3.50113903,30.194872 3.93588487,30.194872 C4.37063071,30.194872 4.72306185,29.8482386 4.72306185,29.4206446 C4.72306185,28.9930505 4.37063071,28.6464171 3.93588487,28.6464171 Z M22.0409553,28.6464171 L22.0409553,29.4206446 L22.0409553,36.388692 L29.912725,36.388692 L29.912725,28.6464171 L22.0409553,28.6464171 Z M23.6153092,30.194872 L28.3383711,30.194872 L28.3383711,34.840237 L23.6153092,34.840237 L23.6153092,30.194872 Z M3.93588487,31.743327 C3.50113903,31.743327 3.1487079,32.0899605 3.1487079,32.5175545 C3.1487079,32.9451485 3.50113903,33.291782 3.93588487,33.291782 C4.37063071,33.291782 4.72306185,32.9451485 4.72306185,32.5175545 C4.72306185,32.0899605 4.37063071,31.743327 3.93588487,31.743327 Z M7.08459277,31.743327 C6.64984693,31.743327 6.29741579,32.0899605 6.29741579,32.5175545 C6.29741579,32.9451485 6.64984693,33.291782 7.08459277,33.291782 C7.51933861,33.291782 7.87176974,32.9451485 7.87176974,32.5175545 C7.87176974,32.0899605 7.51933861,31.743327 7.08459277,31.743327 Z M10.2333007,31.743327 C9.79855483,31.743327 9.44612369,32.0899605 9.44612369,32.5175545 C9.44612369,32.9451485 9.79855483,33.291782 10.2333007,33.291782 C10.6680465,33.291782 11.0204776,32.9451485 11.0204776,32.5175545 C11.0204776,32.0899605 10.6680465,31.743327 10.2333007,31.743327 Z M13.3820086,31.743327 C12.9472627,31.743327 12.5948316,32.0899605 12.5948316,32.5175545 C12.5948316,32.9451485 12.9472627,33.291782 13.3820086,33.291782 C13.8167544,33.291782 14.1691855,32.9451485 14.1691855,32.5175545 C14.1691855,32.0899605 13.8167544,31.743327 13.3820086,31.743327 Z M16.5307165,31.743327 C16.0959706,31.743327 15.7435395,32.0899605 15.7435395,32.5175545 C15.7435395,32.9451485 16.0959706,33.291782 16.5307165,33.291782 C16.9654623,33.291782 17.3178934,32.9451485 17.3178934,32.5175545 C17.3178934,32.0899605 16.9654623,31.743327 16.5307165,31.743327 Z M19.6794244,31.743327 C19.2446785,31.743327 18.8922474,32.0899605 18.8922474,32.5175545 C18.8922474,32.9451485 19.2446785,33.291782 19.6794244,33.291782 C20.1141702,33.291782 20.4666013,32.9451485 20.4666013,32.5175545 C20.4666013,32.0899605 20.1141702,31.743327 19.6794244,31.743327 Z M3.93588487,34.840237 C3.50113903,34.840237 3.1487079,35.1868704 3.1487079,35.6144645 C3.1487079,36.0420585 3.50113903,36.388692 3.93588487,36.388692 C4.37063071,36.388692 4.72306185,36.0420585 4.72306185,35.6144645 C4.72306185,35.1868704 4.37063071,34.840237 3.93588487,34.840237 Z M3.93588487,37.9371469 C3.50113903,37.9371469 3.1487079,38.2837804 3.1487079,38.7113744 C3.1487079,39.1389685 3.50113903,39.4856019 3.93588487,39.4856019 C4.37063071,39.4856019 4.72306185,39.1389685 4.72306185,38.7113744 C4.72306185,38.2837804 4.37063071,37.9371469 3.93588487,37.9371469 Z M22.0409553,37.9371469 L22.0409553,38.7113744 L22.0409553,45.6794218 L29.912725,45.6794218 L29.912725,37.9371469 L22.0409553,37.9371469 Z M23.6153092,39.4856019 L28.3383711,39.4856019 L28.3383711,44.1309668 L23.6153092,44.1309668 L23.6153092,39.4856019 Z M3.93588487,41.0340569 C3.50113903,41.0340569 3.1487079,41.3806903 3.1487079,41.8082844 C3.1487079,42.2358784 3.50113903,42.5825119 3.93588487,42.5825119 C4.37063071,42.5825119 4.72306185,42.2358784 4.72306185,41.8082844 C4.72306185,41.3806903 4.37063071,41.0340569 3.93588487,41.0340569 Z M7.08459277,41.0340569 C6.64984693,41.0340569 6.29741579,41.3806903 6.29741579,41.8082844 C6.29741579,42.2358784 6.64984693,42.5825119 7.08459277,42.5825119 C7.51933861,42.5825119 7.87176974,42.2358784 7.87176974,41.8082844 C7.87176974,41.3806903 7.51933861,41.0340569 7.08459277,41.0340569 Z M10.2333007,41.0340569 C9.79855483,41.0340569 9.44612369,41.3806903 9.44612369,41.8082844 C9.44612369,42.2358784 9.79855483,42.5825119 10.2333007,42.5825119 C10.6680465,42.5825119 11.0204776,42.2358784 11.0204776,41.8082844 C11.0204776,41.3806903 10.6680465,41.0340569 10.2333007,41.0340569 Z M13.3820086,41.0340569 C12.9472627,41.0340569 12.5948316,41.3806903 12.5948316,41.8082844 C12.5948316,42.2358784 12.9472627,42.5825119 13.3820086,42.5825119 C13.8167544,42.5825119 14.1691855,42.2358784 14.1691855,41.8082844 C14.1691855,41.3806903 13.8167544,41.0340569 13.3820086,41.0340569 Z M16.5307165,41.0340569 C16.0959706,41.0340569 15.7435395,41.3806903 15.7435395,41.8082844 C15.7435395,42.2358784 16.0959706,42.5825119 16.5307165,42.5825119 C16.9654623,42.5825119 17.3178934,42.2358784 17.3178934,41.8082844 C17.3178934,41.3806903 16.9654623,41.0340569 16.5307165,41.0340569 Z M19.6794244,41.0340569 C19.2446785,41.0340569 18.8922474,41.3806903 18.8922474,41.8082844 C18.8922474,42.2358784 19.2446785,42.5825119 19.6794244,42.5825119 C20.1141702,42.5825119 20.4666013,42.2358784 20.4666013,41.8082844 C20.4666013,41.3806903 20.1141702,41.0340569 19.6794244,41.0340569 Z" id="Shape" fill="#444B54" fill-rule="nonzero"></path>
            <path d="M19.1914062,11.375 L19.1914062,7.3671875 L21.2460938,7.3671875 C22.5950521,7.3671875 23.6510417,7.04557292 24.4140625,6.40234375 C25.1770833,5.75911458 25.5585938,4.88020833 25.5585938,3.765625 C25.5585938,3.03125 25.3841146,2.37630208 25.0351562,1.80078125 C24.6861979,1.22526042 24.1875,0.78125 23.5390625,0.46875 C22.890625,0.15625 22.1393229,0 21.2851562,0 L21.2851562,0 L16.8476562,0 L16.8476562,11.375 L19.1914062,11.375 Z M21.2851562,5.46875 L19.1914062,5.46875 L19.1914062,1.8984375 L21.3398438,1.8984375 C21.9179688,1.90885417 22.3710938,2.0859375 22.6992188,2.4296875 C23.0273438,2.7734375 23.1914062,3.22395833 23.1914062,3.78125 C23.1914062,4.32291667 23.0286458,4.73958333 22.703125,5.03125 C22.3776042,5.32291667 21.9049479,5.46875 21.2851562,5.46875 L21.2851562,5.46875 Z M29.5117188,11.375 L29.5117188,8.265625 L29.2773438,2.90625 L32.3398438,11.375 L33.9492188,11.375 L37.0195312,2.8984375 L36.7851562,8.265625 L36.7851562,11.375 L39.1367188,11.375 L39.1367188,0 L36.0585938,0 L33.1523438,8.25 L30.2304688,0 L27.1679688,0 L27.1679688,11.375 L29.5117188,11.375 Z" id="PM" fill="#444B54" fill-rule="nonzero"></path>
            <polygon id="Path" fill="#EA0074" points="40.1460257 23.2268247 40.1460257 43.0361612 35.9795224 38.9381991 34.8664053 40.0330047 40.9332027 46 47 40.0330047 45.886883 38.9381991 41.7203796 43.0361612 41.7203796 23.2268247"></polygon>
        </g>
    </g>
</svg>