<?xml version="1.0" encoding="UTF-8"?>
<svg width="53px" height="53px" viewBox="0 0 53 53" version="1.1" xmlns="http://www.w3.org/2000/svg" xmlns:xlink="http://www.w3.org/1999/xlink">
    <!-- Generator: Sketch 63.1 (92452) - https://sketch.com -->
    <title>Icon / Mail</title>
    <desc>Created with Sketch.</desc>
    <g id="Icon-/-Mail" stroke="none" stroke-width="1" fill="none" fill-rule="evenodd">
        <g id="icon-mail" transform="translate(6.000000, 9.000000)" fill-rule="nonzero">
            <path d="M33.0000007,17.5 C34.333334,16.5 35.5000007,15.3333333 36.5000007,14 C37.1799999,14 37.0000007,13.8956703 37.0000007,14.5912506 L37.0000007,28.175523 C37.0000007,28.9120197 36.1200001,29.280268 35.6400001,28.7483538 L33.8400003,26.907112 C33.3600003,26.4161142 32.6000004,26.4161142 32.1600004,26.907112 L30.3600005,28.7483538 C29.8800006,29.2393516 29.0000007,28.9120197 29.0000007,28.175523 L29.0000007,19.5012285 C30.333334,19.1670762 31.6666673,18.5 33.0000007,17.5 Z" id="raibow" fill="#EA0074"></path>
            <path d="M40.8113208,9.14772727 C41.4849057,9.14772727 42,9.66477273 42,10.3409091 L42,29.8295455 C42,32.6931818 39.7018868,35 36.8490566,35 L5.1509434,35 C2.29811321,35 0,32.6931818 0,29.8295455 L0,10.3409091 C0,9.66477273 0.51509434,9.14772727 1.18867925,9.14772727 C1.86226415,9.14772727 2.37735849,9.66477273 2.37735849,10.3409091 L2.37735849,29.8295455 C2.37735849,31.3806818 3.60566038,32.6136364 5.1509434,32.6136364 L36.8490566,32.6136364 C38.3943396,32.6136364 39.6226415,31.3806818 39.6226415,29.8295455 L39.6226415,10.3409091 C39.6226415,9.66477273 40.1377358,9.14772727 40.8113208,9.14772727 Z M35.6207547,11.4943182 C36.0962264,11.9318182 36.0962264,12.6875 35.6603774,13.1647727 C31.8566038,17.2613636 26.6264151,19.4886364 21,19.4886364 C15.3735849,19.4886364 10.1433962,17.2613636 6.26037736,13.1647727 C5.8245283,12.6875 5.8245283,11.9318182 6.3,11.4943182 C6.7754717,11.0568182 7.52830189,11.0568182 7.96415094,11.5340909 C11.4113208,15.1136364 16.0075472,17.1022727 20.9603774,17.1022727 C25.9132075,17.1022727 30.5490566,15.1136364 33.9566038,11.5340909 C34.3924528,11.0568182 35.145283,11.0568182 35.6207547,11.4943182 Z M36.8490566,0 C39.7018868,0 42,2.30681818 42,5.17045455 C42,5.84659091 41.4849057,6.36363636 40.8113208,6.36363636 C40.1377358,6.36363636 39.6226415,5.84659091 39.6226415,5.17045455 C39.6226415,3.61931818 38.3943396,2.38636364 36.8490566,2.38636364 L5.1509434,2.38636364 C3.60566038,2.38636364 2.37735849,3.61931818 2.37735849,5.17045455 C2.37735849,5.84659091 1.86226415,6.36363636 1.18867925,6.36363636 C0.51509434,6.36363636 0,5.84659091 0,5.17045455 C0,2.30681818 2.29811321,0 5.1509434,0 L36.8490566,0 Z" id="mail-icon" fill="#444B54"></path>
        </g>
    </g>
</svg>