<?xml version="1.0" encoding="UTF-8"?>
<svg width="53px" height="53px" viewBox="0 0 53 53" version="1.1" xmlns="http://www.w3.org/2000/svg" xmlns:xlink="http://www.w3.org/1999/xlink">
    <!-- Generator: Sketch 63.1 (92452) - https://sketch.com -->
    <title>Icon / PriceAfilliates</title>
    <desc>Created with Sketch.</desc>
    <g id="Icon-/-PriceAfilliates" stroke="none" stroke-width="1" fill="none" fill-rule="evenodd">
        <g id="icons8-user_groups" transform="translate(5.000000, 11.000000)" fill-rule="nonzero">
            <path d="M22.2777778,9.32587341e-14 C26.5857904,9.32587341e-14 30.0796903,3.51707317 30.0796903,7.85365854 C30.0796903,12.1902439 26.5857904,15.7073171 22.2777778,15.7073171 C17.9697652,15.7073171 14.4758653,12.1902439 14.4758653,7.85365854 C14.4758653,3.51707317 17.9697652,9.32587341e-14 22.2777778,9.32587341e-14 Z M22.2777778,2.04878049 C19.0891701,2.04878049 16.5111468,4.64390244 16.5111468,7.85365854 C16.5111468,11.0634146 19.0891701,13.6585366 22.2777778,13.6585366 C25.4663855,13.6585366 28.0444088,11.0634146 28.0444088,7.85365854 C28.0444088,4.64390244 25.4663855,2.04878049 22.2777778,2.04878049 Z" id="Combined-Shape" fill="#444B54"></path>
            <path d="M12.2709769,3.44864698 C8.67531291,3.65352502 5.82591877,6.72682927 5.82591877,10.4146341 C5.82591877,14.2731707 8.94668378,17.4146341 12.7797973,17.4146341 C14.0348876,17.4146341 15.2561892,17.0730372 16.3077513,16.4242567 C16.7826503,16.151086 16.9522571,15.502439 16.6469649,15.0243902 C16.375594,14.5463415 15.7312205,14.3756098 15.2563215,14.6829268 C14.5100516,15.1268293 13.6279639,15.3658537 12.7460086,15.3658537 C10.0322999,15.3658537 7.82741158,13.1463415 7.82741158,10.4146341 C7.82741158,7.8195122 9.82877175,5.66815917 12.406795,5.49742746 C12.9834581,5.46328112 13.3901169,4.98549937 13.3561955,4.40501156 C13.3222741,3.82452376 12.84764,3.41450063 12.2709769,3.44864698 Z" id="Path" fill="#444B54"></path>
            <path d="M32.2507899,3.44864698 C31.7080482,3.41450063 31.1988303,3.82452376 31.1649089,4.40501156 C31.1309875,4.98549937 31.5383088,5.46328112 32.1149719,5.49742746 C34.6929951,5.66815917 36.6943553,7.8195122 36.6943553,10.4146341 C36.6943553,13.1463415 34.489467,15.3658537 31.7757583,15.3658537 C30.8938029,15.3658537 30.011715,15.1268293 29.2654451,14.6829268 C28.7905461,14.4097561 28.1461729,14.5463415 27.874802,15.0243902 C27.6034311,15.502439 27.7391166,16.151086 28.2140156,16.4242567 C29.2655777,17.0730372 30.5208006,17.4146341 31.7419695,17.4146341 C35.6090041,17.3804878 38.7296368,14.2731707 38.7296368,10.4146341 C38.7296368,6.76097561 35.880375,3.68767137 32.2507899,3.44864698 Z" id="Path" fill="#444B54"></path>
            <path d="M22.2777778,18.5757433 C16.714675,18.5757433 11.5588933,21.6146341 8.81126327,26.4634146 C8.5398924,26.9756098 8.70923427,27.5901107 9.21805465,27.8632815 C9.38766145,27.9657205 9.55726824,28 9.72687504,28 C10.0660886,28 10.4390909,27.8292683 10.6086977,27.4878049 C12.9831929,23.2536585 17.4608122,20.6245238 22.3115665,20.6245238 C27.1283995,20.6245238 31.6060188,23.2536585 34.0144353,27.4878049 C34.2858062,27.9658537 34.8962587,28.1364522 35.4050791,27.8632815 C35.8799781,27.5901107 36.0501141,26.9756098 35.7787432,26.4634146 C32.9971921,21.6146341 27.8408807,18.5757433 22.2777778,18.5757433 Z" id="Path" fill="#EA0074"></path>
            <path d="M9.32074614,19.9789445 C9.25277113,19.9825459 9.18386837,19.9925494 9.11602565,20.0096226 C5.65604705,20.9998665 2.6712324,23.3560976 0.907321742,26.4634146 C0.635950871,26.9756098 0.805425158,27.5901107 1.28032419,27.8632815 C1.44993099,27.9657205 1.61953778,28 1.78914457,28 C2.12835816,28 2.50136058,27.8292683 2.67096741,27.4878049 C4.16350726,24.8243902 6.70813903,22.8098896 9.65929725,21.9903774 C10.202039,21.853792 10.5071989,21.272904 10.3715135,20.7265626 C10.2527887,20.2485138 9.79657291,19.9537349 9.32074614,19.9789445 Z" id="Path" fill="#444B54"></path>
            <path d="M35.2348108,19.9789445 C34.7589824,19.9537346 34.3027669,20.2485138 34.1840421,20.7265626 C34.0483567,21.272904 34.3535166,21.853792 34.8962587,21.9903774 C37.8134956,22.8098896 40.3581266,24.8243902 41.8845878,27.4878049 C42.0881159,27.8292683 42.4271972,28 42.7664108,28 C42.9360176,28 43.1056244,27.9657205 43.2752312,27.8632815 C43.7501302,27.5901107 43.9196047,26.9756098 43.6482339,26.4634146 C41.8843232,23.3560976 38.8995082,20.9998665 35.4395296,20.0096226 C35.3716869,19.9925494 35.3027858,19.9825459 35.2348108,19.9789445 Z" id="Path" fill="#444B54"></path>
        </g>
    </g>
</svg>