<?xml version="1.0" encoding="UTF-8"?>
<svg width="53px" height="53px" viewBox="0 0 53 53" version="1.1" xmlns="http://www.w3.org/2000/svg" xmlns:xlink="http://www.w3.org/1999/xlink">
    <!-- Generator: Sketch 63.1 (92452) - https://sketch.com -->
    <title>Icon / RSV</title>
    <desc>Created with Sketch.</desc>
    <g id="Icon-/-RSV" stroke="none" stroke-width="1" fill="none" fill-rule="evenodd">
        <g id="Group" transform="translate(4.000000, 6.000000)" fill="#444B54" fill-rule="nonzero">
            <path d="M3.91304348,0 C1.76163359,0 0,1.75790526 0,3.9047619 L0,37.0952381 C0,39.2420947 1.76163359,41 3.91304348,41 L41.0869565,41 C43.2383664,41 45,39.2420947 45,37.0952381 L45,3.9047619 C45,1.75790526 43.2383664,0 41.0869565,0 L3.91304348,0 Z M3.91304348,1.95238095 L41.0869565,1.95238095 C42.1798578,1.95238095 43.0434783,2.8141746 43.0434783,3.9047619 L43.0434783,6.83333333 L1.95652174,6.83333333 L1.95652174,3.9047619 C1.95652174,2.8141746 2.82014315,1.95238095 3.91304348,1.95238095 Z M1.95652174,8.78571429 L43.0434783,8.78571429 L43.0434783,32.2142857 L1.95652174,32.2142857 L1.95652174,8.78571429 Z M1.95652174,34.1666667 L43.0434783,34.1666667 L43.0434783,37.0952381 C43.0434783,38.1858264 42.1798578,39.047619 41.0869565,39.047619 L3.91304348,39.047619 C2.82014315,39.047619 1.95652174,38.1858264 1.95652174,37.0952381 L1.95652174,34.1666667 Z" id="Shape"></path>
        </g>
        <rect id="Rectangle-Copy" stroke="#444B54" stroke-width="2" fill="#FFFFFF" x="33" y="18" width="11" height="3"></rect>
        <rect id="Rectangle-Copy-2" stroke="#444B54" stroke-width="2" fill="#FFFFFF" x="33" y="25" width="11" height="3"></rect>
        <rect id="Rectangle-Copy-3" stroke="#444B54" stroke-width="2" fill="#FFFFFF" x="33" y="32" width="11" height="3"></rect>
        <g id="icons8-coins" transform="translate(9.000000, 18.000000)" fill="#EA0074" fill-rule="nonzero">
            <path d="M12.5121951,0 C9.4801831,0 7.02439024,1.35548816 7.02439024,3.02926829 C7.02439024,4.70304913 9.4801831,6.05853659 12.5121951,6.05853659 C15.5442071,6.05853659 18,4.70304913 18,3.02926829 C18,1.35548816 15.5442071,0 12.5121951,0 Z M18,3.92926829 C18,5.60304913 15.5442071,6.95853659 12.5121951,6.95853659 C9.48841499,6.95853659 7.03810958,5.61676847 7.02439024,3.95121951 C7.02439024,4.58780488 7.02439024,5.13658537 7.02439024,5.13658537 C7.02439024,5.85274373 7.48262213,6.50579286 8.23170732,7.02439024 C8.99176812,7.23292683 9.66676847,7.51829268 10.2292683,7.8804878 C10.9262199,8.05884129 11.6945125,8.16585366 12.5121951,8.16585366 C15.5442071,8.16585366 18,6.8103662 18,5.13658537 L18,3.92926829 Z M18,6.03658537 C18,7.7103662 15.5442071,9.06585366 12.5121951,9.06585366 C12.1445125,9.06585366 11.7850612,9.03841499 11.4365854,9 C11.7137193,9.38414634 11.9057929,9.80396324 11.9853659,10.2512195 C12.1609756,10.2621951 12.3338416,10.2731707 12.5121951,10.2731707 C15.5442071,10.2731707 18,8.91768328 18,7.24390244 L18,6.03658537 Z M5.48780488,7.72682927 C2.45579286,7.72682927 0,9.08231742 0,10.7560976 C0,12.4298784 2.45579286,13.7853659 5.48780488,13.7853659 C8.5198169,13.7853659 10.9756098,12.4298784 10.9756098,10.7560976 C10.9756098,9.08231742 8.5198169,7.72682927 5.48780488,7.72682927 Z M18,8.14390244 C18,9.81768328 15.5442071,11.1731707 12.5121951,11.1731707 C12.3365854,11.1731707 12.1582319,11.1594514 11.9853659,11.1512195 C11.977134,11.2033538 11.9743902,11.2746949 11.9634146,11.3268293 C11.9990852,11.4338416 12.0292683,11.5381096 12.0292683,11.6560976 L12.0292683,12.3585366 C12.188415,12.3667685 12.347561,12.3804878 12.5121951,12.3804878 C15.5442071,12.3804878 18,11.0250004 18,9.35121951 L18,8.14390244 Z M18,10.2512195 C18,11.9250004 15.5442071,13.2804878 12.5121951,13.2804878 C12.3365854,13.2804878 12.1582319,13.2667685 11.9853659,13.2585366 C11.977134,13.3106709 11.9743902,13.382012 11.9634146,13.4341463 C11.9990852,13.538415 12.0292683,13.6454267 12.0292683,13.7634146 L12.0292683,14.4658537 C12.188415,14.4740855 12.347561,14.4878049 12.5121951,14.4878049 C15.5442071,14.4878049 18,13.1323174 18,11.4585366 L18,10.2512195 Z M10.9756098,11.6560976 C10.9756098,13.3298784 8.5198169,14.6853659 5.48780488,14.6853659 C2.46402474,14.6853659 0.0137193366,13.3435977 0,11.6780488 C0,12.3146341 0,12.8634146 0,12.8634146 C0,14.5371955 2.45579286,15.8926829 5.48780488,15.8926829 C8.5198169,15.8926829 10.9756098,14.5371955 10.9756098,12.8634146 L10.9756098,11.6560976 Z M10.9756098,13.7634146 C10.9756098,15.4371955 8.5198169,16.7926829 5.48780488,16.7926829 C2.46402474,16.7926829 0.0137193366,15.4509148 0,13.7853659 C0,14.4219512 0,14.9707317 0,14.9707317 C0,16.6445125 2.45579286,18 5.48780488,18 C8.5198169,18 10.9756098,16.6445125 10.9756098,14.9707317 L10.9756098,13.7634146 Z" id="Shape"></path>
        </g>
    </g>
</svg>