<?xml version="1.0" encoding="UTF-8"?>
<svg width="53px" height="53px" viewBox="0 0 53 53" version="1.1" xmlns="http://www.w3.org/2000/svg" xmlns:xlink="http://www.w3.org/1999/xlink">
    <!-- Generator: Sketch 63.1 (92452) - https://sketch.com -->
    <title>Icon / OSDC</title>
    <desc>Created with Sketch.</desc>
    <g id="Icon-/-OSDC" stroke="none" stroke-width="1" fill="none" fill-rule="evenodd">
        <g id="Group" transform="translate(4.000000, 6.000000)" fill="#444B54" fill-rule="nonzero">
            <path d="M3.91304348,0 C1.76163359,0 0,1.75790526 0,3.9047619 L0,37.0952381 C0,39.2420947 1.76163359,41 3.91304348,41 L41.0869565,41 C43.2383664,41 45,39.2420947 45,37.0952381 L45,3.9047619 C45,1.75790526 43.2383664,0 41.0869565,0 L3.91304348,0 Z M3.91304348,1.95238095 L41.0869565,1.95238095 C42.1798578,1.95238095 43.0434783,2.8141746 43.0434783,3.9047619 L43.0434783,6.83333333 L1.95652174,6.83333333 L1.95652174,3.9047619 C1.95652174,2.8141746 2.82014315,1.95238095 3.91304348,1.95238095 Z M1.95652174,8.78571429 L43.0434783,8.78571429 L43.0434783,32.2142857 L1.95652174,32.2142857 L1.95652174,8.78571429 Z M1.95652174,34.1666667 L43.0434783,34.1666667 L43.0434783,37.0952381 C43.0434783,38.1858264 42.1798578,39.047619 41.0869565,39.047619 L3.91304348,39.047619 C2.82014315,39.047619 1.95652174,38.1858264 1.95652174,37.0952381 L1.95652174,34.1666667 Z" id="Shape"></path>
        </g>
        <g id="icons8-buy" transform="translate(14.000000, 17.000000)" fill="#EA0074" fill-rule="nonzero">
            <path d="M1,0 C0.449219,0 0,0.449219 0,1 C0,1.550781 0.449219,2 1,2 L3.21875,2 L5.84375,12.5 C6.066406,13.390625 6.863281,14 7.78125,14 L20.25,14 C21.152344,14 21.917969,13.402344 22.15625,12.53125 L24.75,3 L22.65625,3 L20.25,12 L7.78125,12 L5.15625,1.5 C4.933594,0.609375 4.136719,0 3.21875,0 L1,0 Z M19,14 C17.355469,14 16,15.355469 16,17 C16,18.644531 17.355469,20 19,20 C20.644531,20 22,18.644531 22,17 C22,15.355469 20.644531,14 19,14 Z M10,14 C8.355469,14 7,15.355469 7,17 C7,18.644531 8.355469,20 10,20 C11.644531,20 13,18.644531 13,17 C13,15.355469 11.644531,14 10,14 Z M13,0 L13,5 L10,5 L14,9 L18,5 L15,5 L15,0 L13,0 Z M10,16 C10.5625,16 11,16.4375 11,17 C11,17.5625 10.5625,18 10,18 C9.4375,18 9,17.5625 9,17 C9,16.4375 9.4375,16 10,16 Z M19,16 C19.5625,16 20,16.4375 20,17 C20,17.5625 19.5625,18 19,18 C18.4375,18 18,17.5625 18,17 C18,16.4375 18.4375,16 19,16 Z" id="Shape"></path>
        </g>
    </g>
</svg>