<?xml version="1.0" encoding="UTF-8"?>
<svg width="53px" height="53px" viewBox="0 0 53 53" version="1.1" xmlns="http://www.w3.org/2000/svg" xmlns:xlink="http://www.w3.org/1999/xlink">
    <!-- Generator: Sketch 63.1 (92452) - https://sketch.com -->
    <title>Icon / Isotipo CO</title>
    <desc>Created with Sketch.</desc>
    <defs>
        <polygon id="path-1" points="0.594523406 0.449065826 22.2496787 0.449065826 22.2496787 13.1986532 0.594523406 13.1986532"></polygon>
        <polygon id="path-3" points="0 0.660431559 12.6380328 0.660431559 12.6380328 21.7063665 0 21.7063665"></polygon>
    </defs>
    <g id="Icon-/-Isotipo-CO" stroke="none" stroke-width="1" fill="none" fill-rule="evenodd">
        <g id="Group-2" transform="translate(11.000000, 11.000000)">
            <path d="M16.0100654,6.2736037 L8.39078227,0.52098146 C7.61522162,-0.173660487 6.35723115,-0.173660487 5.5816705,0.52098146 C4.80610983,1.2156234 4.80610983,2.34172783 5.5816705,3.03700243 L13.3909589,10.0321354 C14.833304,11.322727 17.1797634,11.322727 18.6228148,10.0315027 L26.4179763,3.04902264 C26.8057567,2.70170167 27,2.2468314 27,1.79132848 C27,1.33582556 26.8057567,0.880955292 26.4179763,0.533634319 C25.6424157,-0.161007628 24.3851316,-0.161007628 23.6095709,0.533634319 L16.0100654,6.2736037 Z" id="Fill-1" fill="#4FC3F4" fill-rule="nonzero"></path>
            <path d="M24.4167583,5.58333333 C24.4744726,5.52555556 24.531077,5.46888889 24.5832418,5.41666667 L24.4167583,5.58333333 Z" id="Fill-3" fill="#4E67F1" fill-rule="nonzero"></path>
            <path d="M24.5948957,4.405 L24.6881264,4.31166667 C24.5671484,4.43277778 24.4417308,4.55833333 24.3118737,4.68833333 L24.5948957,4.405 Z" id="Fill-5" fill="#4E67F1" fill-rule="nonzero"></path>
            <path d="M24.6992253,5.30055556 L24.3007748,5.69944444 C24.4583792,5.54166667 24.5937858,5.40611111 24.6992253,5.30055556" id="Fill-7" fill="#4E67F1" fill-rule="nonzero"></path>
            <path d="M24.4167583,4.58333333 C24.4744726,4.52555555 24.531077,4.46888889 24.5832418,4.41666667 L24.4167583,4.58333333 Z" id="Fill-9" fill="#4E67F1" fill-rule="nonzero"></path>
            <path d="M25.5948957,4.405 L25.6881264,4.31166667 C25.5671484,4.43277778 25.4417308,4.55833333 25.3118736,4.68833333 L25.5948957,4.405 Z" id="Fill-11" fill="#4E67F1" fill-rule="nonzero"></path>
            <path d="M25.6992253,4.30055555 L25.3007747,4.69944445 C25.4583791,4.54166668 25.5937857,4.40611111 25.6992253,4.30055555" id="Fill-13" fill="#4E67F1" fill-rule="nonzero"></path>
            <g id="Group-17" transform="translate(3.000000, 18.000000)">
                <g id="Fill-15-Clipped">
                    <g>
                        <mask id="mask-2" fill="white">
                            <use xlink:href="#path-1"></use>
                        </mask>
                        <g id="path-1"></g>
                        <path d="M11.4121935,5.92714852 L18.9120461,12.5946682 C19.67545,13.3997861 20.9137218,13.4005193 21.6771258,12.5946682 C22.4405297,11.7902836 22.4405297,10.4843502 21.6771258,9.67849907 L13.990246,1.57085971 C12.5705094,0.0750123457 10.2608302,0.0750123457 8.84039827,1.57159297 L1.16742399,9.66456716 C0.785722021,10.0671261 0.594523406,10.5943389 0.594523406,11.122285 C0.594523406,11.6502312 0.785722021,12.177444 1.16742399,12.5807362 C1.93082791,13.3851208 3.16840442,13.3851208 3.93180835,12.5807362 L11.4121935,5.92714852 Z" id="Fill-15" fill="#FCB000" fill-rule="nonzero" mask="url(#mask-2)"></path>
                    </g>
                </g>
            </g>
            <path d="M24.1443876,15.9945269 L30.4284607,8.39502739 C31.187287,7.62158637 31.1907299,6.36430324 30.4374123,5.58591784 C29.6834062,4.80823877 28.4577159,4.80400074 27.6988897,5.57744177 L20.0617371,13.3627085 C18.6521932,14.8008143 18.6453072,17.1465656 20.0458995,18.5938539 L27.6224561,26.4137311 C27.9998034,26.8022175 28.4942111,26.9978734 28.9899961,27 C29.4857808,27.0014051 29.9815657,26.8085745 30.3609788,26.4222072 C31.1191166,25.6487662 31.123248,24.391483 30.3699305,23.6130977 L24.1443876,15.9945269 Z" id="Fill-18" fill="#5C469C" fill-rule="nonzero"></path>
            <g id="Group-22" transform="translate(0.000000, 3.000000)">
                <g id="Fill-20-Clipped">
                    <g>
                        <mask id="mask-4" fill="white">
                            <use xlink:href="#path-3"></use>
                        </mask>
                        <g id="path-3"></g>
                        <path d="M7.22014791,11.1886765 L0.601987202,18.4586405 C-0.197181449,19.1985429 -0.201532639,20.4013066 0.592559623,21.1452634 C1.38665189,21.8898959 2.67750505,21.8939501 3.47667372,21.1540477 L11.5198493,13.706372 C13.0043305,12.3306264 13.0115824,10.0859178 11.5365289,8.701388 L3.55717073,1.22127826 C3.159762,0.848962049 2.63906953,0.661790378 2.11692669,0.66043156 C1.59478383,0.659087537 1.07264097,0.842880658 0.673056647,1.21316974 C-0.125386805,1.95239648 -0.129737997,3.155836 0.663629068,3.89979271 L7.22014791,11.1886765 Z" id="Fill-20" fill="#EA0074" fill-rule="nonzero" mask="url(#mask-4)"></path>
                    </g>
                </g>
            </g>
        </g>
        <g id="icons8-colombia-2" transform="translate(37.000000, 40.000000)" fill-rule="nonzero">
            <g id="icons8-colombia">
                <polygon id="Path" fill="#FFEEA3" points="0.375 0.375 11.625 0.375 11.625 4.875 0.375 4.875"></polygon>
                <path d="M11.25,0.75 L11.25,4.5 L0.75,4.5 L0.75,0.75 L11.25,0.75 M12,0 L0,0 L0,5.25 L12,5.25 L12,0 L12,0 Z" id="Shape" fill="#F5C276"></path>
                <polygon id="Path" fill="#F78F8F" points="0.375 6.375 11.625 6.375 11.625 8.625 0.375 8.625"></polygon>
                <path d="M11.25,6.75 L11.25,8.25 L0.75,8.25 L0.75,6.75 L11.25,6.75 M12,6 L0,6 L0,9 L12,9 L12,6 L12,6 Z" id="Shape" fill="#C74343"></path>
                <g id="Group" transform="translate(0.000000, 4.500000)">
                    <polygon id="Path" fill="#8BB7F0" points="0.375 0.375 11.625 0.375 11.625 1.875 0.375 1.875"></polygon>
                    <path d="M11.25,0.75 L11.25,1.5 L0.75,1.5 L0.75,0.75 L11.25,0.75 M12,0 L0,0 L0,2.25 L12,2.25 L12,0 L12,0 Z" id="Shape" fill="#4E7AB5"></path>
                </g>
            </g>
        </g>
    </g>
</svg>