<?xml version="1.0" encoding="UTF-8"?>
<svg width="53px" height="53px" viewBox="0 0 53 53" version="1.1" xmlns="http://www.w3.org/2000/svg" xmlns:xlink="http://www.w3.org/1999/xlink">
    <!-- Generator: Sketch 63.1 (92452) - https://sketch.com -->
    <title>Icon / CC</title>
    <desc>Created with Sketch.</desc>
    <g id="Icon-/-CC" stroke="none" stroke-width="1" fill="none" fill-rule="evenodd">
        <g id="icons8-technical_support-2" transform="translate(7.000000, 5.000000)" fill-rule="nonzero">
            <g id="icons8-technical_support">
                <path d="M32.6570433,41.9524687 L24.5299957,38.5 C23.9808709,40.5331205 21.7111549,41.6839434 20.0637803,41.914108 L20.0637803,41.9524687 C19.8075221,41.9524687 19.3682222,41.914108 19.3316139,41.914108 C17.757456,41.6072219 16.2931231,40.4947597 15.7806066,38.5383608 L7.65355898,41.9908295 L7.65355898,41.9908295 C15.7439983,44.676083 24.5299957,44.676083 32.6570433,41.9524687 L32.6570433,41.9524687 Z" id="Path" fill="#FFFFFF"></path>
                <path d="M19.5732143,3.3 C27.6412729,3.3 32.5090853,9.27138111 32.6537267,19.3394009 C32.8867075,19.4765526 33.0668925,19.7026264 33.1372652,19.9888171 C33.3204761,20.5848804 32.9906965,21.2181976 32.4044217,21.3672134 C32.2195299,21.4246514 32.0353581,21.4769661 31.852007,21.5245681 C31.730115,22.4731875 31.5174997,23.3396991 31.242492,24.1252477 C31.7138905,24.4054062 31.9289823,24.9819488 31.7304265,25.4971585 C27.727442,37.2304918 21.9082886,38.5 19.5732143,38.5 C17.571722,38.5 13.6428669,37.6151913 10.1217231,31.5754098 C9.78814103,31.0368306 9.97346439,30.3059016 10.4923698,29.9981421 C11.0112752,29.6519126 11.7155039,29.8442623 12.0120213,30.3828415 C14.977195,35.4608743 18.0164981,36.1918033 19.5732143,36.1918033 C21.1288597,36.1918033 24.6693871,35.4056984 27.87095,29.0323371 C27.6600156,29.2044414 27.4577743,29.3552163 27.2684882,29.4869885 C26.9767988,29.6900491 26.6987827,29.8434735 26.4663425,29.9562848 C26.2629573,30.0549948 26.1607667,30.1467954 25.8727626,30.1682032 L25.7371191,30.1728831 L23.4400655,30.1728831 C23.0207621,31.3777114 21.6808147,32.2666667 20.085638,32.2666667 C18.1531961,32.2666667 16.5853659,30.9715891 16.5853659,29.3786894 C16.5853659,27.7857897 18.1531961,26.4907121 20.085638,26.4907121 C21.6114592,26.4907121 22.9037624,27.3040473 23.3802074,28.4291826 L23.4400655,28.5844956 L25.6277356,28.5844956 C25.6505235,28.5754713 25.7052153,28.5438837 25.7735803,28.5122962 C25.9103102,28.4491223 26.0880576,28.3498475 26.3204978,28.1873988 C26.7853783,27.8670135 27.3778717,27.3661308 27.9612504,26.6712107 C28.8406077,25.626443 29.6997791,24.1419827 30.113194,22.172685 L30.1758943,21.8423846 L29.6406847,21.9010869 C29.2863176,21.933105 28.9370214,21.9526974 28.5936351,21.9632767 C24.5996377,21.9632767 21.1552729,20.1378329 18.2605408,18.6104207 C15.7688727,17.2692783 13.6069842,16.1516596 12.0680127,16.7104689 C11.0420317,17.0830085 10.1259772,18.2378811 9.31984929,20.2123408 C9.09999622,20.7711501 8.44043701,21.0319278 7.89080433,20.8084041 C7.34117166,20.5848804 7.08467641,19.9143091 7.30452948,19.3554998 C8.36715265,16.7477229 9.68627107,15.2203107 11.3351691,14.5869934 C13.7901951,13.6928985 16.3551475,15.0340409 19.2865218,16.5987071 C22.5382308,18.3191762 26.1805407,20.2534805 30.4311144,19.5524223 L30.433163,19.8036066 C30.433163,10.8016393 26.4672432,5.60819672 19.5732143,5.60819672 C14.8289363,5.60819672 11.4560512,8.03180328 9.8252057,12.6097268 C9.60281767,13.2252459 8.97271826,13.4945355 8.37968352,13.3021858 C7.78664877,13.0713661 7.52719607,12.417377 7.71251943,11.8018579 C9.71401169,6.33912568 13.9023196,3.3 19.5732143,3.3 Z M19.6117471,0.190384615 C27.9469814,0.190384615 34.811292,6.77769231 35.263884,15.1926923 C35.3015999,15.84 34.811292,16.3730769 34.2078362,16.4111538 C33.6043803,16.4492308 33.0386404,15.9542308 33.0009244,15.345 C32.6237645,8.14846154 26.7400697,2.51307692 19.6117471,2.51307692 C12.3702766,2.51307692 6.48658181,8.26269231 6.18485387,15.6115385 C6.18485387,16.1826923 5.65682998,16.6776923 5.0533741,16.6776923 L5.01565811,16.6776923 L5.01565811,16.6776923 C4.37448624,16.6396154 3.92189433,16.1065385 3.92189433,15.4973077 C4.26133826,6.89192308 11.1256489,0.190384615 19.6117471,0.190384615 Z" id="Combined-Shape" fill="#454B54"></path>
                <path d="M23.9619649,38.2287966 L32.0598864,41.5816526 C32.609519,41.8051764 32.9026565,42.4757476 32.6461612,43.0345569 C32.4629503,43.4443504 32.0232442,43.7051281 31.6201802,43.7051281 C31.4736115,43.7051281 31.3270428,43.6678742 31.2171162,43.6306202 L24.2924812,40.7641946 C23.5827696,42.2168124 22.2900514,43.2984248 20.6261408,43.7238654 L20.3845332,43.7804473 L20.3845332,43.7804473 C17.8620064,44.3178178 15.467321,43.1818179 14.2760507,40.8915628 C14.2546858,40.8533573 14.2360012,40.81439 14.2199191,40.7748682 L7.36122279,43.6149872 C7.21465408,43.6894951 7.06808536,43.7267491 6.95815883,43.7267491 C6.51845269,43.7267491 6.11538872,43.4659714 5.93217783,43.0189239 C5.71232476,42.4601146 5.96882001,41.7895434 6.51845269,41.5660196 L14.6163741,38.2131636 C15.1660068,37.9896399 15.825566,38.2504175 16.0454191,38.8092269 C16.1517505,39.0794938 16.1466569,39.3759035 16.0508652,39.6352365 C16.1147831,39.7062283 16.1709023,39.7886153 16.2152409,39.8798639 C17.13534,41.5918788 18.7286589,41.9258755 19.972158,41.6609743 C20.9470908,41.4532854 22.0181548,40.7864633 22.4717506,39.5174996 C22.4154921,39.2926897 22.4297057,39.0497261 22.53292,38.8248599 C22.5686953,38.7339282 22.6161137,38.6499017 22.6728069,38.5740644 C22.6775607,38.5512086 22.6795948,38.5268709 22.681436,38.5023774 L22.727596,38.5065474 C23.0283743,38.1645497 23.5292383,38.0234859 23.9619649,38.2287966 Z" id="Combined-Shape" fill="#EA0074"></path>
                <g id="Group" transform="translate(0.155301, 13.688889)" fill="#454B54">
                    <path d="M32.327697,0.818418803 L35.3826924,1.35149573 C37.306208,1.69418803 38.6262677,3.55995726 38.2868238,5.53995726 L37.0044801,12.8126496 C36.7404681,14.5261111 35.2695444,15.7826496 33.5346088,15.7826496 C33.3460288,15.7826496 33.1197329,15.7826496 32.9311529,15.7445726 L30.0647375,15.2495726 C29.4612816,15.1353419 29.0464057,14.564188 29.1218377,13.9549573 L31.0076373,1.77034188 C31.0453533,1.4657265 31.2339333,1.19918803 31.4602292,1.00880342 C31.7242412,0.818418803 32.0259691,0.742264957 32.327697,0.818418803 Z M33.1197329,3.25534188 L31.5733772,13.1553419 L33.3083128,13.4599573 C33.3837448,13.4599573 33.4591768,13.4980342 33.5346088,13.4980342 C34.1757807,13.4980342 34.7038045,13.0411111 34.8169525,12.3938034 L36.0992963,5.12111111 C36.2124442,4.39764957 35.7598523,3.71226496 35.0432485,3.59803419 L33.1197329,3.25534188 Z M4.903079,15.7826496 C4.903079,15.7826496 4.903079,15.7826496 4.903079,15.7826496 C3.16814335,15.7826496 1.69721965,14.5261111 1.39549172,12.8126496 L0.113147977,5.53995726 C-0.226295954,3.59803419 1.05604778,1.73226496 2.97956339,1.35149573 L6.03455877,0.818418803 C6.33628671,0.78034188 6.63801465,0.818418803 6.8643106,1.00880342 C7.12832255,1.19918803 7.27918652,1.4657265 7.31690251,1.73226496 L9.42899808,13.8407265 C9.54214606,14.4499573 9.12727014,15.059188 8.52381426,15.1734188 L5.46881889,15.7064957 C5.31795492,15.7445726 5.12937496,15.7826496 4.903079,15.7826496 Z M5.35567091,3.25534188 L3.39443931,3.59803419 C2.67783545,3.71226496 2.22524355,4.39764957 2.33839152,5.12111111 L3.62073526,12.3938034 C3.73388324,13.0411111 4.26190713,13.4980342 4.903079,13.4980342 L4.903079,13.4980342 C4.97851099,13.4980342 5.05394297,13.4980342 5.12937496,13.4599573 L7.09060656,13.117265 L5.35567091,3.25534188 Z" id="Shape"></path>
                </g>
            </g>
        </g>
    </g>
</svg>