<?xml version="1.0" encoding="UTF-8"?>
<svg width="53px" height="53px" viewBox="0 0 53 53" version="1.1" xmlns="http://www.w3.org/2000/svg" xmlns:xlink="http://www.w3.org/1999/xlink">
    <!-- Generator: Sketch 63.1 (92452) - https://sketch.com -->
    <title>Icon / University</title>
    <desc>Created with Sketch.</desc>
    <g id="Icon-/-University" stroke="none" stroke-width="1" fill="none" fill-rule="evenodd">
        <g id="Group" transform="translate(4.000000, 9.000000)">
            <g id="icons8-student_male" fill="#444B54" fill-rule="nonzero">
                <path d="M23.3922414,0.103015985 L44.3405172,9.86475425 C44.7672414,10.059989 45,10.4895055 45,10.919022 C45,11.3485385 44.7284483,11.7780549 44.3405172,11.9732897 L39.642,14.162 L39.6428571,24.7126799 C39.6428571,26.3561151 38.9090532,27.8848921 37.6345515,28.8785971 C33.3089701,32.3183453 28.0178571,34 22.8039867,34 C17.5901163,34 12.4148671,32.3183453 8.35963455,28.9168165 C7.12375415,27.8848921 6.42857143,26.3561151 6.42857143,24.7126799 L6.428,14.548 L0.698275862,11.9732897 C0.271551724,11.8171019 0,11.3875854 0,10.919022 C0,10.4504585 0.271551724,10.0209421 0.698275862,9.86475425 L22.4224138,0.103015985 C22.7327586,-0.0531718275 23.0818966,-0.0141248745 23.3922414,0.103015985 Z M37.325,15.242 L23.3922414,21.735028 C23.237069,21.8131219 23.0431034,21.8521688 22.887931,21.8521688 C22.7327586,21.8521688 22.5775862,21.8131219 22.4224138,21.735028 L8.745,15.589 L8.74584718,24.7126799 C8.74584718,25.6681655 9.17068106,26.5472122 9.86586379,27.158723 C17.1652824,33.2738309 28.4813123,33.2356115 36.2055648,27.1205036 C36.9393688,26.5472122 37.3255814,25.6681655 37.3255814,24.7126799 L37.325,15.242 Z M22.887931,2.44583317 L4.03448276,10.919022 L22.887931,19.3922108 L41.0818966,10.919022 L22.887931,2.44583317 Z" id="Combined-Shape"></path>
            </g>
            <rect id="Rectangle" fill="#EA0074" x="42" y="14" width="2" height="14" rx="1"></rect>
            <path d="M43,35 C44.1045695,35 45,32.3868031 45,31.1818182 C45,29.9768333 44.1045695,29 43,29 C41.8954305,29 41,29.9768333 41,31.1818182 C41,32.3868031 41.8954305,35 43,35 Z" id="Oval" fill="#EA0074"></path>
        </g>
        <g id="isotipo-2" transform="translate(23.000000, 32.000000)" fill="#444B54">
            <g id="isotipo">
                <path d="M4.11422736,5.91067984 L5.8931154,7.58708479 C6.07418697,7.78951442 6.36789234,7.78969878 6.5489639,7.58708479 C6.73003547,7.38483952 6.73003547,7.05649054 6.5489639,6.85387655 L4.72571497,4.81538437 C4.38896801,4.4392856 3.84113581,4.4392856 3.50422395,4.81556873 L1.68427323,6.85037367 C1.59373745,6.95158848 1.5483871,7.08414486 1.5483871,7.2168856 C1.5483871,7.34962634 1.59373745,7.48218272 1.68427323,7.58358189 C1.8653448,7.78582716 2.15888524,7.78582716 2.33995682,7.58358189 L4.11422736,5.91067984 Z" id="up-arrow"></path>
                <path d="M4.11422736,1.37734651 L5.8931154,3.05375146 C6.07418697,3.25618109 6.36789234,3.25636544 6.5489639,3.05375146 C6.73003547,2.85150618 6.73003547,2.52315721 6.5489639,2.32054321 L4.72571497,0.282051034 C4.38896801,-0.0940477326 3.84113581,-0.0940477326 3.50422395,0.282235395 L1.68427323,2.31704033 C1.59373745,2.41825515 1.5483871,2.55081153 1.5483871,2.68355227 C1.5483871,2.81629301 1.59373745,2.94884938 1.68427323,3.05024855 C1.8653448,3.25249383 2.15888524,3.25249383 2.33995682,3.05024855 L4.11422736,1.37734651 Z" id="top-arrow" transform="translate(4.116577, 1.602821) rotate(-180.000000) translate(-4.116577, -1.602821) "></path>
                <path d="M6.43672968,3.78461989 L8.27491398,5.40694726 C8.46202127,5.6028469 8.76551681,5.60302531 8.9526241,5.40694726 C9.13973139,5.21122603 9.13973139,4.89346895 8.9526241,4.6973909 L7.0686002,2.72465653 C6.72062834,2.36068998 6.15453507,2.36068998 5.80639281,2.72483494 L3.92577707,4.69400101 C3.83222343,4.79195084 3.7853614,4.9202312 3.7853614,5.04868998 C3.7853614,5.17714876 3.83222343,5.30542913 3.92577707,5.40355736 C4.11288437,5.59927859 4.41620949,5.59927859 4.60331678,5.40355736 L6.43672968,3.78461989 Z" id="rigth-arrow" transform="translate(6.439158, 4.002821) rotate(-90.000000) translate(-6.439158, -4.002821) "></path>
                <path d="M1.79156839,3.78461989 L3.62975269,5.40694726 C3.81685998,5.6028469 4.12035552,5.60302531 4.30746281,5.40694726 C4.4945701,5.21122603 4.4945701,4.89346895 4.30746281,4.6973909 L2.42343891,2.72465653 C2.07546705,2.36068998 1.50937378,2.36068998 1.16123152,2.72483494 L-0.719384217,4.69400101 C-0.812937863,4.79195084 -0.85979989,4.9202312 -0.85979989,5.04868998 C-0.85979989,5.17714876 -0.812937863,5.30542913 -0.719384217,5.40355736 C-0.532276925,5.59927859 -0.228951804,5.59927859 -0.0418445108,5.40355736 L1.79156839,3.78461989 Z" id="left-arrow" transform="translate(1.793997, 4.002821) scale(-1, 1) rotate(-90.000000) translate(-1.793997, -4.002821) "></path>
            </g>
        </g>
    </g>
</svg>