<?xml version="1.0" encoding="UTF-8"?>
<svg width="53px" height="53px" viewBox="0 0 53 53" version="1.1" xmlns="http://www.w3.org/2000/svg" xmlns:xlink="http://www.w3.org/1999/xlink">
    <!-- Generator: Sketch 63.1 (92452) - https://sketch.com -->
    <title>Icon / Isotipo MX</title>
    <desc>Created with Sketch.</desc>
    <defs>
        <polygon id="path-1" points="0.575345232 0.434579832 21.5319471 0.434579832 21.5319471 12.7728901 0.575345232 12.7728901"></polygon>
        <polygon id="path-3" points="0 0.639127315 12.2303543 0.639127315 12.2303543 21.0061612 0 21.0061612"></polygon>
    </defs>
    <g id="Icon-/-Isotipo-MX" stroke="none" stroke-width="1" fill="none" fill-rule="evenodd">
        <g id="Group-2" transform="translate(12.000000, 11.000000)">
            <path d="M15.4936116,6.07122939 L8.12011188,0.504175607 C7.36956931,-0.168058536 6.15215917,-0.168058536 5.40161661,0.504175607 C4.65107403,1.17640974 4.65107403,2.26618822 5.40161661,2.93903461 L12.9589925,9.70851816 C14.3548103,10.9574777 16.6255775,10.9574777 18.0220788,9.70790586 L25.5657835,2.95066707 C25.9410548,2.61455001 26.1290323,2.17435297 26.1290323,1.73354369 C26.1290323,1.29273441 25.9410548,0.852537379 25.5657835,0.516420308 C24.815241,-0.155813834 23.5985145,-0.155813834 22.8479719,0.516420308 L15.4936116,6.07122939 Z" id="Fill-1" fill="#4FC3F4" fill-rule="nonzero"></path>
            <path d="M23.6291209,5.4032258 C23.6849734,5.34731183 23.7397519,5.29247312 23.790234,5.24193549 L23.6291209,5.4032258 Z" id="Fill-3" fill="#4E67F1" fill-rule="nonzero"></path>
            <path d="M23.8015119,4.26290323 L23.8917352,4.17258065 C23.7746597,4.28978495 23.6532878,4.41129032 23.5276197,4.53709677 L23.8015119,4.26290323 Z" id="Fill-5" fill="#4E67F1" fill-rule="nonzero"></path>
            <path d="M23.902476,5.1295699 L23.5168788,5.51559139 C23.6693992,5.36290323 23.8004378,5.23172043 23.902476,5.1295699" id="Fill-7" fill="#4E67F1" fill-rule="nonzero"></path>
            <path d="M23.6291209,4.43548387 C23.6849734,4.37956989 23.7397519,4.32473118 23.790234,4.27419355 L23.6291209,4.43548387 Z" id="Fill-9" fill="#4E67F1" fill-rule="nonzero"></path>
            <path d="M24.7692539,4.26290323 L24.8594771,4.17258065 C24.7424016,4.28978495 24.6210298,4.41129032 24.4953616,4.53709677 L24.7692539,4.26290323 Z" id="Fill-11" fill="#4E67F1" fill-rule="nonzero"></path>
            <path d="M24.870218,4.16182796 L24.4846207,4.54784946 C24.6371411,4.3951613 24.7681798,4.2639785 24.870218,4.16182796" id="Fill-13" fill="#4E67F1" fill-rule="nonzero"></path>
            <g id="Group-17" transform="translate(2.903226, 17.419355)">
                <g id="Fill-15-Clipped">
                    <g>
                        <mask id="mask-2" fill="white">
                            <use xlink:href="#path-1"></use>
                        </mask>
                        <g id="path-1"></g>
                        <path d="M11.0440582,5.73595018 L18.3019801,12.1883886 C19.040758,12.9675349 20.2390856,12.9682444 20.9778637,12.1883886 C21.7166416,11.4099519 21.7166416,10.1461453 20.9778637,9.36628942 L13.5389478,1.52018682 C12.1650091,0.0725925926 9.92983565,0.0725925926 8.55522413,1.52089643 L1.12976515,9.35280693 C0.76037615,9.74238007 0.575345232,10.2525861 0.575345232,10.7635017 C0.575345232,11.2744173 0.76037615,11.7846233 1.12976515,12.174906 C1.86854314,12.9533428 3.06619783,12.9533428 3.80497583,12.174906 L11.0440582,5.73595018 Z" id="Fill-15" fill="#FCB000" fill-rule="nonzero" mask="url(#mask-2)"></path>
                    </g>
                </g>
            </g>
            <path d="M23.3655364,15.4785744 L29.4468975,8.12422006 C30.1812455,7.37572875 30.1845773,6.15900313 29.4555603,5.40572694 C28.725877,4.6531343 27.5397251,4.64903297 26.8053771,5.3975243 L19.4145843,12.9316534 C18.0505095,14.3233687 18.0438457,16.5934506 19.3992576,17.9940522 L26.7314092,25.5616752 C27.096584,25.9376298 27.575043,26.1269742 28.0548349,26.1290323 C28.5346266,26.130392 29.0144184,25.9437818 29.3815924,25.569878 C30.1152741,24.8213866 30.1192723,23.6046609 29.3902553,22.8513848 L23.3655364,15.4785744 Z" id="Fill-18" fill="#5C469C" fill-rule="nonzero"></path>
            <g id="Group-22" transform="translate(0.000000, 2.903226)">
                <g id="Fill-20-Clipped">
                    <g>
                        <mask id="mask-4" fill="white">
                            <use xlink:href="#path-3"></use>
                        </mask>
                        <g id="path-3"></g>
                        <path d="M6.98723991,10.8277514 L0.58256826,17.8632005 C-0.190820757,18.579235 -0.195031586,19.7432 0.573444796,20.4631582 C1.34192118,21.1837702 2.59113392,21.1876936 3.36452295,20.471659 L11.1482413,13.264231 C12.584836,11.9328643 12.591854,9.76056561 11.1643828,8.42069806 L3.44242329,1.18188219 C3.05783419,0.821576176 2.55393826,0.640442301 2.04863873,0.639127316 C1.54333919,0.637826649 1.03803965,0.81569096 0.651345142,1.17403523 C-0.12134207,1.88941595 -0.1255529,3.05403484 0.642221678,3.77399295 L6.98723991,10.8277514 Z" id="Fill-20" fill="#EA0074" fill-rule="nonzero" mask="url(#mask-4)"></path>
                    </g>
                </g>
            </g>
        </g>
        <g id="icons8-mexico-2" transform="translate(37.000000, 40.000000)" fill-rule="nonzero">
            <g id="icons8-mexico">
                <polygon id="Path" fill="#F2FAFF" points="3.375 0.375 8.625 0.375 8.625 8.625 3.375 8.625"></polygon>
                <path d="M8.25,0.75 L8.25,8.25 L3.75,8.25 L3.75,0.75 L8.25,0.75 M9,0 L3,0 L3,9 L9,9 L9,0 L9,0 Z" id="Shape" fill="#A3B7CC"></path>
                <polygon id="Path" fill="#5E9C76" points="3.75 0 0 0 0 9 3.75 9"></polygon>
                <polygon id="Path" fill="#C74343" points="12 0 8.25 0 8.25 9 12 9"></polygon>
                <path d="M6,3.75 C5.58578644,3.75 5.25,4.08578644 5.25,4.5 C5.25,4.91421356 5.58578644,5.25 6,5.25 C6.41421356,5.25 6.75,4.91421356 6.75,4.5 C6.75,4.08578644 6.41421356,3.75 6,3.75 Z" id="Path" fill="#704E34"></path>
                <path d="M6,5.25 C5.586,5.25 5.25,4.914 5.25,4.5 L4.5,4.5 C4.5,5.32725 5.17275,6 6,6 C6.82725,6 7.5,5.32725 7.5,4.5 L6.75,4.5 C6.75,4.914 6.414,5.25 6,5.25 Z" id="Path" fill="#5E9C76"></path>
            </g>
        </g>
    </g>
</svg>