<?xml version="1.0" encoding="UTF-8"?>
<svg width="53px" height="53px" viewBox="0 0 53 53" version="1.1" xmlns="http://www.w3.org/2000/svg" xmlns:xlink="http://www.w3.org/1999/xlink">
    <!-- Generator: Sketch 63.1 (92452) - https://sketch.com -->
    <title>Icon / Code@2x</title>
    <desc>Created with Sketch.</desc>
    <g id="Icon-/-Code" stroke="none" stroke-width="1" fill="none" fill-rule="evenodd">
        <g id="Group-6" transform="translate(9.000000, 3.000000)" fill="#444B54" fill-rule="nonzero">
            <path d="M4.51720311,46 L30.7169811,46 C34.2896781,46 36.8768036,43.8189655 36.8768036,40.8448276 L36.917869,14.2758621 C36.917869,13.6017241 36.3840178,13.0862069 35.6859046,13.0862069 C35.6859046,13.0862069 35.6859046,13.0862069 35.6859046,13.0862069 C34.9877913,13.0862069 34.4539401,13.6017241 34.4539401,14.2758621 L34.4128746,40.8448276 C34.4128746,42.5103448 32.9345172,43.6206897 30.7169811,43.6206897 L4.51720311,43.6206897 C3.8190899,43.6206897 2.46392897,42.4310345 2.46392897,40.8448276 L2.46392897,5.15517241 C2.46392897,3.60862069 3.73695893,2.37931034 5.33851276,2.37931034 L26.281909,2.37931034 L26.281909,5.15517241 C26.281909,8.01034483 28.663707,10.3103448 31.6204218,10.3103448 L35.5627081,10.3103448 C35.6037736,10.3103448 35.6448391,10.3103448 35.72697,10.3103448 C35.72697,10.3103448 35.72697,10.3103448 35.72697,10.3103448 C36.2197558,10.3103448 36.6714761,9.99310345 36.8768036,9.59655172 C36.9589345,9.43793103 37,9.27931034 37,9.12068966 C37,9.08103448 37,9.00172414 37,8.96206897 C36.9589345,6.58275862 35.9733629,4.36206897 34.2486127,2.65689655 C32.4006659,0.951724138 30.0599334,0 27.5138735,0 C27.5138735,0 27.5138735,0 27.5138735,0 C27.5138735,0 27.5138735,0 27.5138735,0 C27.5138735,0 27.5138735,0 27.5138735,0 L5.33851276,0 C2.381798,0 0,2.3 0,5.15517241 L0,40.8448276 C0,43.7396552 2.42286349,46 4.51720311,46 Z M34.3718091,7.93103448 L31.6204218,7.93103448 C30.0188679,7.93103448 28.745838,6.70172414 28.745838,5.15517241 L28.745838,2.49827586 C30.1420644,2.7362069 31.4150943,3.37068966 32.4417314,4.36206897 C33.4683685,5.35344828 34.1254162,6.58275862 34.3718091,7.93103448 Z" id="Shape"></path>
        </g>
        <g id="Shape-2" transform="translate(17.000000, 15.000000)" fill="#EA0074" fill-rule="nonzero">
            <path d="M4.6,0 C2.07311144,0 0,2.0280438 0,4.5 C0,6.58158941 1.47684552,8.331291 3.45,8.83740262 L3.45,18 L3.45,18.1625974 C1.47684552,18.6687101 0,20.4184114 0,22.5 C0,24.9719557 2.07311144,27 4.6,27 C7.1268881,27 9.2,24.9719557 9.2,22.5 C9.2,20.4184114 7.7231539,18.6687101 5.75,18.1625974 L5.75,18 C5.75,17.521875 5.8533045,17.3254556 6.0419919,17.1232909 C6.2306793,16.9211261 6.58234125,16.711983 7.1201169,16.5366214 C8.1956705,16.185897 9.9023556,16.0258669 11.6886713,15.734619 C13.4749881,15.4433723 15.3899302,15.0114623 16.9490231,13.8251947 C18.3187709,12.782997 19.2895445,11.1258754 19.5050787,8.85278363 C21.5015143,8.36263012 23,6.59785478 23,4.5 C23,2.0280438 20.9268881,0 18.4,0 C15.8731119,0 13.8,2.0280438 13.8,4.5 C13.8,6.5631249 15.2516105,8.29830487 17.1983397,8.82202162 C17.029898,10.4757773 16.4117903,11.3853263 15.5384769,12.0498053 C14.5100698,12.8322866 12.9750119,13.2441278 11.3113287,13.515381 C9.6476444,13.7866331 7.9043295,13.907853 6.3923831,14.4008786 C6.17426375,14.4720045 5.96006015,14.5545458 5.75,14.6469724 L5.75,8.83740262 C7.7231539,8.331291 9.2,6.58158941 9.2,4.5 C9.2,2.0280438 7.1268881,0 4.6,0 Z M4.6,2.25 C5.8838761,2.25 6.9,3.24403414 6.9,4.5 C6.9,5.72121877 5.93671515,6.68607908 4.70332037,6.7390137 C4.66299791,6.73546149 4.62251184,6.73399459 4.58203125,6.73461911 C4.55278552,6.73499382 4.52356505,6.73645975 4.49443356,6.7390137 C3.26212714,6.6849858 2.3,5.72047166 2.3,4.5 C2.3,3.24403414 3.31612378,2.25 4.6,2.25 Z M18.4,2.25 C19.6838761,2.25 20.7,3.24403414 20.7,4.5 C20.7,5.72121877 19.7367151,6.68607908 18.5033206,6.7390137 C18.4629981,6.73546149 18.4225119,6.73399458 18.3820312,6.73461911 C18.3527855,6.73499382 18.323565,6.73645975 18.2944334,6.7390137 C17.0621268,6.6849858 16.1,5.72047166 16.1,4.5 C16.1,3.24403414 17.1161239,2.25 18.4,2.25 Z M4.49667963,20.2609868 C4.56616442,20.2671852 4.63608165,20.2671852 4.70556643,20.2609868 C5.9378732,20.3150138 6.9,21.279528 6.9,22.5 C6.9,23.7559657 5.8838761,24.75 4.6,24.75 C3.31612378,24.75 2.3,23.7559657 2.3,22.5 C2.3,21.278781 3.26328485,20.3139214 4.49667963,20.2609868 Z" id="Shape"></path>
        </g>
    </g>
</svg>