<?xml version="1.0" encoding="UTF-8"?>
<svg width="53px" height="53px" viewBox="0 0 53 53" version="1.1" xmlns="http://www.w3.org/2000/svg" xmlns:xlink="http://www.w3.org/1999/xlink">
    <!-- Generator: Sketch 63.1 (92452) - https://sketch.com -->
    <title>Icon / Admin@2x</title>
    <desc>Created with Sketch.</desc>
    <g id="Icon-/-Admin" stroke="none" stroke-width="1" fill="none" fill-rule="evenodd">
        <g id="Group" transform="translate(4.000000, 6.000000)" fill="#444B54" fill-rule="nonzero">
            <path d="M3.91304348,0 C1.76163359,0 0,1.75790526 0,3.9047619 L0,37.0952381 C0,39.2420947 1.76163359,41 3.91304348,41 L41.0869565,41 C43.2383664,41 45,39.2420947 45,37.0952381 L45,3.9047619 C45,1.75790526 43.2383664,0 41.0869565,0 L3.91304348,0 Z M3.91304348,1.95238095 L41.0869565,1.95238095 C42.1798578,1.95238095 43.0434783,2.8141746 43.0434783,3.9047619 L43.0434783,6.83333333 L1.95652174,6.83333333 L1.95652174,3.9047619 C1.95652174,2.8141746 2.82014315,1.95238095 3.91304348,1.95238095 Z M1.95652174,8.78571429 L43.0434783,8.78571429 L43.0434783,32.2142857 L1.95652174,32.2142857 L1.95652174,8.78571429 Z M4.89130435,11.7142857 L4.89130435,18.547619 L21.5217391,18.547619 L21.5217391,11.7142857 L4.89130435,11.7142857 Z M4.89130435,21.4761905 L4.89130435,28.3095238 L21.5217391,28.3095238 L21.5217391,21.4761905 L4.89130435,21.4761905 Z M6.84782609,13.6666667 L19.5652174,13.6666667 L19.5652174,16.5952381 L6.84782609,16.5952381 L6.84782609,13.6666667 Z M6.84782609,23.4285714 L19.5652174,23.4285714 L19.5652174,26.3571429 L6.84782609,26.3571429 L6.84782609,23.4285714 Z M1.95652174,34.1666667 L43.0434783,34.1666667 L43.0434783,37.0952381 C43.0434783,38.1858264 42.1798578,39.047619 41.0869565,39.047619 L3.91304348,39.047619 C2.82014315,39.047619 1.95652174,38.1858264 1.95652174,37.0952381 L1.95652174,34.1666667 Z" id="Shape"></path>
        </g>
        <g id="Group-5" transform="translate(27.000000, 16.000000)" fill-rule="nonzero">
            <path d="M2.46875,11.0697674 C2.203125,11.0697674 2,10.864186 2,10.5953488 L2,9.64651163 C2,9.37767442 2.203125,9.17209302 2.46875,9.17209302 C2.734375,9.17209302 2.9375,9.37767442 2.9375,9.64651163 L2.9375,10.5953488 C2.9375,10.864186 2.71875,11.0697674 2.46875,11.0697674 Z M6.390625,17 C6.3125,17 6.234375,16.984186 6.15625,16.9367442 L5.34375,16.4623256 C5.125,16.335814 5.046875,16.0353488 5.171875,15.8139535 C5.296875,15.5925581 5.59375,15.5134884 5.8125,15.64 L6.625,16.1144186 C6.84375,16.2409302 6.921875,16.5413953 6.796875,16.7627907 C6.703125,16.9209302 6.546875,17 6.390625,17 Z M12.609375,17 C12.453125,17 12.296875,16.9209302 12.203125,16.7627907 C12.078125,16.5413953 12.15625,16.2409302 12.375,16.1144186 L13.1875,15.64 C13.40625,15.5134884 13.703125,15.5925581 13.828125,15.8139535 C13.953125,16.0353488 13.875,16.335814 13.65625,16.4623256 L12.84375,16.9367442 C12.765625,16.984186 12.6875,17 12.609375,17 Z M16.53125,11.0697674 C16.265625,11.0697674 16.0625,10.864186 16.0625,10.5953488 L16.0625,9.64651163 C16.0625,9.37767442 16.265625,9.17209302 16.53125,9.17209302 C16.796875,9.17209302 17,9.37767442 17,9.64651163 L17,10.5953488 C17,10.864186 16.796875,11.0697674 16.53125,11.0697674 Z M13.421875,4.66511628 C13.34375,4.66511628 13.265625,4.64930233 13.1875,4.60186047 L12.375,4.12744186 C12.15625,4.00093023 12.078125,3.70046512 12.203125,3.47906977 C12.328125,3.25767442 12.625,3.17860465 12.84375,3.30511628 L13.65625,3.77953488 C13.875,3.90604651 13.953125,4.20651163 13.828125,4.42790698 C13.75,4.58604651 13.578125,4.66511628 13.421875,4.66511628 Z M5.578125,4.66511628 C5.421875,4.66511628 5.265625,4.58604651 5.171875,4.42790698 C5.046875,4.20651163 5.125,3.90604651 5.34375,3.77953488 L6.15625,3.30511628 C6.375,3.17860465 6.671875,3.25767442 6.796875,3.47906977 C6.921875,3.70046512 6.84375,4.00093023 6.625,4.12744186 L5.8125,4.60186047 C5.734375,4.64930233 5.65625,4.66511628 5.578125,4.66511628 Z M9.5,4.11162791 C8.375,4.11162791 7.46875,3.1944186 7.46875,2.05581395 C7.46875,0.917209302 8.375,0 9.5,0 C10.625,0 11.53125,0.917209302 11.53125,2.05581395 C11.53125,3.1944186 10.625,4.11162791 9.5,4.11162791 Z M9.5,0.948837209 C8.890625,0.948837209 8.40625,1.43906977 8.40625,2.05581395 C8.40625,2.67255814 8.890625,3.1627907 9.5,3.1627907 C10.109375,3.1627907 10.59375,2.67255814 10.59375,2.05581395 C10.59375,1.43906977 10.109375,0.948837209 9.5,0.948837209 Z" id="Shape" fill="#444B54"></path>
            <path d="M9.5,21 C8.11538462,21 7,19.8846154 7,18.5 C7,17.1153846 8.11538462,16 9.5,16 C10.8846154,16 12,17.1153846 12,18.5 C12,19.8846154 10.8846154,21 9.5,21 Z M9.5,17.1538462 C8.75,17.1538462 8.15384615,17.75 8.15384615,18.5 C8.15384615,19.25 8.75,19.8461538 9.5,19.8461538 C10.25,19.8461538 10.8461538,19.25 10.8461538,18.5 C10.8461538,17.75 10.25,17.1538462 9.5,17.1538462 Z" id="Shape" fill="#EA0074"></path>
            <path d="M16.5,18 C15.1153846,18 14,16.8846154 14,15.5 C14,14.1153846 15.1153846,13 16.5,13 C17.8846154,13 19,14.1153846 19,15.5 C19,16.8846154 17.8846154,18 16.5,18 Z M16.5,14.1538462 C15.75,14.1538462 15.1538462,14.75 15.1538462,15.5 C15.1538462,16.25 15.75,16.8461538 16.5,16.8461538 C17.25,16.8461538 17.8461538,16.25 17.8461538,15.5 C17.8461538,14.75 17.25,14.1538462 16.5,14.1538462 Z" id="Shape" fill="#EA0074"></path>
            <path d="M16.5,8 C15.1153846,8 14,6.88461538 14,5.5 C14,4.11538462 15.1153846,3 16.5,3 C17.8846154,3 19,4.11538462 19,5.5 C19,6.88461538 17.8846154,8 16.5,8 Z M16.5,4.15384615 C15.75,4.15384615 15.1538462,4.75 15.1538462,5.5 C15.1538462,6.25 15.75,6.84615385 16.5,6.84615385 C17.25,6.84615385 17.8461538,6.25 17.8461538,5.5 C17.8461538,4.75 17.25,4.15384615 16.5,4.15384615 Z" id="Shape" fill="#EA0074"></path>
            <path d="M2.5,8 C1.11538462,8 0,6.88461538 0,5.5 C0,4.11538462 1.11538462,3 2.5,3 C3.88461538,3 5,4.11538462 5,5.5 C5,6.88461538 3.88461538,8 2.5,8 Z M2.5,4.15384615 C1.75,4.15384615 1.15384615,4.75 1.15384615,5.5 C1.15384615,6.25 1.75,6.84615385 2.5,6.84615385 C3.25,6.84615385 3.84615385,6.25 3.84615385,5.5 C3.84615385,4.75 3.25,4.15384615 2.5,4.15384615 Z" id="Shape" fill="#EA0074"></path>
            <path d="M2.5,18 C1.11538462,18 0,16.8846154 0,15.5 C0,14.1153846 1.11538462,13 2.5,13 C3.88461538,13 5,14.1153846 5,15.5 C5,16.8846154 3.88461538,18 2.5,18 Z M2.5,14.1538462 C1.75,14.1538462 1.15384615,14.75 1.15384615,15.5 C1.15384615,16.25 1.75,16.8461538 2.5,16.8461538 C3.25,16.8461538 3.84615385,16.25 3.84615385,15.5 C3.84615385,14.75 3.25,14.1538462 2.5,14.1538462 Z" id="Shape" fill="#EA0074"></path>
            <g id="Group" transform="translate(6.000000, 7.000000)" fill="#333333">
                <path d="M3.5,4.42553191 C2.3,4.42553191 1.33333333,3.43829787 1.33333333,2.21276596 C1.33333333,0.987234043 2.3,0 3.5,0 C4.7,0 5.66666667,0.987234043 5.66666667,2.21276596 C5.66666667,3.43829787 4.7,4.42553191 3.5,4.42553191 Z M3.5,1.0212766 C2.85,1.0212766 2.33333333,1.54893617 2.33333333,2.21276596 C2.33333333,2.87659574 2.85,3.40425532 3.5,3.40425532 C4.15,3.40425532 4.66666667,2.87659574 4.66666667,2.21276596 C4.66666667,1.54893617 4.15,1.0212766 3.5,1.0212766 Z M0.6,7.84680851 C0.516666667,7.84680851 0.433333333,7.82978723 0.35,7.7787234 C0.116666667,7.64255319 0.0333333333,7.33617021 0.166666667,7.08085106 C0.85,5.87234043 2.11666667,5.10638298 3.5,5.10638298 C4.88333333,5.10638298 6.15,5.87234043 6.83333333,7.09787234 C6.96666667,7.33617021 6.88333333,7.65957447 6.65,7.79574468 C6.41666667,7.93191489 6.1,7.84680851 5.96666667,7.60851064 C5.46666667,6.70638298 4.51666667,6.14468085 3.5,6.14468085 C2.48333333,6.14468085 1.53333333,6.70638298 1.03333333,7.60851064 C0.95,7.76170213 0.766666667,7.84680851 0.6,7.84680851 Z" id="Shape"></path>
            </g>
        </g>
    </g>
</svg>