<?xml version="1.0" encoding="UTF-8"?>
<svg width="53px" height="53px" viewBox="0 0 53 53" version="1.1" xmlns="http://www.w3.org/2000/svg" xmlns:xlink="http://www.w3.org/1999/xlink">
    <!-- Generator: Sketch 63.1 (92452) - https://sketch.com -->
    <title>Icon / Slack Pricetravel@2x</title>
    <desc>Created with Sketch.</desc>
    <g id="Icon-/-Slack-Pricetravel" stroke="none" stroke-width="1" fill="none" fill-rule="evenodd">
        <g id="Shape-2" transform="translate(8.000000, 8.000000)" fill="#454B54">
            <path d="M33.3573203,0 C35.9197227,0 38,2.08035156 38,4.64267969 L38,33.3573203 C38,35.9196484 35.9196484,38 33.3573203,38 L4.64267969,38 C2.08035156,38 0,35.9196484 0,33.3573203 L0,4.64267969 C0,2.08035156 2.08027734,0 4.64267969,0 L33.3573203,0 Z M22.0930233,26.5116279 C23.5521831,26.5116279 24.744186,27.7036308 24.744186,29.1627907 C24.744186,30.6219505 23.5521831,31.8139535 22.0930233,31.8139535 C20.6337913,31.8139535 19.4418605,30.6219505 19.4418605,29.1627907 L19.4418605,26.5116279 L22.0930233,26.5116279 Z M13.255814,22.1888485 C13.255814,20.6768732 14.4478169,19.4418605 15.9069767,19.4418605 C17.3662087,19.4418605 18.5581395,20.6768732 18.5581395,22.1888485 L18.5581395,29.0669654 C18.5581395,30.578866 17.3662087,31.8139535 15.9069767,31.8139535 C14.4478169,31.8139535 13.255814,30.578866 13.255814,29.0669654 L13.255814,22.1888485 Z M11.4883721,22.0930233 C11.4883721,23.5521831 10.2963692,24.744186 8.8372093,24.744186 C7.37804945,24.744186 6.18604651,23.5521831 6.18604651,22.0930233 C6.18604651,20.6337913 7.37804945,19.4418605 8.8372093,19.4418605 L11.4883721,19.4418605 L11.4883721,22.0930233 Z M29.0669654,24.744186 C30.5789408,24.7441139 31.8139535,23.552111 31.8139535,22.0930233 C31.8139535,20.6337913 30.578866,19.4418605 29.0669654,19.4418605 L22.1888485,19.4418605 C20.6768732,19.4418605 19.4418605,20.6337913 19.4418605,22.0930233 C19.4418605,23.5521831 20.6768732,24.744186 22.1888485,24.744186 L29.0669654,24.744186 Z M29.1627907,18.5581395 C30.6220227,18.5581395 31.8139535,17.3661366 31.8139535,15.9069767 C31.8139535,14.4478169 30.6219505,13.255814 29.1627907,13.255814 C27.7036308,13.255814 26.5116279,14.4478169 26.5116279,15.9069767 L26.5116279,18.5581395 L29.1627907,18.5581395 Z M15.8111515,18.5581395 C17.3231268,18.5581395 18.5581395,17.3661366 18.5581395,15.9069767 C18.5581395,14.4478169 17.3231268,13.255814 15.8111515,13.255814 L8.93303459,13.255814 C7.42113395,13.255814 6.18604651,14.4478169 6.18604651,15.9069767 C6.18604651,17.3662087 7.42113395,18.5581395 8.93303459,18.5581395 L15.8111515,18.5581395 Z M24.744186,15.8111515 C24.744186,17.3231268 23.5521831,18.5581395 22.0930233,18.5581395 C20.6337913,18.5581395 19.4418605,17.3231268 19.4418605,15.8111515 L19.4418605,8.93303459 C19.4418605,7.42113395 20.6337913,6.18604651 22.0930233,6.18604651 C23.5521831,6.18604651 24.744186,7.42113395 24.744186,8.93303459 L24.744186,15.8111515 Z M18.5581395,11.4883721 L18.5581395,8.8372093 C18.5581395,7.37804945 17.3662087,6.18604651 15.9069767,6.18604651 C14.4478169,6.18604651 13.255814,7.37804945 13.255814,8.8372093 C13.255814,10.2963692 14.4478169,11.4883721 15.9069767,11.4883721 L18.5581395,11.4883721 Z" id="Shape"></path>
        </g>
    </g>
</svg>