<?xml version="1.0" encoding="UTF-8"?>
<svg width="53px" height="53px" viewBox="0 0 53 53" version="1.1" xmlns="http://www.w3.org/2000/svg" xmlns:xlink="http://www.w3.org/1999/xlink">
    <!-- Generator: Sketch 63.1 (92452) - https://sketch.com -->
    <title>Icon / Mail</title>
    <desc>Created with Sketch.</desc>
    <g id="Icon-/-Mail" stroke="none" stroke-width="1" fill="none" fill-rule="evenodd">
        <g id="icon" transform="translate(3.000000, 11.000000)" fill-rule="nonzero">
            <polygon id="Path" points="32.1523179 31 28 31 28 27.2847682 42.8476821 14 47 17.7152318"></polygon>
            <path d="M32.2807018,32 L28.2280702,32 C27.5321637,32 27,31.5438596 27,30.9473684 L27,27.4736842 C27,27.1929825 27.122807,26.9122807 27.3684211,26.7368421 L41.8596491,14.3157895 C42.3508772,13.8947368 43.128655,13.8947368 43.5789474,14.3157895 L47.6315789,17.7894737 C48.122807,18.2105263 48.122807,18.877193 47.6315789,19.2631579 L33.1403509,31.6842105 C32.9356725,31.8947368 32.6081871,32 32.2807018,32 Z M29.4561404,29.8947368 L31.7894737,29.8947368 L45.0526316,18.5263158 L42.7192982,16.5263158 L29.4561404,27.8947368 L29.4561404,29.8947368 Z" id="Shape" fill="#EA0074"></path>
            <path d="M4.875,32 C2.175,32 0,29.8584615 0,27.2 L0,9.10769231 C0,8.48 0.4875,8 1.125,8 C1.7625,8 2.25,8.48 2.25,9.10769231 L2.25,27.2 C2.25,28.64 3.4125,29.7846154 4.875,29.7846154 C5.5125,29.7846154 6,30.2646154 6,30.8923077 C6,31.52 5.5125,32 4.875,32 Z" id="Path" fill="#444B54"></path>
            <path d="M22.5686901,32 C22.2108626,32 21.8530351,31.9026104 21.629393,31.7078313 C21.3610224,31.5130522 21.2268371,31.2858099 21.2268371,31.0261045 C21.2268371,30.9611781 21.2268371,30.8962517 21.2715655,30.8313254 C21.2715655,30.766399 21.3162939,30.7014726 21.3610224,30.6365462 C21.4057508,30.5716199 21.4504792,30.5391567 21.4952077,30.4742303 C21.5399361,30.409304 21.5846645,30.3768408 21.6741214,30.3119144 C22.1661342,29.9548194 23.0607029,29.9548194 23.5527157,30.3119144 C23.5974441,30.3443776 23.686901,30.409304 23.7316294,30.4742303 C23.7763578,30.5391567 23.8210863,30.5716199 23.8658147,30.6365462 C23.9105431,30.7014726 23.9105431,30.766399 23.9552716,30.8313254 C23.9552716,30.8962517 24,30.9611781 24,31.0261045 C24,31.2858099 23.8658147,31.5455154 23.5974441,31.7078313 C23.284345,31.9026104 22.9265176,32 22.5686901,32 Z M15.6357827,31.0261045 C15.6357827,30.4742303 16.2172524,30.0522089 16.9776358,30.0522089 L16.9776358,30.0522089 C17.7380192,30.0522089 18.3194888,30.4742303 18.3194888,31.0261045 L18.3194888,31.0261045 C18.3194888,31.5779786 17.7380192,32 16.9776358,32 L16.9776358,32 C16.2172524,32 15.6357827,31.5779786 15.6357827,31.0261045 Z M11.3865815,32 C11.028754,32 10.6709265,31.9026104 10.4472843,31.7078313 C10.4025559,31.6753682 10.313099,31.6104418 10.2683706,31.5455154 C10.2236422,31.480589 10.1789137,31.4481259 10.1341853,31.3831995 C10.0894569,31.3182731 10.0894569,31.2533468 10.0447284,31.1884204 C10.0447284,31.123494 10,31.0585676 10,30.9936413 C10,30.9287149 10,30.8637885 10.0447284,30.7988622 C10.0447284,30.7339358 10.0894569,30.6690094 10.1341853,30.6040831 C10.1789137,30.5391567 10.2236422,30.5066935 10.2683706,30.4417671 C10.313099,30.3768408 10.3578275,30.3443776 10.4472843,30.3119144 C10.5367412,30.2794512 10.5814696,30.2145248 10.6261981,30.1820617 C10.715655,30.1495985 10.7603834,30.1171353 10.8498403,30.0846721 C10.9392971,30.0522089 11.028754,30.0522089 11.1182109,30.0197457 C11.5654952,29.9548194 12.0127796,30.0522089 12.3258786,30.2794512 C12.5942492,30.4742303 12.7284345,30.7014726 12.7284345,30.9611781 C12.7284345,31.0261045 12.7284345,31.0910308 12.6837061,31.1559572 C12.6837061,31.2208836 12.6389776,31.2858099 12.5942492,31.3507363 C12.5495208,31.4156627 12.5047923,31.480589 12.4600639,31.5130522 C12.4153355,31.5779786 12.370607,31.6104418 12.2811502,31.6753682 C12.1022364,31.9026104 11.7444089,32 11.3865815,32 Z" id="Shape" fill="#EA0074"></path>
            <path d="M22.042202,18 C16.04952,18 10.4788578,15.8577824 6.34306321,11.917632 C5.87884136,11.4585854 5.87884136,10.7317616 6.3852652,10.3109688 C6.89168903,9.89017605 7.69352676,9.89017605 8.15774861,10.3492227 C11.8293214,13.7920725 16.7247518,15.7047668 22,15.7047668 C27.2752482,15.7047668 32.2128806,13.7920725 35.8422514,10.3492227 C36.3064732,9.89017605 37.108311,9.89017605 37.6147348,10.3109688 C38.1211586,10.7317616 38.1211586,11.4585854 37.6569368,11.917632 C33.6055461,15.8577824 28.034884,18 22.042202,18 Z" id="Path" fill="#444B54"></path>
            <path d="M42.754717,6 C42.0490566,6 41.509434,5.5125 41.509434,4.875 C41.509434,3.4125 40.2226415,2.25 38.6037736,2.25 L5.39622642,2.25 C3.77735849,2.25 2.49056604,3.4125 2.49056604,4.875 C2.49056604,5.5125 1.9509434,6 1.24528302,6 C0.539622642,6 0,5.5125 0,4.875 C0,2.175 2.40754717,0 5.39622642,0 L38.6037736,0 C41.5924528,0 44,2.175 44,4.875 C44,5.5125 43.4603774,6 42.754717,6 Z" id="Path" fill="#444B54"></path>
        </g>
    </g>
</svg>