<?xml version="1.0" encoding="UTF-8"?>
<svg width="53px" height="53px" viewBox="0 0 53 53" version="1.1" xmlns="http://www.w3.org/2000/svg" xmlns:xlink="http://www.w3.org/1999/xlink">
    <!-- Generator: Sketch 63.1 (92452) - https://sketch.com -->
    <title>Icon / Case Managment@2x</title>
    <desc>Created with Sketch.</desc>
    <g id="Icon-/-Case-Managment" stroke="none" stroke-width="1" fill="none" fill-rule="evenodd">
        <g id="icons8-message_link" transform="translate(4.000000, 5.000000)" fill-rule="nonzero">
            <path d="M5.51886792,38 C2.46226415,38 0,35.5015385 0,32.4 L0,11.2923077 C0,10.56 0.551886792,10 1.27358491,10 C1.99528302,10 2.54716981,10.56 2.54716981,11.2923077 L2.54716981,32.4 C2.54716981,34.08 3.86320755,35.4153846 5.51886792,35.4153846 C6.24056604,35.4153846 6.79245283,35.9753846 6.79245283,36.7076923 C6.79245283,37.44 6.24056604,38 5.51886792,38 Z M43.7264151,28.5230769 C43.004717,28.5230769 42.4528302,27.9630769 42.4528302,27.2307692 L42.4528302,11.2923077 C42.4528302,10.56 43.004717,10 43.7264151,10 C44.4481132,10 45,10.56 45,11.2923077 L45,27.2307692 C45,27.9630769 44.4481132,28.5230769 43.7264151,28.5230769 Z M22.5,21.2 C16.4716981,21.2 10.8679245,18.7876923 6.70754717,14.3507692 C6.24056604,13.8338462 6.24056604,13.0153846 6.75,12.5415385 C7.25943396,12.0676923 8.06603774,12.0676923 8.53301887,12.5846154 C12.2264151,16.4615385 17.1509434,18.6153846 22.4575472,18.6153846 C27.7641509,18.6153846 32.7311321,16.4615385 36.3820755,12.5846154 C36.8490566,12.0676923 37.6556604,12.0676923 38.1650943,12.5415385 C38.6745283,13.0153846 38.6745283,13.8338462 38.2075472,14.3507692 C34.1320755,18.7876923 28.5283019,21.2 22.5,21.2 Z" id="Shape" fill="#444B54"></path>
            <path d="M43.7264151,7 C43.004717,7 42.4528302,6.43125 42.4528302,5.6875 C42.4528302,3.98125 41.1367925,2.625 39.4811321,2.625 L5.51886792,2.625 C3.86320755,2.625 2.54716981,3.98125 2.54716981,5.6875 C2.54716981,6.43125 1.99528302,7 1.27358491,7 C0.551886792,7 0,6.43125 0,5.6875 C0,2.5375 2.46226415,0 5.51886792,0 L39.4811321,0 C42.5377358,0 45,2.5375 45,5.6875 C45,6.43125 44.4481132,7 43.7264151,7 Z" id="Path" fill="#444B54"></path>
            <g id="Group" transform="translate(11.000000, 31.000000)" fill="#EA0074">
                <path d="M8.5,12 L6.375,12 C2.8475,12 0,9.32 0,6 C0,2.68 2.8475,0 6.375,0 L17,0 C20.5275,0 23.375,2.68 23.375,6 C23.375,6.68 22.8225,7.2 22.1,7.2 C21.3775,7.2 20.825,6.68 20.825,6 C20.825,4 19.125,2.4 17,2.4 L6.375,2.4 C4.25,2.4 2.55,4 2.55,6 C2.55,8 4.25,9.6 6.375,9.6 L8.5,9.6 C9.2225,9.6 9.775,10.12 9.775,10.8 C9.775,11.48 9.2225,12 8.5,12 Z" id="Path"></path>
                <path d="M27.625,12 L17,12 C13.4725,12 10.625,9.32 10.625,6 C10.625,5.32 11.1775,4.8 11.9,4.8 C12.6225,4.8 13.175,5.32 13.175,6 C13.175,8 14.875,9.6 17,9.6 L27.625,9.6 C29.75,9.6 31.45,8 31.45,6 C31.45,4 29.75,2.4 27.625,2.4 L25.5,2.4 C24.7775,2.4 24.225,1.88 24.225,1.2 C24.225,0.52 24.7775,0 25.5,0 L27.625,0 C31.1525,0 34,2.68 34,6 C34,9.32 31.1525,12 27.625,12 Z" id="Path"></path>
            </g>
        </g>
    </g>
</svg>