<?xml version="1.0" encoding="UTF-8"?>
<svg width="53px" height="53px" viewBox="0 0 53 53" version="1.1" xmlns="http://www.w3.org/2000/svg" xmlns:xlink="http://www.w3.org/1999/xlink">
    <!-- Generator: Sketch 63.1 (92452) - https://sketch.com -->
    <title>Icon / Isotipo CO@2x</title>
    <desc>Created with Sketch.</desc>
    <g id="Icon-/-Isotipo-CO" stroke="none" stroke-width="1" fill="none" fill-rule="evenodd">
        <g id="icons8-colombia-2" transform="translate(37.000000, 40.000000)" fill-rule="nonzero">
            <g id="icons8-colombia">
                <polygon id="Shape" fill="#F5C276" points="12 0 0 0 0 5.25 12 5.25"></polygon>
                <polygon id="Shape" fill="#C74343" points="12 6 0 6 0 9 12 9"></polygon>
                <g id="Group" transform="translate(0.000000, 4.500000)" fill="#4E7AB5">
                    <polygon id="Shape" points="12 0 0 0 0 2.25 12 2.25"></polygon>
                </g>
            </g>
        </g>
        <g id="isotipo" transform="translate(11.000000, 12.000000)" fill-rule="nonzero">
            <path d="M14.9426311,22.1650494 L21.8358222,28.451568 C22.5374745,29.2106791 23.6755828,29.2113704 24.3772352,28.451568 C25.0788875,27.6931482 25.0788875,26.4618395 24.3772352,25.7020371 L17.3121455,18.0576914 C16.0072511,16.647321 13.8844013,16.647321 12.5788678,18.0583827 L5.52655878,25.6889013 C5.1757326,26.0684568 5,26.5655432 5,27.063321 C5,27.5610988 5.1757326,28.0581852 5.52655878,28.4384321 C6.22821112,29.1968519 7.36568033,29.1968519 8.06733268,28.4384321 L14.9426311,22.1650494 Z" id="Fill-15" fill="#FCB000"></path>
            <path d="M23.7580875,14.5503036 L29.5702797,7.25785456 C30.2721245,6.51566368 30.2753089,5.30917987 29.5785591,4.56224439 C28.8811725,3.8159867 27.7475212,3.8119199 27.0456764,4.55411079 L19.9820096,12.0248213 C18.6783106,13.4048218 18.6719417,15.6557953 19.9673613,17.0446073 L26.9749824,24.5485298 C27.3239941,24.9213198 27.7812759,25.1090704 28.2398316,25.1111111 C28.6983871,25.1124594 29.1569427,24.92742 29.5078651,24.5566635 C30.2090731,23.8144726 30.2128943,22.6079887 29.5161446,21.8610533 L23.7580875,14.5503036 Z" id="Fill-18" fill="#5C469C"></path>
            <path d="M14.9981513,6.33697342 L8.07914194,0.526243898 C7.37486159,-0.175414632 6.23249062,-0.175414632 5.52821027,0.526243898 C4.82392991,1.22790242 4.82392991,2.36538164 5.52821027,3.06767921 L12.6197619,10.1334701 C13.9295438,11.4370979 16.0603446,11.4370979 17.3707679,10.132831 L24.449491,3.07982084 C24.8016312,2.72899158 24.978022,2.26952666 24.978022,1.8094227 C24.978022,1.34931874 24.8016312,0.889853828 24.449491,0.539024563 C23.7452107,-0.162633967 22.6034812,-0.162633967 21.8992008,0.539024563 L14.9981513,6.33697342 Z" id="Fill-1" fill="#4FC3F4"></path>
            <path d="M6.75308286,14.9676501 L0.563225726,21.8505121 C-0.184223602,22.5510171 -0.188293199,23.6897376 0.554408266,24.3940811 C1.29710973,25.0990643 2.50442352,25.1029026 3.25187286,24.4023976 L10.7745231,17.3512865 C12.162934,16.0487949 12.1697166,13.9236097 10.7901232,12.6128016 L3.3271604,5.53098344 C2.95547053,5.17849185 2.46847541,5.00128647 1.98012377,5 C1.49177212,4.99872754 1.00342047,5.17273428 0.629695812,5.52330667 C-0.11707525,6.22317199 -0.121144848,7.36253226 0.620878352,8.06687569 L6.75308286,14.9676501 Z" id="Fill-20" fill="#EA0074"></path>
        </g>
    </g>
</svg>