<?xml version="1.0" encoding="UTF-8"?>
<svg width="53px" height="53px" viewBox="0 0 53 53" version="1.1" xmlns="http://www.w3.org/2000/svg" xmlns:xlink="http://www.w3.org/1999/xlink">
    <!-- Generator: Sketch 63.1 (92452) - https://sketch.com -->
    <title>Icon / Reports@2x</title>
    <desc>Created with Sketch.</desc>
    <g id="Icon-/-Reports" stroke="none" stroke-width="1" fill="none" fill-rule="evenodd">
        <path d="M14.0499664,4 C11.2530619,4 9,6.25 9,9.04310345 L9,43.9568966 C9,46.7887931 11.2919078,49 13.2730485,49 L38.9113392,49 C40.2709456,49 41.5137112,48.456594 42.4848586,47.5255595 C43.456006,46.5557319 43.9613056,45.3146552 43.9613056,43.9568966 L43.9613056,17.9655172 C43.9613056,17.3060345 43.456309,16.8017241 42.7959288,16.8017241 C42.1355485,16.8017241 41.6305519,17.3060345 41.6305519,17.9655172 L41.6305519,43.9568966 C41.6305519,44.6939655 41.3586306,45.3534483 40.853634,45.8965517 C40.3486374,46.4396552 39.6494112,46.7110556 38.9113392,46.7110556 L13.2730485,46.7110556 C12.6126682,46.7110556 11.3307537,45.5472625 11.3307537,43.9955384 L11.3307537,9.04310345 C11.3307537,7.53017241 12.5349765,6.32758621 14.0499664,6.32758621 L33.8613729,6.32758621 L33.8613729,9.04310345 C33.8613729,11.8362069 36.1144348,14.0862069 38.9113392,14.0862069 L42.6403937,14.0862069 L42.7959288,14.0862069 C43.2620795,14.0862069 43.6896873,13.7755591 43.8839168,13.3876281 C43.9616086,13.2324556 44,13.0775862 44,12.9224138 L44,12.7670897 C43.9611541,10.4395035 43.0291556,8.26693841 41.397628,6.59883496 C39.6495631,4.93073139 37.3963493,4 35.0267497,4 L14.0499664,4 Z M36,6 C37.4891359,6.2627887 38.8468774,6.96321652 39.9418303,8.05816945 C41.0367831,9.15312238 41.7372113,10.510864 42,12 L39.065868,12 C37.3577415,12 36,10.6422584 36,8.93413179 L36,6 Z" id="Shape" fill="#444B54" fill-rule="nonzero"></path>
        <rect id="Rectangle-Copy-2" stroke="#444B54" stroke-width="2" fill="#FFFFFF" x="16" y="18" width="22" height="3"></rect>
        <rect id="Rectangle-Copy-3" stroke="#444B54" stroke-width="2" fill="#FFFFFF" x="16" y="11" width="15" height="3"></rect>
        <g id="Combined-Shape-Copy-2" transform="translate(15.000000, 25.000000)" fill-rule="nonzero">
            <path d="M18.7728314,0 C21.1144742,0 22.9998487,1.96721311 22.9998487,4.3647541 L22.9998487,15.6352459 C23.0195395,18.0532787 21.1144742,20 18.7926758,20 L4.22686372,20 C1.90506534,20 0,18.0532787 0,15.6352459 L0,4.3647541 C0,1.94672131 1.90506534,0 4.22686372,0 L18.7728314,0 Z M18.0375641,2 L4.76946648,2 C3.24897508,2 2,3.27102804 2,4.85981308 L2,10.678 L4.8020383,12.7714149 C4.47066181,13.0312992 4.22298657,13.4090693 4.11124198,13.8480538 L2,12.263 L2,15.1401869 C2,16.728972 3.24897508,18 4.76946648,18 L18.0375641,18 C19.5761565,18 20.8070305,16.7102804 20.8070305,15.1401869 L20.807,9.015 L18.4856018,11.0386171 C18.4493009,10.9293239 18.403842,10.8226852 18.3492252,10.7200403 C18.1997248,10.4390749 17.9920321,10.2076254 17.7480713,10.0394261 L20.807,7.368 L20.8070305,4.85981308 C20.8070305,3.27102804 19.5580555,2 18.0375641,2 Z M9.91817649,8.26788913 C10.1214409,8.64941258 10.4387264,8.95045296 10.8194852,9.11616344 L7.44243288,13.3753751 C7.2362865,12.9945771 6.91607371,12.69524 6.5327241,12.5326252 L9.91817649,8.26788913 Z M13.2323522,7.89153926 L15.7767948,10.0500804 C15.5394421,10.2173447 15.3372941,10.4449611 15.1909257,10.7200403 C15.1323606,10.8301053 15.0843254,10.9447624 15.0468201,11.0623604 L12.4998368,8.93249523 C12.8416966,8.68810897 13.1032644,8.32224813 13.2323522,7.89153926 Z" id="Combined-Shape-Copy" fill="#444B54"></path>
            <path d="M5.65827036,16.9230769 C4.23501259,16.9230769 3.06666667,15.7417103 3.06666667,14.302591 C3.06666667,12.8634716 4.23501259,11.682105 5.65827036,11.682105 C7.08152813,11.682105 8.24987406,12.8634716 8.24987406,14.302591 C8.24987406,15.7631897 7.08152813,16.9230769 5.65827036,16.9230769 Z M5.65827036,12.992348 C4.93602015,12.992348 4.34122586,13.593771 4.34122586,14.3240703 C4.34122586,15.0543697 4.93602015,15.6557927 5.65827036,15.6557927 C6.38052057,15.6557927 6.97531486,15.0543697 6.97531486,14.3240703 C6.97531486,13.593771 6.38052057,12.992348 5.65827036,12.992348 Z M17.3417296,14.2811116 C15.9184719,14.2811116 14.7501259,13.0997449 14.7501259,11.6606256 C14.7501259,10.2215062 15.9184719,9.04013962 17.3417296,9.04013962 C18.7649874,9.04013962 19.9333333,10.2215062 19.9333333,11.6606256 C19.9333333,13.0997449 18.7649874,14.2811116 17.3417296,14.2811116 Z M17.3417296,10.3289032 C16.6194794,10.3289032 16.0246851,10.9303262 16.0246851,11.6606256 C16.0246851,12.390925 16.6194794,12.992348 17.3417296,12.992348 C18.0639798,12.992348 18.6587741,12.390925 18.6587741,11.6606256 C18.6587741,10.9303262 18.0639798,10.3289032 17.3417296,10.3289032 Z M11.6911839,9.83487716 C10.2679261,9.83487716 9.09958018,8.65351054 9.09958018,7.21439119 C9.09958018,5.79675124 10.2679261,4.61538462 11.6911839,4.61538462 C13.1144416,4.61538462 14.2827876,5.79675124 14.2827876,7.23587059 C14.2827876,8.67498993 13.1144416,9.83487716 11.6911839,9.83487716 Z M11.6911839,5.90414821 C10.9689337,5.90414821 10.3741394,6.50557122 10.3741394,7.23587059 C10.3741394,7.96616996 10.9689337,8.56759297 11.6911839,8.56759297 C12.4134341,8.56759297 13.0082284,7.96616996 13.0082284,7.23587059 C13.0082284,6.50557122 12.4134341,5.90414821 11.6911839,5.90414821 Z" id="Shape" fill="#EA0074"></path>
        </g>
    </g>
</svg>