<?xml version="1.0" encoding="UTF-8"?>
<svg width="53px" height="53px" viewBox="0 0 53 53" version="1.1" xmlns="http://www.w3.org/2000/svg" xmlns:xlink="http://www.w3.org/1999/xlink">
    <!-- Generator: Sketch 63.1 (92452) - https://sketch.com -->
    <title>Icon / Responsabilidad</title>
    <desc>Created with Sketch.</desc>
    <defs>
        <polygon id="path-1" points="0.17260357 0.124740507 6.45958413 0.124740507 6.45958413 3.66629254 0.17260357 3.66629254"></polygon>
        <polygon id="path-3" points="0 0.183453211 3.66910628 0.183453211 3.66910628 6.02954626 0 6.02954626"></polygon>
    </defs>
    <g id="Icon-/-Responsabilidad" stroke="none" stroke-width="1" fill="none" fill-rule="evenodd">
        <g id="Group" transform="translate(5.000000, 7.000000)">
            <path d="M22.9735028,-9.9475983e-14 C24.8368361,-9.9475983e-14 26.57,0.620886378 28,1.73085046 C29.43,0.665284941 31.1631639,0.0442254087 33.0264972,0.0442254087 C37.4031643,0.0442254087 41,3.50748649 41,7.76974854 C41,10.0784738 39.960338,12.2533099 38.0970047,13.7184625 C38.0536713,13.7184625 38.0531643,13.7635546 38.009831,13.7635546 L38.009831,13.7635546 L28.7803384,20.7337822 C28.5636718,20.9113765 28.26,21 28,21 C27.74,21 27.4363282,20.9113765 27.2196616,20.7337822 L27.2196616,20.7337822 L18.1636718,13.9404553 L18.0764972,13.8520049 C16.1264972,12.3868524 15,10.167271 15,7.76974854 C15,3.50748649 18.5968361,0.0443985631 22.9735028,-9.9475983e-14 Z M33.0264972,2.7081392 C31.4664972,2.7081392 29.9929949,3.37411764 28.9529949,4.48408172 C28.4329949,5.01686448 27.5236718,5.01686448 27.0470051,4.48408172 C26.0070051,3.32971908 24.5335028,2.7081392 22.9735028,2.7081392 C20.0268361,2.7081392 17.6,4.97263907 17.6,7.76974854 C17.6,9.32369825 18.3370051,10.7888508 19.6803384,11.7656192 C19.7236718,11.7656192 19.7664972,11.809671 19.8098306,11.8540696 L19.8098306,11.8540696 L28,18.0256435 L36.4068361,11.7205272 C36.4068361,11.6761286 36.45,11.6763017 36.45,11.6763017 C37.7066667,10.6995334 38.4,9.27929969 38.4,7.76974854 C38.4,4.97263907 35.9731639,2.7081392 33.0264972,2.7081392 Z" id="Combined-Shape" fill="#EA0074" fill-rule="nonzero"></path>
            <path d="M1.28421321,21 C0.55649239,21 0,21.5550562 0,22.2808988 C0,23.0067415 0.55649239,23.5617977 1.28421321,23.5617977 L7.40596425,23.5617977 C7.44877135,23.5617977 7.49124371,23.6043278 7.49124371,23.6043278 L7.49124371,23.9037046 L7.49124371,34.4069082 L7.49124371,34.8338745 L1.28421321,34.8338745 C0.55649239,34.8338745 0,35.3889307 0,36.1147733 C0,36.840616 0.55649239,37.3956722 1.28421321,37.3956722 L7.49124371,37.3956722 C8.47580717,37.3956722 9.33228406,36.8407825 9.76035513,36.0722432 L20.7188071,39.4879735 C20.8472284,39.5306701 22.5593453,40 24.6140865,40 C25.7270713,40 26.8831979,39.8724097 27.9533756,39.4454434 C30.2221522,38.5488142 38.7407661,34.0656687 42.2937559,32.187017 C43.4923549,31.5465676 44.4341113,30.0091555 43.7920047,28.4293803 C43.4067407,27.4900544 42.2937559,25.995339 39.511294,26.8065749 L39.4686538,26.8065749 L34.5023612,28.4719099 C33.8174475,28.6853931 33.4756593,29.4115697 33.6896948,30.0947157 C33.9037304,30.7778618 34.6309495,31.1196013 35.3158632,30.9061182 L40.2386809,29.2407831 C41.2660515,28.9419067 41.3519996,29.198253 41.4376138,29.4117362 C41.523228,29.6252193 41.1802703,29.8812326 41.1374632,29.8812326 C38.3978084,31.3329179 29.2370871,36.1571369 27.0111175,37.0537661 C24.785148,37.9503953 21.4896694,37.011236 21.4896694,37.011236 L12.2000255,34.1508954 L12.2000255,25.2696628 L13.9984257,25.2696628 C15.6250957,25.2696628 20.2047875,25.7823563 21.8742647,28.1733674 C22.1311073,28.5149405 22.5163713,28.7279232 22.9444424,28.7279232 L29.1949486,28.7279232 C29.751441,28.7279232 30.2649593,29.1128598 30.3077664,29.6252193 L30.3077664,29.7528088 L30.3077664,29.8387025 L30.3077664,29.9237622 C30.3077664,29.9664589 30.3079334,30.008822 30.2651263,30.008822 C30.2651263,30.0515187 30.2644576,30.0520191 30.2216505,30.0947157 C30.0504221,30.4362887 29.7082996,30.692635 29.2802285,30.692635 L20.2054562,30.692635 C19.4777353,30.692635 18.921243,31.2476912 18.921243,31.9735339 C18.921243,32.6993765 19.4777353,33.2544327 20.2054562,33.2544327 L29.2802285,33.2544327 C30.5216346,33.2544327 31.6346194,32.6136498 32.276726,31.6316274 L32.276726,31.5890977 C32.3195331,31.5464011 32.3191988,31.5033706 32.3620059,31.4606739 C32.3620059,31.4179773 32.4054816,31.3756146 32.4054816,31.3756146 C32.4482887,31.2902213 32.4905941,31.2043276 32.5334013,31.0762378 L32.5334013,31.0337076 C32.5762084,30.9483144 32.6195172,30.863255 32.6195172,30.7351651 L32.6195172,30.6492715 C32.6623243,30.5638782 32.6619899,30.4786515 32.7047971,30.3932582 L32.7047971,30.3081988 C32.7047971,30.2228056 32.7474368,30.1375789 32.7474368,30.0521856 L32.7474368,29.9662919 L32.7474368,29.6252193 L32.7474368,29.3258425 C32.5762084,27.4898875 30.9925128,26.0810657 29.066193,26.0810657 L23.5439088,26.0810657 C20.5474113,22.6653354 14.2552683,22.6228058 13.9984257,22.6228058 L9.84563459,22.6228058 C9.46037063,21.6834799 8.51894903,21 7.40596425,21 L1.28421321,21 Z" id="Path" fill="#444B54" fill-rule="nonzero"></path>
            <g id="Group-3" transform="translate(24.000000, 6.000000)"></g>
        </g>
        <g id="Group-2" transform="translate(29.000000, 13.000000)">
            <path d="M4.64808349,1.7426677 L2.43603356,0.144717072 C2.21087079,-0.0482390241 1.84564775,-0.0482390241 1.62048498,0.144717072 C1.39532221,0.337673166 1.39532221,0.650479953 1.62048498,0.843611785 L3.88769774,2.78670429 C4.30644309,3.14520193 4.98767324,3.14520193 5.40662365,2.78652853 L7.66973506,0.846950733 C7.78231645,0.750472687 7.83870968,0.624119833 7.83870968,0.497591244 C7.83870968,0.371062655 7.78231645,0.244709803 7.66973506,0.148231755 C7.44457231,-0.0447243412 7.07955435,-0.0447243412 6.85439156,0.148231755 L4.64808349,1.7426677 Z" id="Fill-1" fill="#4FC3F4" fill-rule="nonzero"></path>
            <path d="M7.08873627,1.55092593 C7.10549203,1.53487654 7.12192557,1.5191358 7.13707019,1.50462963 L7.08873627,1.55092593 Z" id="Fill-3" fill="#4E67F1" fill-rule="nonzero"></path>
            <path d="M7.14045358,1.22361111 L7.16752055,1.19768519 C7.13239791,1.23132716 7.09598635,1.2662037 7.0582859,1.30231481 L7.14045358,1.22361111 Z" id="Fill-5" fill="#4E67F1" fill-rule="nonzero"></path>
            <path d="M7.17074281,1.47237654 L7.05506364,1.58317901 C7.10081975,1.53935185 7.14013135,1.50169753 7.17074281,1.47237654" id="Fill-7" fill="#4E67F1" fill-rule="nonzero"></path>
            <path d="M7.08873627,1.27314815 C7.10549203,1.25709876 7.12192557,1.24135802 7.13707019,1.22685185 L7.08873627,1.27314815 Z" id="Fill-9" fill="#4E67F1" fill-rule="nonzero"></path>
            <path d="M7.43077616,1.22361111 L7.45784313,1.19768519 C7.42272049,1.23132716 7.38630893,1.2662037 7.34860848,1.30231481 L7.43077616,1.22361111 Z" id="Fill-11" fill="#4E67F1" fill-rule="nonzero"></path>
            <path d="M7.4610654,1.19459877 L7.34538622,1.30540123 C7.39114233,1.26157408 7.43045393,1.22391975 7.4610654,1.19459877" id="Fill-13" fill="#4E67F1" fill-rule="nonzero"></path>
            <g id="Group-17" transform="translate(0.870968, 5.000000)">
                <g id="Fill-15-Clipped">
                    <g>
                        <mask id="mask-2" fill="white">
                            <use xlink:href="#path-1"></use>
                        </mask>
                        <g id="path-1"></g>
                        <path d="M3.31321747,1.64643014 L5.49059403,3.49851895 C5.71222741,3.72216279 6.07172569,3.72236646 6.2933591,3.49851895 C6.51499249,3.27507878 6.51499249,2.91231949 6.2933591,2.68847196 L4.06168433,0.43634992 C3.64950274,0.0208367627 2.9789507,0.0208367627 2.56656724,0.436553604 L0.338929545,2.68460199 C0.228112845,2.79642391 0.17260357,2.94287193 0.17260357,3.08952362 C0.17260357,3.23617533 0.228112845,3.38262335 0.338929545,3.49464895 C0.560562942,3.71808912 0.919859348,3.71808912 1.14149275,3.49464895 L3.31321747,1.64643014 Z" id="Fill-15" fill="#FCB000" fill-rule="nonzero" mask="url(#mask-2)"></path>
                    </g>
                </g>
            </g>
            <path d="M7.00966092,4.44292414 L8.83406925,2.33195205 C9.05437364,2.11710733 9.0553732,1.76786201 8.83666809,1.55164385 C8.6177631,1.33562188 8.26191752,1.33444465 8.04161312,1.54928938 L5.82437528,3.71186347 C5.41515286,4.1113373 5.41315371,4.76293489 5.81977727,5.16495942 L8.01942275,7.33714752 C8.12897519,7.44506041 8.2725129,7.49940927 8.41645047,7.5 C8.56038798,7.5003903 8.70432552,7.44682626 8.81447772,7.33950201 C9.03458223,7.12465728 9.03578168,6.77541194 8.8170766,6.55919379 L7.00966092,4.44292414 Z" id="Fill-18" fill="#5C469C" fill-rule="nonzero"></path>
            <g id="Group-22" transform="translate(0.000000, 0.833333)">
                <g id="Fill-20-Clipped">
                    <g>
                        <mask id="mask-4" fill="white">
                            <use xlink:href="#path-3"></use>
                        </mask>
                        <g id="path-3"></g>
                        <path d="M2.09617197,3.10796569 L0.174770478,5.12740013 C-0.057246227,5.33292858 -0.0585094758,5.66702962 0.172033439,5.87368428 C0.402576354,6.08052663 0.777340176,6.08165279 1.00935689,5.87612435 L3.34447239,3.80732556 C3.7754508,3.42517401 3.77755619,2.80164383 3.34931484,2.41705222 L1.03272699,0.339243962 C0.917350258,0.235822791 0.766181478,0.183830661 0.614591618,0.183453211 C0.463001756,0.183079872 0.311411894,0.234133516 0.195403543,0.336991594 C-0.0364026209,0.542332357 -0.03766587,0.876621111 0.192666504,1.08327575 L2.09617197,3.10796569 Z" id="Fill-20" fill="#EA0074" fill-rule="nonzero" mask="url(#mask-4)"></path>
                    </g>
                </g>
            </g>
        </g>
    </g>
</svg>