<?xml version="1.0" encoding="UTF-8"?>
<svg width="53px" height="53px" viewBox="0 0 53 53" version="1.1" xmlns="http://www.w3.org/2000/svg" xmlns:xlink="http://www.w3.org/1999/xlink">
    <!-- Generator: Sketch 63.1 (92452) - https://sketch.com -->
    <title>Icon / Case JEM@2x</title>
    <desc>Created with Sketch.</desc>
    <g id="Icon-/-Case-JEM" stroke="none" stroke-width="1" fill="none" fill-rule="evenodd">
        <g id="JEM-2" transform="translate(5.000000, 18.000000)" fill="#444B54" fill-rule="nonzero">
            <path d="M5.49157734,17 C6.54721797,17 7.49429981,16.7773261 8.33282287,16.3319783 C9.17134592,15.8866305 9.82082695,15.2550813 10.281266,14.4373306 C10.741705,13.6195799 10.9719245,12.6770551 10.9719245,11.6097561 L10.9719245,11.6097561 L10.9719245,0 L7.6028586,0 L7.6028586,11.6097561 C7.6028586,12.4467028 7.41194487,13.0916893 7.03011741,13.5447154 C6.64828994,13.9977416 6.13544325,14.2242547 5.49157734,14.2242547 C4.76535647,14.2242547 4.23379275,14.0284553 3.89688617,13.6368564 C3.55997958,13.2452575 3.39152629,12.6386631 3.39152629,11.8170732 L3.39152629,11.8170732 L0,11.8170732 C0,13.4679313 0.482899438,14.744467 1.44869832,15.6466802 C2.41449719,16.5488934 3.76212353,17 5.49157734,17 Z M24.8187851,16.7696477 L24.8187851,13.9939024 L17.2271567,13.9939024 L17.2271567,9.50203252 L23.6957631,9.50203252 L23.6957631,6.79539295 L17.2271567,6.79539295 L17.2271567,2.79878049 L24.7963247,2.79878049 L24.7963247,0 L13.8580909,0 L13.8580909,16.7696477 L24.8187851,16.7696477 Z M30.1643696,16.7696477 L30.1643696,12.1856369 L29.827463,4.28455285 L34.229709,16.7696477 L36.5431343,16.7696477 L40.9566105,4.27303523 L40.6197039,12.1856369 L40.6197039,16.7696477 L44,16.7696477 L44,0 L39.5752935,0 L35.3976519,12.1626016 L31.1975498,0 L26.7953037,0 L26.7953037,16.7696477 L30.1643696,16.7696477 Z" id="JEM"></path>
        </g>
    </g>
</svg>