<?xml version="1.0" encoding="UTF-8"?>
<svg width="53px" height="53px" viewBox="0 0 53 53" version="1.1" xmlns="http://www.w3.org/2000/svg" xmlns:xlink="http://www.w3.org/1999/xlink">
    <!-- Generator: Sketch 63.1 (92452) - https://sketch.com -->
    <title>Icon / Dashboard Diseño</title>
    <desc>Created with Sketch.</desc>
    <g id="Icon-/-Dashboard-Diseño" stroke="none" stroke-width="1" fill="none" fill-rule="evenodd">
        <g id="Group" transform="translate(4.000000, 6.000000)" fill="#444B54" fill-rule="nonzero">
            <path d="M3.91304348,0 C1.76163359,0 0,1.75790526 0,3.9047619 L0,37.0952381 C0,39.2420947 1.76163359,41 3.91304348,41 L41.0869565,41 C43.2383664,41 45,39.2420947 45,37.0952381 L45,3.9047619 C45,1.75790526 43.2383664,0 41.0869565,0 L3.91304348,0 Z M3.91304348,1.95238095 L41.0869565,1.95238095 C42.1798578,1.95238095 43.0434783,2.8141746 43.0434783,3.9047619 L43.0434783,6.83333333 L1.95652174,6.83333333 L1.95652174,3.9047619 C1.95652174,2.8141746 2.82014315,1.95238095 3.91304348,1.95238095 Z M1.95652174,8.78571429 L43.0434783,8.78571429 L43.0434783,32.2142857 L1.95652174,32.2142857 L1.95652174,8.78571429 Z M1.95652174,34.1666667 L43.0434783,34.1666667 L43.0434783,37.0952381 C43.0434783,38.1858264 42.1798578,39.047619 41.0869565,39.047619 L3.91304348,39.047619 C2.82014315,39.047619 1.95652174,38.1858264 1.95652174,37.0952381 L1.95652174,34.1666667 Z" id="Shape"></path>
        </g>
        <rect id="Rectangle-Copy" stroke="#444B54" stroke-width="2" fill="#FFFFFF" x="29" y="18" width="15" height="3"></rect>
        <rect id="Rectangle-Copy-2" stroke="#444B54" stroke-width="2" fill="#FFFFFF" x="29" y="25" width="15" height="3"></rect>
        <rect id="Rectangle-Copy-3" stroke="#444B54" stroke-width="2" fill="#FFFFFF" x="29" y="32" width="15" height="3"></rect>
        <g id="Shape-3" transform="translate(9.000000, 17.000000)" fill="#EA0074" fill-rule="nonzero">
            <path d="M9.375,0 L1.875,0 C0.84375,0 0,0.855 0,1.9 L0,17.1 C0,18.145 0.84375,19 1.875,19 L13.125,19 C14.15625,19 15,18.145 15,17.1 L15,5.7 L9.375,0 Z M6.7003125,14.3336 L5.625,15.41375 L2.6184375,12.3671 L5.625,9.32045 L6.7209375,10.37305 L4.6875,12.35 L6.7003125,14.3336 Z M9.375,15.41375 L8.31375,14.2709 L10.3125,12.35 L8.31375,10.37305 L9.375,9.32045 L12.3815625,12.3671 L9.375,15.41375 Z M8.4375,6.65 L8.4375,1.425 L13.59375,6.65 L8.4375,6.65 Z" id="Shape"></path>
        </g>
    </g>
</svg>