<?xml version="1.0" encoding="UTF-8"?>
<svg width="53px" height="53px" viewBox="0 0 53 53" version="1.1" xmlns="http://www.w3.org/2000/svg" xmlns:xlink="http://www.w3.org/1999/xlink">
    <!-- Generator: Sketch 63.1 (92452) - https://sketch.com -->
    <title>Icon / Careers PriceTravel@2x</title>
    <desc>Created with Sketch.</desc>
    <g id="Icon-/-Careers-PriceTravel" stroke="none" stroke-width="1" fill="none" fill-rule="evenodd">
        <g id="icons8-new_job" transform="translate(5.000000, 5.000000)" fill="#444B54" fill-rule="nonzero">
            <path d="M17.4166667,0 C15.9091799,0 14.6666667,1.25628834 14.6666667,2.7804878 L14.6666667,4.63414634 L2.67480492,4.63414634 C1.21744792,4.63414634 0,5.83612805 0,7.3132622 L0,35.3208841 C0,36.7980183 1.21744792,38 2.67480492,38 L23.8333333,38 L23.8333333,36.1463415 L2.67480492,36.1463415 C2.19498675,36.1463415 1.83333333,35.7806786 1.83333333,35.3208841 L1.83333333,23.9418824 C2.09830775,24.036014 2.37760417,24.097561 2.67480492,24.097561 L41.3251951,24.097561 C41.6223958,24.097561 41.9016932,24.036014 42.1666667,23.9418824 L42.1666667,28.7317073 L44,28.7317073 L44,7.3132622 C44,5.83612805 42.7825521,4.63414634 41.3251951,4.63414634 L29.3333333,4.63414634 L29.3333333,2.7804878 C29.3333333,1.25628834 28.0908201,0 26.5833333,0 L17.4166667,0 Z M17.4166667,1.85365854 L26.5833333,1.85365854 C27.0989583,1.85365854 27.5,2.25914634 27.5,2.7804878 L27.5,4.63414634 L16.5,4.63414634 L16.5,2.7804878 C16.5,2.25914634 16.9010417,1.85365854 17.4166667,1.85365854 Z M2.67480492,6.48780488 L15.4293618,6.48780488 C15.5296222,6.50590678 15.6298826,6.50590678 15.7265625,6.48780488 L28.2626951,6.48780488 C28.3629555,6.50590678 28.4632159,6.50590678 28.5598958,6.48780488 L41.3251951,6.48780488 C41.8050133,6.48780488 42.1666667,6.85346776 42.1666667,7.3132622 L42.1666667,21.3170732 C42.1666667,21.8601377 41.7763674,22.2439024 41.3251951,22.2439024 L2.67480492,22.2439024 C2.22363258,22.2439024 1.83333333,21.8601377 1.83333333,21.3170732 L1.83333333,7.3132622 C1.83333333,6.85346776 2.19498675,6.48780488 2.67480492,6.48780488 Z M22,16.6829268 C20.9866534,16.6829268 20.1666667,17.5120043 20.1666667,18.5365854 C20.1666667,19.5611664 20.9866534,20.3902439 22,20.3902439 C23.0133466,20.3902439 23.8333333,19.5611664 23.8333333,18.5365854 C23.8333333,17.5120043 23.0133466,16.6829268 22,16.6829268 Z" id="Shape"></path>
        </g>
        <path d="M45,25 L40,22.6315789 L35,25 L35,11.5789474 C35,10.7105263 35.6923077,10 36.5384615,10 L43.4615385,10 C44.3076923,10 45,10.7105263 45,11.5789474 L45,25 Z" id="Path" fill="#EA0074" fill-rule="nonzero"></path>
        <g id="isotipo-2" transform="translate(30.000000, 33.000000)">
            <g id="isotipo">
                <path d="M9.25701157,12.5601947 L13.2595097,16.1225552 C13.6669207,16.5527181 14.3277578,16.5531099 14.7351688,16.1225552 C15.1425798,15.692784 15.1425798,14.9950424 14.7351688,14.5644877 L10.6328587,10.2326918 C9.87517802,9.4334819 8.64255557,9.4334819 7.88450388,10.2330835 L3.78961477,14.557044 C3.58590925,14.7721255 3.48387097,15.0538078 3.48387097,15.3358819 C3.48387097,15.617956 3.58590925,15.8996383 3.78961477,16.1151115 C4.19702581,16.5448827 4.8574918,16.5448827 5.26490284,16.1151115 L9.25701157,12.5601947 Z" id="up-arrow" fill="#FCB000"></path>
                <path d="M9.25701157,2.92686133 L13.2595097,6.48922185 C13.6669207,6.91938481 14.3277578,6.91977657 14.7351688,6.48922185 C15.1425798,6.05945064 15.1425798,5.36170906 14.7351688,4.93115433 L10.6328587,0.599358447 C9.87517802,-0.199851432 8.64255557,-0.199851432 7.88450388,0.599750215 L3.78961477,4.92371071 C3.58590925,5.13879219 3.48387097,5.42047449 3.48387097,5.70254857 C3.48387097,5.98462264 3.58590925,6.26630494 3.78961477,6.48177818 C4.19702581,6.91154938 4.8574918,6.91154938 5.26490284,6.48177818 L9.25701157,2.92686133 Z" id="top-arrow" fill="#4FC3F4" transform="translate(9.262299, 3.405995) rotate(-180.000000) translate(-9.262299, -3.405995) "></path>
                <path d="M14.4829453,8.01504208 L18.389087,11.6652787 C18.7866899,12.1060529 19.431618,12.1064543 19.829221,11.6652787 C20.2268239,11.2249059 20.2268239,10.5099525 19.829221,10.0687768 L15.8256702,5.63012452 C15.08623,4.81119978 13.8832818,4.81119978 13.1434795,5.63052595 L9.14717103,10.0611496 C8.94836953,10.2815367 8.84878772,10.5701675 8.84878772,10.8591998 C8.84878772,11.148232 8.94836953,11.4368629 9.14717103,11.6576514 C9.54477402,12.0980241 10.1893399,12.0980241 10.5869429,11.6576514 L14.4829453,8.01504208 Z" id="rigth-arrow" fill="#5C469C" transform="translate(14.488105, 8.505995) rotate(-90.000000) translate(-14.488105, -8.505995) "></path>
                <path d="M4.03133241,8.01504208 L7.93747406,11.6652787 C8.33507704,12.1060529 8.98000507,12.1064543 9.37760806,11.6652787 C9.77521105,11.2249059 9.77521105,10.5099525 9.37760806,10.0687768 L5.37405727,5.63012452 C4.63461707,4.81119978 3.43166887,4.81119978 2.69186657,5.63052595 L-1.30444187,10.0611496 C-1.50324337,10.2815367 -1.60282518,10.5701675 -1.60282518,10.8591998 C-1.60282518,11.148232 -1.50324337,11.4368629 -1.30444187,11.6576514 C-0.906838879,12.0980241 -0.262272997,12.0980241 0.135330001,11.6576514 L4.03133241,8.01504208 Z" id="left-arrow" fill="#EA0074" transform="translate(4.036493, 8.505995) scale(-1, 1) rotate(-90.000000) translate(-4.036493, -8.505995) "></path>
            </g>
        </g>
    </g>
</svg>