<?xml version="1.0" encoding="UTF-8"?>
<svg width="53px" height="53px" viewBox="0 0 53 53" version="1.1" xmlns="http://www.w3.org/2000/svg" xmlns:xlink="http://www.w3.org/1999/xlink">
    <!-- Generator: Sketch 63.1 (92452) - https://sketch.com -->
    <title>Icon / Pricebook</title>
    <desc>Created with Sketch.</desc>
    <defs>
        <polygon id="path-1" points="0.421919837 0.322766063 15.7900946 0.322766063 15.7900946 9.48653195 0.421919837 9.48653195"></polygon>
        <polygon id="path-3" points="0 0.474685183 8.96892647 0.474685183 8.96892647 15.601451 0 15.601451"></polygon>
    </defs>
    <g id="Icon-/-Pricebook" stroke="none" stroke-width="1" fill="none" fill-rule="evenodd">
        <g id="Group-3" transform="translate(27.000000, 27.000000)">
            <g id="Group-2">
                <path d="M11.3619819,4.50915266 L5.95474871,0.374455424 C5.40435083,-0.124818475 4.51158339,-0.124818475 3.96118551,0.374455424 C3.41078762,0.873729318 3.41078762,1.68311688 3.96118551,2.18284549 L9.50326115,7.21059734 C10.5268609,8.13821 12.1920901,8.13821 13.2161911,7.21014258 L18.7482413,2.19148502 C19.0234402,1.94184808 19.1612903,1.61491007 19.1612903,1.28751734 C19.1612903,0.960124619 19.0234402,0.633186616 18.7482413,0.383549666 C18.1978434,-0.115724233 17.3055773,-0.115724233 16.7551794,0.383549666 L11.3619819,4.50915266 Z" id="Fill-1" fill="#4FC3F4" fill-rule="nonzero"></path>
                <path d="M17.328022,4.01302083 C17.3689805,3.97149306 17.4091514,3.93076389 17.4461716,3.89322917 L17.328022,4.01302083 Z" id="Fill-3" fill="#4E67F1" fill-rule="nonzero"></path>
                <path d="M17.4544421,3.16609375 L17.5206058,3.09901042 C17.4347504,3.18605903 17.3457444,3.27630208 17.2535878,3.36973958 L17.4544421,3.16609375 Z" id="Fill-5" fill="#4E67F1" fill-rule="nonzero"></path>
                <path d="M17.5284824,3.80977431 L17.2457111,4.09647569 C17.3575594,3.98307292 17.4536544,3.88564236 17.5284824,3.80977431" id="Fill-7" fill="#4E67F1" fill-rule="nonzero"></path>
                <path d="M17.328022,3.29427083 C17.3689805,3.25274305 17.4091514,3.21201389 17.4461716,3.17447917 L17.328022,3.29427083 Z" id="Fill-9" fill="#4E67F1" fill-rule="nonzero"></path>
                <path d="M18.1641195,3.16609375 L18.2302832,3.09901042 C18.1444279,3.18605903 18.0554218,3.27630208 17.9632652,3.36973958 L18.1641195,3.16609375 Z" id="Fill-11" fill="#4E67F1" fill-rule="nonzero"></path>
                <path d="M18.2381599,3.09102431 L17.9553885,3.37772569 C18.0672368,3.26432292 18.1633318,3.16689236 18.2381599,3.09102431" id="Fill-13" fill="#4E67F1" fill-rule="nonzero"></path>
                <g id="Group-17" transform="translate(2.129032, 12.937500)">
                    <g id="Fill-15-Clipped">
                        <g>
                            <mask id="mask-2" fill="white">
                                <use xlink:href="#path-1"></use>
                            </mask>
                            <g id="path-1"></g>
                            <path d="M8.09897604,4.260138 L13.4214521,9.05241779 C13.9632226,9.63109623 14.8419961,9.63162322 15.3837667,9.05241779 C15.9255372,8.47426633 15.9255372,7.53562668 15.3837667,6.95642121 L9.9285617,1.12905542 C8.9210067,0.0539151234 7.28187948,0.0539151234 6.27383103,1.12958245 L0.828494443,6.94640765 C0.557609177,7.23574687 0.421919837,7.61468111 0.421919837,7.99414238 C0.421919837,8.37360367 0.557609177,8.75253791 0.828494443,9.04240415 C1.37026497,9.62055561 2.24854507,9.62055561 2.79031561,9.04240415 L8.09897604,4.260138 Z" id="Fill-15" fill="#FCB000" fill-rule="nonzero" mask="url(#mask-2)"></path>
                        </g>
                    </g>
                </g>
                <path d="M17.1347267,11.4960662 L21.5943915,6.03392594 C22.1329133,5.4780152 22.1353567,4.57434295 21.6007442,4.01487845 C21.0656431,3.45592162 20.1957984,3.45287553 19.6572765,4.00878628 L14.2373618,9.60444673 C13.2370403,10.6380853 13.2321535,12.324094 14.2261222,13.3643325 L19.6030334,18.9848692 C19.8708282,19.2640938 20.2216982,19.4047215 20.5735456,19.40625 C20.9253928,19.4072599 21.2772402,19.268663 21.5465011,18.9909615 C22.0845343,18.4350507 22.0874663,17.5313784 21.5528539,16.9719139 L17.1347267,11.4960662 Z" id="Fill-18" fill="#5C469C" fill-rule="nonzero"></path>
                <g id="Group-22" transform="translate(0.000000, 2.156250)">
                    <g id="Fill-20-Clipped">
                        <g>
                            <mask id="mask-4" fill="white">
                                <use xlink:href="#path-3"></use>
                            </mask>
                            <g id="path-3"></g>
                            <path d="M5.12397594,8.04186123 L0.427216724,13.2671478 C-0.139935222,13.7989527 -0.143023163,14.6634391 0.420526184,15.1981581 C0.984075532,15.7333627 1.90016488,15.7362766 2.46731683,15.2044718 L8.17537695,9.85145488 C9.22887973,8.86263774 9.23402625,7.24925342 8.18721404,6.25412262 L2.52444375,0.877793751 C2.24241174,0.610191473 1.87288806,0.475661834 1.50233507,0.474685184 C1.13178207,0.473719168 0.761229074,0.605820473 0.477653104,0.87196575 C-0.0889841844,1.40328497 -0.0920721268,2.26825713 0.470962564,2.80297601 L5.12397594,8.04186123 Z" id="Fill-20" fill="#EA0074" fill-rule="nonzero" mask="url(#mask-4)"></path>
                        </g>
                    </g>
                </g>
            </g>
        </g>
        <path d="M8.13043478,8 C6.40452174,8 5,9.40860465 5,11.1395349 L5,42.5348837 C5,44.265814 6.40452174,45.6744186 8.13043478,45.6744186 L25.7982341,45.6744186 C25.3777123,45.0004651 25.0244616,44.3003488 24.7343746,43.5813953 L8.13043478,43.5813953 C7.55443478,43.5813953 7.08695652,43.1115116 7.08695652,42.5348837 L7.08695652,16.372093 L46.7391304,16.372093 L46.7391304,26.3814043 C47.4737391,26.7319857 48.1666087,27.1404852 48.826087,27.5873457 L48.826087,11.1395349 C48.826087,9.40860465 47.4215652,8 45.6956522,8 L8.13043478,8 Z M8.13043478,10.0930233 L45.6956522,10.0930233 C46.2716522,10.0930233 46.7391304,10.562907 46.7391304,11.1395349 L46.7391304,14.2790698 L7.08695652,14.2790698 L7.08695652,11.1395349 C7.08695652,10.562907 7.55443478,10.0930233 8.13043478,10.0930233 Z M9.17391304,11.1395349 C8.59761591,11.1395349 8.13043478,11.6080741 8.13043478,12.1860465 C8.13043478,12.7640189 8.59761591,13.2325581 9.17391304,13.2325581 C9.75021017,13.2325581 10.2173913,12.7640189 10.2173913,12.1860465 C10.2173913,11.6080741 9.75021017,11.1395349 9.17391304,11.1395349 Z M12.3043478,11.1395349 C11.7280507,11.1395349 11.2608696,11.6080741 11.2608696,12.1860465 C11.2608696,12.7640189 11.7280507,13.2325581 12.3043478,13.2325581 C12.880645,13.2325581 13.3478261,12.7640189 13.3478261,12.1860465 C13.3478261,11.6080741 12.880645,11.1395349 12.3043478,11.1395349 Z M15.4347826,11.1395349 C14.8584855,11.1395349 14.3913043,11.6080741 14.3913043,12.1860465 C14.3913043,12.7640189 14.8584855,13.2325581 15.4347826,13.2325581 C16.0110797,13.2325581 16.4782609,12.7640189 16.4782609,12.1860465 C16.4782609,11.6080741 16.0110797,11.1395349 15.4347826,11.1395349 Z" id="Shape" fill="#444B54" fill-rule="nonzero"></path>
        <path d="M44,24 L38.5,21.4736842 L33,24 L33,9.68421053 C33,8.75789474 33.7615385,8 34.6923077,8 L42.3076923,8 C43.2384615,8 44,8.75789474 44,9.68421053 L44,24 Z" id="Path" fill="#EA0074" fill-rule="nonzero"></path>
    </g>
</svg>