<?xml version="1.0" encoding="UTF-8"?>
<svg width="53px" height="53px" viewBox="0 0 53 53" version="1.1" xmlns="http://www.w3.org/2000/svg" xmlns:xlink="http://www.w3.org/1999/xlink">
    <!-- Generator: Sketch 63.1 (92452) - https://sketch.com -->
    <title>Icon / Directorio</title>
    <desc>Created with Sketch.</desc>
    <g id="Icon-/-Directorio" stroke="none" stroke-width="1" fill="none" fill-rule="evenodd">
        <g id="Group-4" transform="translate(6.000000, 3.000000)" fill-rule="nonzero">
            <g id="@-2" transform="translate(14.000000, 13.000000)" fill="#EA0074">
                <path d="M9.0935153,21.5932292 C9.86178056,21.5932292 10.6245582,21.5003037 11.3818483,21.3144526 C12.1391383,21.1286016 12.7409461,20.883961 13.1872716,20.5805308 L13.1872716,20.5805308 L12.7702133,18.8282211 C12.2873037,19.0633796 11.712934,19.251127 11.0471041,19.3914635 C10.3812742,19.5318 9.74471157,19.6019682 9.13741617,19.6019682 C6.83262039,19.6019682 5.10219434,18.8680464 3.94613804,17.4002026 C2.79008174,15.9323588 2.27058809,13.8557581 2.38765708,11.1704006 C2.46814202,9.40291943 2.8266658,7.8345644 3.46322845,6.46533546 C4.0997911,5.09610652 4.97049173,4.03979001 6.07533034,3.29638593 C7.18016896,2.55298186 8.43866063,2.18127982 9.85080535,2.18127982 C12.1117003,2.18127982 13.8183467,2.89244443 14.9707446,4.31477366 C16.1231425,5.7371029 16.6371485,7.77198192 16.5127627,10.4194107 C16.4688618,11.7393323 16.2200902,12.8070274 15.7664479,13.6224962 C15.3128055,14.4379649 14.749411,14.8456993 14.0762643,14.8456993 C13.6372556,14.8456993 13.317145,14.6863984 13.1159327,14.3677967 C12.9147204,14.0491949 12.8506983,13.5902567 12.9238664,12.990982 L12.9238664,12.990982 L13.4836025,6.41413161 L12.7921638,5.92485035 C12.0531658,5.42419047 11.1605147,5.17386052 10.1142106,5.17386052 C9.26546038,5.17386052 8.47524469,5.4355691 7.74356348,5.95898626 C7.01188228,6.48240341 6.40641609,7.23149681 5.9271649,8.20626644 C5.44791371,9.18103607 5.14243681,10.2942458 5.01073419,11.5458955 C4.86439795,13.0782182 5.08390231,14.3109035 5.66924728,15.2439515 C6.25459224,16.1769995 7.081392,16.6435234 8.14964655,16.6435234 C9.32765329,16.6435234 10.2824973,16.1125205 11.0141785,15.0505147 C11.2483164,15.5739319 11.5940358,15.9759769 12.0513366,16.2566499 C12.5086373,16.5373229 13.0519106,16.6776593 13.6811564,16.6776593 C15.1079348,16.6776593 16.2438699,16.1068312 17.0889616,14.9651749 C17.9340534,13.8235187 18.3968418,12.2817138 18.4773267,10.3397603 C18.5578117,8.32953497 18.2687976,6.56584673 17.6102845,5.04869555 C16.9517714,3.53154437 15.9603434,2.3652344 14.6360004,1.54976564 C13.3116574,0.73429688 11.731226,0.3265625 9.89470622,0.3265625 C8.08745365,0.3265625 6.46495058,0.779811415 5.02719702,1.68630925 C3.58944346,2.59280708 2.45350839,3.87669626 1.61939182,5.5379768 C0.785275251,7.19925735 0.324316093,9.07673193 0.236514349,11.1704006 C0.148712605,13.3550983 0.439555882,15.2344693 1.10904418,16.8085136 C1.77853248,18.382558 2.79374015,19.5735217 4.15466719,20.3814047 C5.51559422,21.1892877 7.16187693,21.5932292 9.0935153,21.5932292 Z M8.9069366,14.606748 C8.35085888,14.606748 7.94843422,14.3469358 7.69966261,13.8273116 C7.450891,13.3076873 7.36674766,12.5472153 7.4472326,11.5458955 C7.58625203,10.1197734 7.88807052,9.03501027 8.35268808,8.2916062 C8.81730565,7.54820212 9.47033112,7.17650008 10.3117645,7.17650008 C10.6117538,7.17650008 10.9044263,7.22580749 11.1897819,7.32442232 L11.1897819,7.32442232 L10.7288228,12.7065161 C10.5166352,13.3209624 10.2495716,13.7912792 9.92763187,14.1174667 C9.60569214,14.4436542 9.26546038,14.606748 8.9069366,14.606748 Z" id="@"></path>
            </g>
            <g id="icons8-address_book" fill="#444B54">
                <path d="M5.84769869,0 C3.96727968,0 2.41738511,1.51683436 2.41738511,3.35714286 L2.41738511,8.95238095 L1.27394725,8.95238095 C1.23821482,8.95238095 1.20248239,8.95238095 1.16674995,8.95238095 C0.536966104,8.98298019 0.045644577,9.50753376 0.0769107418,10.1238839 C0.108176907,10.7402341 0.644163404,11.2210754 1.27394725,11.1904762 L5.84769869,11.1904762 C6.25862167,11.1948472 6.6427459,10.9850258 6.85267309,10.6353234 C7.05813515,10.285621 7.05813515,9.85723614 6.85267309,9.50753376 C6.6427459,9.15783138 6.25862167,8.94800995 5.84769869,8.95238095 L4.70426083,8.95238095 L4.70426083,3.35714286 C4.70426083,2.73642169 5.21344858,2.23809524 5.84769869,2.23809524 L37.8639588,2.23809524 C38.49821,2.23809524 39.0073966,2.73642169 39.0073966,3.35714286 L39.0073966,43.6428571 C39.0073966,44.2635794 38.49821,44.7619048 37.8639588,44.7619048 L5.84769869,44.7619048 C5.21344858,44.7619048 4.70426083,44.2635794 4.70426083,43.6428571 L4.70426083,39.1666667 L2.41738511,39.1666667 L2.41738511,43.6428571 C2.41738511,45.4831656 3.96727968,47 5.84769869,47 L37.8639588,47 C39.7443778,47 41.2942724,45.4831656 41.2942724,43.6428571 L41.2942724,3.35714286 C41.2942724,1.51683436 39.7443778,0 37.8639588,0 L5.84769869,0 Z M2.41738511,12.3095238 L2.41738511,15.6666667 L1.27394725,15.6666667 C1.23821482,15.6666667 1.20248239,15.6666667 1.16674995,15.6666667 C1.13101752,15.6666667 1.09528509,15.6666667 1.05955265,15.6666667 C0.429768805,15.723493 -0.0347528259,16.2742748 0.0233120921,16.890625 C0.0813770101,17.5069752 0.644163404,17.9615883 1.27394725,17.9047619 L5.84769869,17.9047619 C6.25862167,17.9091329 6.6427459,17.6993115 6.85267309,17.3496091 C7.05813515,16.9999067 7.05813515,16.5715219 6.85267309,16.2218195 C6.6427459,15.8721171 6.25862167,15.6622957 5.84769869,15.6666667 L4.70426083,15.6666667 L4.70426083,12.3095238 L2.41738511,12.3095238 Z M2.41738511,19.0238095 L2.41738511,22.3809524 L1.27394725,22.3809524 C1.23821482,22.3809524 1.20248239,22.3809524 1.16674995,22.3809524 C0.536966104,22.4115516 0.045644577,22.9361052 0.0769107418,23.5524554 C0.108176907,24.1688055 0.644163404,24.6496469 1.27394725,24.6190476 L5.84769869,24.6190476 C6.25862167,24.6234186 6.6427459,24.4135972 6.85267309,24.0638948 C7.05813515,23.7141924 7.05813515,23.2858076 6.85267309,22.9361052 C6.6427459,22.5864028 6.25862167,22.3765814 5.84769869,22.3809524 L4.70426083,22.3809524 L4.70426083,19.0238095 L2.41738511,19.0238095 Z M2.41738511,25.7380952 L2.41738511,29.0952381 L1.27394725,29.0952381 C1.23821482,29.0952381 1.20248239,29.0952381 1.16674995,29.0952381 C0.536966104,29.1258373 0.045644577,29.6503909 0.0769107418,30.2667411 C0.108176907,30.8830912 0.644163404,31.3639326 1.27394725,31.3333333 L5.84769869,31.3333333 C6.25862167,31.3377043 6.6427459,31.1278829 6.85267309,30.7781805 C7.05813515,30.4284781 7.05813515,30.0000933 6.85267309,29.6503909 C6.6427459,29.3006885 6.25862167,29.0908671 5.84769869,29.0952381 L4.70426083,29.0952381 L4.70426083,25.7380952 L2.41738511,25.7380952 Z M2.41738511,32.452381 L2.41738511,35.8095238 L1.27394725,35.8095238 C1.23821482,35.8095238 1.20248239,35.8095238 1.16674995,35.8095238 C0.536966104,35.840123 0.045644577,36.3646766 0.0769107418,36.9810268 C0.108176907,37.597377 0.644163404,38.0782183 1.27394725,38.047619 L5.84769869,38.047619 C6.25862167,38.05199 6.6427459,37.8421686 6.85267309,37.4924662 C7.05813515,37.1427639 7.05813515,36.714379 6.85267309,36.3646766 C6.6427459,36.0149742 6.25862167,35.8051528 5.84769869,35.8095238 L4.70426083,35.8095238 L4.70426083,32.452381 L2.41738511,32.452381 Z" id="Shape"></path>
            </g>
        </g>
    </g>
</svg>