<?xml version="1.0" encoding="UTF-8"?>
<svg width="53px" height="53px" viewBox="0 0 53 53" version="1.1" xmlns="http://www.w3.org/2000/svg" xmlns:xlink="http://www.w3.org/1999/xlink">
    <!-- Generator: Sketch 63.1 (92452) - https://sketch.com -->
    <title>Icon / JOIN@2x</title>
    <desc>Created with Sketch.</desc>
    <g id="Icon-/-JOIN" stroke="none" stroke-width="1" fill="none" fill-rule="evenodd">
        <g id="Group" transform="translate(8.000000, 3.000000)" fill-rule="nonzero">
            <path d="M8,0 L8,8 L5,8 L5,15 L16,15 L16,12 L24,12 L24,20 L16,20 L16,17 L5,17 L5,27 L16,27 L16,24 L24,24 L24,27.558594 L22,29.558594 L22,26 L18,26 L18,30 L21.558594,30 L19.558594,32 L16,32 L16,29 L5,29 L5,38 L13.175781,38 L12.609375,40 L3,40 L3,8 L0,8 L0,0 L8,0 Z M22,14 L18,14 L18,18 L22,18 L22,14 Z M6,2 L2,2 L2,6 L6,6 L6,2 Z" id="Combined-Shape" fill="#333333"></path>
            <path d="M14.625,40.230469 L20.011719,45.53125 L14.257813,47.066406 C14.171875,47.089844 14.085938,47.097656 14,47.097656 C13.734375,47.097656 13.476563,46.996094 13.285156,46.800781 C13.035156,46.546875 12.9375,46.175781 13.035156,45.828125 L13.035156,45.828125 L14.625,40.230469 Z M29.691406,24.691406 L35.503906,30.511719 L21.613281,44.304688 L15.800781,38.582031 L29.691406,24.691406 Z M34.042969,22.015625 C35.105469,22.019531 36.15625,22.417969 36.902344,23.199219 C38.40625,24.777344 38.320313,27.25 36.902344,29 L36.902344,29 L31.097656,23.199219 C31.898438,22.398438 32.976563,22.007813 34.042969,22.015625 Z" id="Combined-Shape" fill="#EA0074"></path>
        </g>
    </g>
</svg>