<?xml version="1.0" encoding="UTF-8"?>
<svg width="53px" height="53px" viewBox="0 0 53 53" version="1.1" xmlns="http://www.w3.org/2000/svg" xmlns:xlink="http://www.w3.org/1999/xlink">
    <!-- Generator: Sketch 63.1 (92452) - https://sketch.com -->
    <title>Icon / PriceAfilliates CO</title>
    <desc>Created with Sketch.</desc>
    <g id="Icon-/-PriceAfilliates-CO" stroke="none" stroke-width="1" fill="none" fill-rule="evenodd">
        <g id="icons8-user_groups" transform="translate(5.000000, 11.000000)" fill-rule="nonzero">
            <path d="M22.2777778,9.32587341e-14 C26.5857904,9.32587341e-14 30.0796903,3.51707317 30.0796903,7.85365854 C30.0796903,12.1902439 26.5857904,15.7073171 22.2777778,15.7073171 C17.9697652,15.7073171 14.4758653,12.1902439 14.4758653,7.85365854 C14.4758653,3.51707317 17.9697652,9.32587341e-14 22.2777778,9.32587341e-14 Z M22.2777778,2.04878049 C19.0891701,2.04878049 16.5111468,4.64390244 16.5111468,7.85365854 C16.5111468,11.0634146 19.0891701,13.6585366 22.2777778,13.6585366 C25.4663855,13.6585366 28.0444088,11.0634146 28.0444088,7.85365854 C28.0444088,4.64390244 25.4663855,2.04878049 22.2777778,2.04878049 Z" id="Combined-Shape" fill="#444B54"></path>
            <path d="M12.2709769,3.44864698 C8.67531291,3.65352502 5.82591877,6.72682927 5.82591877,10.4146341 C5.82591877,14.2731707 8.94668378,17.4146341 12.7797973,17.4146341 C14.0348876,17.4146341 15.2561892,17.0730372 16.3077513,16.4242567 C16.7826503,16.151086 16.9522571,15.502439 16.6469649,15.0243902 C16.375594,14.5463415 15.7312205,14.3756098 15.2563215,14.6829268 C14.5100516,15.1268293 13.6279639,15.3658537 12.7460086,15.3658537 C10.0322999,15.3658537 7.82741158,13.1463415 7.82741158,10.4146341 C7.82741158,7.8195122 9.82877175,5.66815917 12.406795,5.49742746 C12.9834581,5.46328112 13.3901169,4.98549937 13.3561955,4.40501156 C13.3222741,3.82452376 12.84764,3.41450063 12.2709769,3.44864698 Z" id="Path" fill="#444B54"></path>
            <path d="M32.2507899,3.44864698 C31.7080482,3.41450063 31.1988303,3.82452376 31.1649089,4.40501156 C31.1309875,4.98549937 31.5383088,5.46328112 32.1149719,5.49742746 C34.6929951,5.66815917 36.6943553,7.8195122 36.6943553,10.4146341 C36.6943553,13.1463415 34.489467,15.3658537 31.7757583,15.3658537 C30.8938029,15.3658537 30.011715,15.1268293 29.2654451,14.6829268 C28.7905461,14.4097561 28.1461729,14.5463415 27.874802,15.0243902 C27.6034311,15.502439 27.7391166,16.151086 28.2140156,16.4242567 C29.2655777,17.0730372 30.5208006,17.4146341 31.7419695,17.4146341 C35.6090041,17.3804878 38.7296368,14.2731707 38.7296368,10.4146341 C38.7296368,6.76097561 35.880375,3.68767137 32.2507899,3.44864698 Z" id="Path" fill="#444B54"></path>
            <path d="M22.2777778,18.5757433 C16.714675,18.5757433 11.5588933,21.6146341 8.81126327,26.4634146 C8.5398924,26.9756098 8.70923427,27.5901107 9.21805465,27.8632815 C9.38766145,27.9657205 9.55726824,28 9.72687504,28 C10.0660886,28 10.4390909,27.8292683 10.6086977,27.4878049 C12.9831929,23.2536585 17.4608122,20.6245238 22.3115665,20.6245238 C27.1283995,20.6245238 31.6060188,23.2536585 34.0144353,27.4878049 C34.2858062,27.9658537 34.8962587,28.1364522 35.4050791,27.8632815 C35.8799781,27.5901107 36.0501141,26.9756098 35.7787432,26.4634146 C32.9971921,21.6146341 27.8408807,18.5757433 22.2777778,18.5757433 Z" id="Path" fill="#EA0074"></path>
            <path d="M9.32074614,19.9789445 C9.25277113,19.9825459 9.18386837,19.9925494 9.11602565,20.0096226 C5.65604705,20.9998665 2.6712324,23.3560976 0.907321742,26.4634146 C0.635950871,26.9756098 0.805425158,27.5901107 1.28032419,27.8632815 C1.44993099,27.9657205 1.61953778,28 1.78914457,28 C2.12835816,28 2.50136058,27.8292683 2.67096741,27.4878049 C4.16350726,24.8243902 6.70813903,22.8098896 9.65929725,21.9903774 C10.202039,21.853792 10.5071989,21.272904 10.3715135,20.7265626 C10.2527887,20.2485138 9.79657291,19.9537349 9.32074614,19.9789445 Z" id="Path" fill="#444B54"></path>
            <path d="M35.2348108,19.9789445 C34.7589824,19.9537346 34.3027669,20.2485138 34.1840421,20.7265626 C34.0483567,21.272904 34.3535166,21.853792 34.8962587,21.9903774 C37.8134956,22.8098896 40.3581266,24.8243902 41.8845878,27.4878049 C42.0881159,27.8292683 42.4271972,28 42.7664108,28 C42.9360176,28 43.1056244,27.9657205 43.2752312,27.8632815 C43.7501302,27.5901107 43.9196047,26.9756098 43.6482339,26.4634146 C41.8843232,23.3560976 38.8995082,20.9998665 35.4395296,20.0096226 C35.3716869,19.9925494 35.3027858,19.9825459 35.2348108,19.9789445 Z" id="Path" fill="#444B54"></path>
        </g>
        <path d="M45.7105981,7.04906378 C45.7506016,7.08899728 46.450664,7.94756748 46.4706658,7.98750097 C47.3507442,9.50497389 47.1307246,11.5016488 45.8306087,12.7994875 C44.2504679,14.3968274 41.7302433,14.3968274 40.1701043,12.8194542 C38.6099652,11.2620478 38.6099652,8.72627068 40.1701043,7.16886427 C41.6902398,5.65139136 44.1304572,5.61145786 45.7105981,7.04906378 Z M43.8430353,7 L43.3440748,7 L43.3440748,7.68769716 C42.9844075,7.72975815 42.6995842,7.86330179 42.489605,8.08832808 C42.2796258,8.31335436 42.1746362,8.60042061 42.1746362,8.94952681 C42.1746362,9.46477392 42.4168399,9.85383807 42.9012474,10.1167192 C43.0467775,10.1966351 43.2505198,10.2833859 43.512474,10.3769716 C43.7744283,10.4705573 43.9615385,10.5757098 44.0738046,10.692429 C44.1860707,10.8091483 44.2422037,10.9568875 44.2422037,11.1356467 C44.2422037,11.3270242 44.1803534,11.4805468 44.0566528,11.5962145 C43.9329522,11.7118822 43.7525988,11.7697161 43.5155925,11.7697161 C43.2744283,11.7697161 43.0878378,11.6971609 42.9558212,11.5520505 C42.8458073,11.4311251 42.7816326,11.2685769 42.763297,11.0644059 L42.7577963,10.9369085 L42,10.9369085 C42,11.3533123 42.1107069,11.6876972 42.3321206,11.9400631 C42.5219038,12.1563767 42.7815669,12.2969806 43.1111099,12.3618747 L43.2817048,12.3880126 L43.2817048,13 L43.7775468,13 L43.7775468,12.384858 C44.1621622,12.3449001 44.4620582,12.214511 44.6772349,11.9936909 C44.8924116,11.7728707 45,11.4847529 45,11.1293375 C45,10.9400631 44.9719335,10.7749737 44.9158004,10.6340694 C44.8596674,10.4931651 44.7796258,10.3685594 44.6756757,10.2602524 C44.5717256,10.1519453 44.4438669,10.0557308 44.2920998,9.97160883 C44.1403326,9.88748686 43.9313929,9.79600421 43.6652807,9.69716088 C43.3991684,9.59831756 43.210499,9.49369085 43.0992723,9.38328076 C42.9880457,9.27287066 42.9324324,9.12618297 42.9324324,8.94321767 C42.9324324,8.73922187 42.9885655,8.58254469 43.1008316,8.47318612 C43.2130977,8.36382755 43.3690229,8.30914826 43.5686071,8.30914826 C43.7702703,8.30914826 43.9298337,8.38538381 44.0472973,8.53785489 C44.1412682,8.65983176 44.1976507,8.81781283 44.2164449,9.01179811 L44.2234927,9.16403785 L44.9781705,9.16403785 C44.9781705,8.75184017 44.8794179,8.41692955 44.6819127,8.15930599 C44.5126225,7.9384858 44.2829989,7.79298912 43.9930417,7.72281594 L43.8430353,7.69400631 L43.8430353,7 Z" id="Combined-Shape" fill="#EA0074" fill-rule="nonzero"></path>
        <g id="icons8-colombia-2" transform="translate(37.000000, 40.000000)" fill-rule="nonzero">
            <g id="icons8-colombia">
                <polygon id="Path" fill="#FFEEA3" points="0.375 0.375 11.625 0.375 11.625 4.875 0.375 4.875"></polygon>
                <path d="M11.25,0.75 L11.25,4.5 L0.75,4.5 L0.75,0.75 L11.25,0.75 M12,0 L0,0 L0,5.25 L12,5.25 L12,0 L12,0 Z" id="Shape" fill="#F5C276"></path>
                <polygon id="Path" fill="#F78F8F" points="0.375 6.375 11.625 6.375 11.625 8.625 0.375 8.625"></polygon>
                <path d="M11.25,6.75 L11.25,8.25 L0.75,8.25 L0.75,6.75 L11.25,6.75 M12,6 L0,6 L0,9 L12,9 L12,6 L12,6 Z" id="Shape" fill="#C74343"></path>
                <g id="Group" transform="translate(0.000000, 4.500000)">
                    <polygon id="Path" fill="#8BB7F0" points="0.375 0.375 11.625 0.375 11.625 1.875 0.375 1.875"></polygon>
                    <path d="M11.25,0.75 L11.25,1.5 L0.75,1.5 L0.75,0.75 L11.25,0.75 M12,0 L0,0 L0,2.25 L12,2.25 L12,0 L12,0 Z" id="Shape" fill="#4E7AB5"></path>
                </g>
            </g>
        </g>
    </g>
</svg>