<?xml version="1.0" encoding="UTF-8"?>
<svg width="53px" height="53px" viewBox="0 0 53 53" version="1.1" xmlns="http://www.w3.org/2000/svg" xmlns:xlink="http://www.w3.org/1999/xlink">
    <!-- Generator: Sketch 63.1 (92452) - https://sketch.com -->
    <title>Icon / Travelinn CO</title>
    <desc>Created with Sketch.</desc>
    <g id="Icon-/-Travelinn-CO" stroke="none" stroke-width="1" fill="none" fill-rule="evenodd">
        <g id="Group" transform="translate(10.000000, 10.000000)">
            <path d="M0.443364741,3.49188325 L10.7711888,16.2457132 L0.443364741,29.4396839 C0.646660576,30.6394483 1.03822757,31.5110436 1.61806571,32.0544697 C2.19790386,32.5978959 3.07262793,32.9130726 4.24223792,33 L20.0632272,17.7563605 C20.3105494,17.4615458 20.4342105,17.1427014 20.4342105,16.7998275 C20.4342105,16.4569535 20.3105494,16.1075477 20.0632272,15.7516101 L3.70245084,0 C2.65508869,0 1.83422829,0.289635001 1.23986965,0.868905004 C0.645511003,1.44817501 0.380009367,2.32250109 0.443364741,3.49188325 Z" id="Path-2" fill="#143B66"></path>
            <path d="M13.4433647,3.49188325 L23.7711888,16.2457132 L13.4433647,29.4396839 C13.6466606,30.6394483 14.0382276,31.5110436 14.6180657,32.0544697 C15.1979039,32.5978959 16.0726279,32.9130726 17.2422379,33 L33.0632272,17.7563605 C33.3105494,17.4615458 33.4342105,17.1427014 33.4342105,16.7998275 C33.4342105,16.4569535 33.3105494,16.1075477 33.0632272,15.7516101 L16.7024508,0 C15.6550887,0 14.8342283,0.289635001 14.2398696,0.868905004 C13.645511,1.44817501 13.3800094,2.32250109 13.4433647,3.49188325 Z" id="Path-2-Copy" fill="#EA0074"></path>
        </g>
        <g id="icons8-colombia-2" transform="translate(37.000000, 40.000000)" fill-rule="nonzero">
            <g id="icons8-colombia">
                <polygon id="Path" fill="#FFEEA3" points="0.375 0.375 11.625 0.375 11.625 4.875 0.375 4.875"></polygon>
                <path d="M11.25,0.75 L11.25,4.5 L0.75,4.5 L0.75,0.75 L11.25,0.75 M12,0 L0,0 L0,5.25 L12,5.25 L12,0 L12,0 Z" id="Shape" fill="#F5C276"></path>
                <polygon id="Path" fill="#F78F8F" points="0.375 6.375 11.625 6.375 11.625 8.625 0.375 8.625"></polygon>
                <path d="M11.25,6.75 L11.25,8.25 L0.75,8.25 L0.75,6.75 L11.25,6.75 M12,6 L0,6 L0,9 L12,9 L12,6 L12,6 Z" id="Shape" fill="#C74343"></path>
                <g id="Group" transform="translate(0.000000, 4.500000)">
                    <polygon id="Path" fill="#8BB7F0" points="0.375 0.375 11.625 0.375 11.625 1.875 0.375 1.875"></polygon>
                    <path d="M11.25,0.75 L11.25,1.5 L0.75,1.5 L0.75,0.75 L11.25,0.75 M12,0 L0,0 L0,2.25 L12,2.25 L12,0 L12,0 Z" id="Shape" fill="#4E7AB5"></path>
                </g>
            </g>
        </g>
    </g>
</svg>