<?xml version="1.0" encoding="UTF-8"?>
<svg width="53px" height="53px" viewBox="0 0 53 53" version="1.1" xmlns="http://www.w3.org/2000/svg" xmlns:xlink="http://www.w3.org/1999/xlink">
    <!-- Generator: Sketch 63.1 (92452) - https://sketch.com -->
    <title>Icon / Extranet@2x</title>
    <desc>Created with Sketch.</desc>
    <g id="Icon-/-Extranet" stroke="none" stroke-width="1" fill="none" fill-rule="evenodd">
        <g id="icons8-downloads_folder" transform="translate(9.000000, 18.000000)" fill="#EA0074" fill-rule="nonzero">
            <path d="M1.53846154,0 C0.688461538,0 0,0.691590909 0,1.54545455 L0,3.86363636 L0,15.4545455 C0,16.3084091 0.688461538,17 1.53846154,17 L18.4615385,17 C19.3115385,17 20,16.3084091 20,15.4545455 L20,3.09090909 C20,2.23704545 19.3115385,1.54545455 18.4615385,1.54545455 L7.07632231,1.54545455 L6.60156231,0.750088759 C6.32387,0.284906941 5.82322115,0 5.28245192,0 L1.53846154,0 Z M10,4.63636364 C10.4253846,4.63636364 10.7692308,4.98254545 10.7692308,5.40909091 L10.7692308,11.2709521 L12.5330531,9.49911241 C12.8338223,9.19697605 13.3200238,9.19697605 13.6207931,9.49911241 C13.9215623,9.80124877 13.9215623,10.2896603 13.6207931,10.5917967 L10.54387,13.6827058 C10.39387,13.8333876 10.1969231,13.9090909 10,13.9090909 C9.80307692,13.9090909 9.60613,13.8333876 9.45613,13.6827058 L6.37920692,10.5917967 C6.07843746,10.2896603 6.07843754,9.80124877 6.37920692,9.49911241 C6.67997615,9.19697605 7.16617769,9.19697605 7.46694692,9.49911241 L9.23076923,11.2709521 L9.23076923,5.40909091 C9.23076923,4.98254545 9.57461538,4.63636364 10,4.63636364 Z" id="Shape"></path>
        </g>
        <g id="Group-Copy" transform="translate(4.000000, 6.000000)" fill="#444B54" fill-rule="nonzero">
            <path d="M3.91304348,0 C1.76163359,0 0,1.75790526 0,3.9047619 L0,37.0952381 C0,39.2420947 1.76163359,41 3.91304348,41 L41.0869565,41 C43.2383664,41 45,39.2420947 45,37.0952381 L45,3.9047619 C45,1.75790526 43.2383664,0 41.0869565,0 L3.91304348,0 Z M3.91304348,1.95238095 L41.0869565,1.95238095 C42.1798578,1.95238095 43.0434783,2.8141746 43.0434783,3.9047619 L43.0434783,6.83333333 L1.95652174,6.83333333 L1.95652174,3.9047619 C1.95652174,2.8141746 2.82014315,1.95238095 3.91304348,1.95238095 Z M1.95652174,8.78571429 L43.0434783,8.78571429 L43.0434783,32.2142857 L1.95652174,32.2142857 L1.95652174,8.78571429 Z M1.95652174,34.1666667 L43.0434783,34.1666667 L43.0434783,37.0952381 C43.0434783,38.1858264 42.1798578,39.047619 41.0869565,39.047619 L3.91304348,39.047619 C2.82014315,39.047619 1.95652174,38.1858264 1.95652174,37.0952381 L1.95652174,34.1666667 Z" id="Shape"></path>
        </g>
        <rect id="Rectangle-Copy" stroke="#444B54" stroke-width="2" fill="#FFFFFF" x="33" y="18" width="11" height="3"></rect>
        <rect id="Rectangle-Copy-2" stroke="#444B54" stroke-width="2" fill="#FFFFFF" x="33" y="25" width="11" height="3"></rect>
        <rect id="Rectangle-Copy-3" stroke="#444B54" stroke-width="2" fill="#FFFFFF" x="33" y="32" width="11" height="3"></rect>
    </g>
</svg>