<?xml version="1.0" encoding="UTF-8"?>
<svg width="53px" height="53px" viewBox="0 0 53 53" version="1.1" xmlns="http://www.w3.org/2000/svg" xmlns:xlink="http://www.w3.org/1999/xlink">
    <!-- Generator: Sketch 63.1 (92452) - https://sketch.com -->
    <title>Icon / Dashboard PriceRes</title>
    <desc>Created with Sketch.</desc>
    <g id="Icon-/-Dashboard-PriceRes" stroke="none" stroke-width="1" fill="none" fill-rule="evenodd">
        <g id="Group" transform="translate(4.000000, 6.000000)" fill="#444B54" fill-rule="nonzero">
            <path d="M3.91304348,0 C1.76163359,0 0,1.75790526 0,3.9047619 L0,37.0952381 C0,39.2420947 1.76163359,41 3.91304348,41 L41.0869565,41 C43.2383664,41 45,39.2420947 45,37.0952381 L45,3.9047619 C45,1.75790526 43.2383664,0 41.0869565,0 L3.91304348,0 Z M3.91304348,1.95238095 L41.0869565,1.95238095 C42.1798578,1.95238095 43.0434783,2.8141746 43.0434783,3.9047619 L43.0434783,6.83333333 L1.95652174,6.83333333 L1.95652174,3.9047619 C1.95652174,2.8141746 2.82014315,1.95238095 3.91304348,1.95238095 Z M1.95652174,8.78571429 L43.0434783,8.78571429 L43.0434783,32.2142857 L1.95652174,32.2142857 L1.95652174,8.78571429 Z M4.89130435,11.7142857 L4.89130435,18.547619 L21.5217391,18.547619 L21.5217391,11.7142857 L4.89130435,11.7142857 Z M4.89130435,21.4761905 L4.89130435,28.3095238 L21.5217391,28.3095238 L21.5217391,21.4761905 L4.89130435,21.4761905 Z M6.84782609,13.6666667 L19.5652174,13.6666667 L19.5652174,16.5952381 L6.84782609,16.5952381 L6.84782609,13.6666667 Z M6.84782609,23.4285714 L19.5652174,23.4285714 L19.5652174,26.3571429 L6.84782609,26.3571429 L6.84782609,23.4285714 Z M1.95652174,34.1666667 L43.0434783,34.1666667 L43.0434783,37.0952381 C43.0434783,38.1858264 42.1798578,39.047619 41.0869565,39.047619 L3.91304348,39.047619 C2.82014315,39.047619 1.95652174,38.1858264 1.95652174,37.0952381 L1.95652174,34.1666667 Z" id="Shape"></path>
        </g>
        <g id="Group-2" transform="translate(28.000000, 19.000000)">
            <g id="Group">
                <path d="M0.00418478364,1.58721966 L4.7254758,7.38441511 L0.00418478364,13.3816745 C0.0971200225,13.927022 0.276122075,14.3232016 0.541190942,14.5702135 C0.806259809,14.8172254 1.20613367,14.9604876 1.74081252,15 L8.97326475,8.07107295 C9.08632635,7.93706626 9.14285714,7.79213701 9.14285714,7.63628521 C9.14285714,7.48043341 9.08632635,7.32161259 8.97326475,7.15982277 L1.49405271,0 C1.01525859,0 0.640008121,0.131652273 0.368301312,0.39495682 C0.0965945035,0.658261367 -0.0247776728,1.05568231 0.00418478364,1.58721966 Z" id="Path-2" fill="#143B66"></path>
                <path d="M6.86132764,1.58721966 L11.5826187,7.38441511 L6.86132764,13.3816745 C6.95426288,13.927022 7.13326493,14.3232016 7.3983338,14.5702135 C7.66340267,14.8172254 8.06327653,14.9604876 8.59795538,15 L15.8304076,8.07107295 C15.9434692,7.93706626 16,7.79213701 16,7.63628521 C16,7.48043341 15.9434692,7.32161259 15.8304076,7.15982277 L8.35119557,0 C7.87240145,0 7.49715098,0.131652273 7.22544417,0.39495682 C6.95373736,0.658261367 6.83236518,1.05568231 6.86132764,1.58721966 Z" id="Path-2-Copy" fill="#EA0074"></path>
            </g>
        </g>
    </g>
</svg>