<?xml version="1.0" encoding="UTF-8"?>
<svg width="53px" height="53px" viewBox="0 0 53 53" version="1.1" xmlns="http://www.w3.org/2000/svg" xmlns:xlink="http://www.w3.org/1999/xlink">
    <!-- Generator: Sketch 63.1 (92452) - https://sketch.com -->
    <title>Icon / Case Management@1x</title>
    <desc>Created with Sketch.</desc>
    <defs>
        <polygon id="path-1" points="0.249316267 0.187924286 9.33051042 0.187924286 9.33051042 5.52334942 0.249316267 5.52334942"></polygon>
        <polygon id="path-3" points="0 0.27637625 5.29982019 0.27637625 5.29982019 9.08364252 0 9.08364252"></polygon>
    </defs>
    <g id="Icon-/-Case-Management" stroke="none" stroke-width="1" fill="none" fill-rule="evenodd">
        <path d="M40.1372549,15.0606061 C39.4820936,15.0606061 38.8889563,15.3261627 38.4596094,15.7555096 C38.0302625,16.1848565 37.7647059,16.7779938 37.7647059,17.4331551 L37.7649652,27.3989986 C37.27399,27.3159832 36.769497,27.2727273 36.254902,27.2727273 L17.745098,27.2727273 C17.2306525,27.2727273 16.7263032,27.3159581 16.2354627,27.3989263 L16.2352941,17.4331382 C16.2352941,16.7779938 15.9697375,16.1848565 15.5403906,15.7555096 C15.1110437,15.3261627 14.5179064,15.0606061 13.8627451,15.0606061 C13.2075838,15.0606061 12.6144465,15.3261627 12.1850996,15.7555096 C11.7557527,16.1848565 11.4901961,16.7779938 11.4901961,17.4331551 L11.4901712,29.8015511 C9.79745694,31.4379271 8.74509804,33.7324596 8.74509804,36.2727273 L8.74509804,47 L45.254902,47 L45.254902,36.2727273 C45.254902,33.7324596 44.2025431,31.4379271 42.5098288,29.8015511 L42.5098039,17.4331531 C42.5098039,16.7779938 42.2442473,16.1848565 41.8149004,15.7555096 C41.3855535,15.3261627 40.7924162,15.0606061 40.1372549,15.0606061 Z M44,6 L10,6 C8.8954305,6 7.8954305,6.44771525 7.17157288,7.17157288 C6.44572402,7.89742173 5.99753889,8.90093431 6.00001017,10.0091179 L6.05097174,12.9991202 C6.21480735,14.0593787 6.7622666,14.9932582 7.54805083,15.6530697 C8.3012769,16.2855426 9.27276986,16.6666667 10.3333333,16.6666667 C11.3818294,16.6666667 12.3439169,16.2945491 13.107266,15.6723668 C13.3130593,15.5046311 13.5042965,15.3186173 13.6786863,15.1168512 C13.8414323,15.3107547 14.0208192,15.4902561 14.2147175,15.6530697 C14.9679436,16.2855426 15.9394365,16.6666667 17,16.6666667 C18.048496,16.6666667 19.0105836,16.2945491 19.7739327,15.6723668 C19.9797259,15.5046311 20.1709632,15.3186173 20.3453529,15.1168512 C20.5080989,15.3107547 20.6874858,15.4902561 20.8813842,15.6530697 C21.6346102,16.2855426 22.6061032,16.6666667 23.6666667,16.6666667 C24.7151627,16.6666667 25.6772502,16.2945491 26.4405994,15.6723668 C26.6463926,15.5046311 26.8376298,15.3186173 27.0120196,15.1168512 C27.1747656,15.3107547 27.3541525,15.4902561 27.5480508,15.6530697 C28.3012769,16.2855426 29.2727699,16.6666667 30.3333333,16.6666667 C31.3818294,16.6666667 32.3439169,16.2945491 33.107266,15.6723668 C33.3130593,15.5046311 33.5042965,15.3186173 33.6786863,15.1168512 C33.8414323,15.3107547 34.0208192,15.4902561 34.2147175,15.6530697 C34.9679436,16.2855426 35.9394365,16.6666667 37,16.6666667 C38.048496,16.6666667 39.0105836,16.2945491 39.7739327,15.6723668 C39.9797259,15.5046311 40.1709632,15.3186173 40.3453529,15.1168512 C40.5080989,15.3107547 40.6874858,15.4902561 40.8813842,15.6530697 C41.6346102,16.2855426 42.6061032,16.6666667 43.6666667,16.6666667 C44.721209,16.6666667 45.68803,16.2900588 46.4464216,15.6626621 C47.2425199,15.0040717 47.8076371,14.0680724 48,13.004478 L48,10 C48,8.8954305 47.5522847,7.8954305 46.8284271,7.17157288 C46.1045695,6.44771525 45.1045695,6 44,6 Z" id="Combined-Shape" stroke="#454B54" stroke-width="2" stroke-linejoin="round"></path>
        <g id="Group-3" transform="translate(21.000000, 30.000000)">
            <g id="Group-2">
                <path d="M6.71389838,2.62536677 L3.51871515,0.218019415 C3.19348003,-0.0726731385 2.66593564,-0.0726731385 2.34070053,0.218019415 C2.01546541,0.508711966 2.01546541,0.97996219 2.34070053,1.27091949 L5.6155634,4.19823059 C6.2204178,4.73831508 7.2044169,4.73831508 7.80956749,4.19796581 L11.0785062,1.27594969 C11.2411238,1.13060342 11.3225806,0.940250097 11.3225806,0.749632026 C11.3225806,0.559013956 11.2411238,0.368660638 11.0785062,0.223314362 C10.7532711,-0.0673781923 10.2260229,-0.0673781923 9.90078781,0.223314362 L6.71389838,2.62536677 Z" id="Fill-1" fill="#4FC3F4" fill-rule="nonzero"></path>
                <path d="M10.2392857,2.33650362 C10.2634885,2.31232488 10.2872258,2.28861111 10.3091014,2.26675725 L10.2392857,2.33650362 Z" id="Fill-3" fill="#4E67F1" fill-rule="nonzero"></path>
                <path d="M10.3139885,1.84339674 L10.3530852,1.80433877 C10.3023525,1.85502114 10.2497581,1.9075634 10.1953019,1.96196558 L10.3139885,1.84339674 Z" id="Fill-5" fill="#4E67F1" fill-rule="nonzero"></path>
                <path d="M10.3577396,2.21816727 L10.1906475,2.3850936 C10.2567396,2.31906703 10.3135231,2.26233998 10.3577396,2.21816727" id="Fill-7" fill="#4E67F1" fill-rule="nonzero"></path>
                <path d="M10.2392857,1.91802536 C10.2634885,1.89384662 10.2872258,1.87013285 10.3091014,1.84827899 L10.2392857,1.91802536 Z" id="Fill-9" fill="#4E67F1" fill-rule="nonzero"></path>
                <path d="M10.7333433,1.84339674 L10.7724401,1.80433877 C10.7217074,1.85502114 10.6691129,1.9075634 10.6146567,1.96196558 L10.7333433,1.84339674 Z" id="Fill-11" fill="#4E67F1" fill-rule="nonzero"></path>
                <path d="M10.7770945,1.79968901 L10.6100023,1.96661534 C10.6760945,1.90058877 10.7328779,1.84386172 10.7770945,1.79968901" id="Fill-13" fill="#4E67F1" fill-rule="nonzero"></path>
                <g id="Group-17" transform="translate(1.258065, 7.532609)">
                    <g id="Fill-15-Clipped">
                        <g>
                            <mask id="mask-2" fill="white">
                                <use xlink:href="#path-1"></use>
                            </mask>
                            <g id="path-1"></g>
                            <path d="M4.78575857,2.48038281 L7.93085804,5.27059486 C8.25099515,5.60751917 8.77027044,5.60782599 9.09040759,5.27059486 C9.4105447,4.93397737 9.4105447,4.38747262 9.09040759,4.05024146 L5.86687737,0.65737064 C5.27150396,0.031391036 4.30292878,0.031391036 3.70726379,0.657677494 L0.489564898,4.04441126 C0.329496332,4.21287341 0.249316267,4.43350053 0.249316267,4.6544345 C0.249316267,4.87536849 0.329496332,5.09599561 0.489564898,5.26476461 C0.809702027,5.60138209 1.32868572,5.60138209 1.64882286,5.26476461 L4.78575857,2.48038281 Z" id="Fill-15" fill="#FCB000" fill-rule="nonzero" mask="url(#mask-2)"></path>
                        </g>
                    </g>
                </g>
                <path d="M10.1250658,6.6933618 L12.7603222,3.51313646 C13.0785397,3.18946821 13.0799835,2.66332255 12.7640761,2.33758518 C12.44788,2.0121434 11.9338809,2.01036988 11.6156634,2.33403813 L8.41298651,5.59200301 C7.82188747,6.19381902 7.8189998,7.17546496 8.40634495,7.78112365 L11.5836106,11.0535722 C11.7418531,11.2161454 11.9491853,11.2980231 12.1570951,11.298913 C12.3650049,11.299501 12.5729146,11.2188057 12.7320234,11.0571193 C13.0499521,10.7334511 13.0516846,10.2073054 12.7357773,9.88156804 L10.1250658,6.6933618 Z" id="Fill-18" fill="#5C469C" fill-rule="nonzero"></path>
                <g id="Group-22" transform="translate(0.000000, 1.255435)">
                    <g id="Fill-20-Clipped">
                        <g>
                            <mask id="mask-4" fill="white">
                                <use xlink:href="#path-3"></use>
                            </mask>
                            <g id="path-3"></g>
                            <path d="M3.02780396,4.68221788 L0.252446246,7.72453976 C-0.0826889946,8.03417283 -0.0845136873,8.53750332 0.248492745,8.84883306 C0.581499178,9.16044556 1.1228247,9.16214214 1.45795995,8.85250907 L4.83090456,5.73581872 C5.45342893,5.1600991 5.45647006,4.22073734 4.83789921,3.64134172 L1.49171676,0.511078403 C1.32506148,0.355272162 1.10670658,0.276944886 0.887743449,0.276376251 C0.668780314,0.275813806 0.44981718,0.352727232 0.282249562,0.507685163 C-0.0525815635,0.817035485 -0.0544062567,1.32064876 0.278296061,1.63197847 L3.02780396,4.68221788 Z" id="Fill-20" fill="#EA0074" fill-rule="nonzero" mask="url(#mask-4)"></path>
                        </g>
                    </g>
                </g>
            </g>
        </g>
        <g id="icons8-mexico-2" transform="translate(37.000000, 40.000000)" fill-rule="nonzero">
            <g id="icons8-mexico">
                <polygon id="Path" fill="#F2FAFF" points="3.375 0.375 8.625 0.375 8.625 8.625 3.375 8.625"></polygon>
                <path d="M8.25,0.75 L8.25,8.25 L3.75,8.25 L3.75,0.75 L8.25,0.75 M9,0 L3,0 L3,9 L9,9 L9,0 L9,0 Z" id="Shape" fill="#A3B7CC"></path>
                <polygon id="Path" fill="#5E9C76" points="3.75 0 0 0 0 9 3.75 9"></polygon>
                <polygon id="Path" fill="#C74343" points="12 0 8.25 0 8.25 9 12 9"></polygon>
                <path d="M6,3.75 C5.58578644,3.75 5.25,4.08578644 5.25,4.5 C5.25,4.91421356 5.58578644,5.25 6,5.25 C6.41421356,5.25 6.75,4.91421356 6.75,4.5 C6.75,4.08578644 6.41421356,3.75 6,3.75 Z" id="Path" fill="#704E34"></path>
                <path d="M6,5.25 C5.586,5.25 5.25,4.914 5.25,4.5 L4.5,4.5 C4.5,5.32725 5.17275,6 6,6 C6.82725,6 7.5,5.32725 7.5,4.5 L6.75,4.5 C6.75,4.914 6.414,5.25 6,5.25 Z" id="Path" fill="#5E9C76"></path>
            </g>
        </g>
    </g>
</svg>