<?xml version="1.0" encoding="UTF-8"?>
<svg width="53px" height="53px" viewBox="0 0 53 53" version="1.1" xmlns="http://www.w3.org/2000/svg" xmlns:xlink="http://www.w3.org/1999/xlink">
    <!-- Generator: Sketch 63.1 (92452) - https://sketch.com -->
    <title>Icon / Careers PriceTravel</title>
    <desc>Created with Sketch.</desc>
    <defs>
        <polygon id="path-1" points="0.287672616 0.224532913 10.7659736 0.224532913 10.7659736 6.59932658 0.287672616 6.59932658"></polygon>
        <polygon id="path-3" points="0 0.33021578 6.11517714 0.33021578 6.11517714 10.8531833 0 10.8531833"></polygon>
    </defs>
    <g id="Icon-/-Careers-PriceTravel" stroke="none" stroke-width="1" fill="none" fill-rule="evenodd">
        <g id="icons8-new_job" transform="translate(5.000000, 5.000000)" fill="#444B54" fill-rule="nonzero">
            <path d="M17.4166667,0 C15.9091799,0 14.6666667,1.25628834 14.6666667,2.7804878 L14.6666667,4.63414634 L2.67480492,4.63414634 C1.21744792,4.63414634 0,5.83612805 0,7.3132622 L0,35.3208841 C0,36.7980183 1.21744792,38 2.67480492,38 L23.8333333,38 L23.8333333,36.1463415 L2.67480492,36.1463415 C2.19498675,36.1463415 1.83333333,35.7806786 1.83333333,35.3208841 L1.83333333,23.9418824 C2.09830775,24.036014 2.37760417,24.097561 2.67480492,24.097561 L41.3251951,24.097561 C41.6223958,24.097561 41.9016932,24.036014 42.1666667,23.9418824 L42.1666667,28.7317073 L44,28.7317073 L44,7.3132622 C44,5.83612805 42.7825521,4.63414634 41.3251951,4.63414634 L29.3333333,4.63414634 L29.3333333,2.7804878 C29.3333333,1.25628834 28.0908201,0 26.5833333,0 L17.4166667,0 Z M17.4166667,1.85365854 L26.5833333,1.85365854 C27.0989583,1.85365854 27.5,2.25914634 27.5,2.7804878 L27.5,4.63414634 L16.5,4.63414634 L16.5,2.7804878 C16.5,2.25914634 16.9010417,1.85365854 17.4166667,1.85365854 Z M2.67480492,6.48780488 L15.4293618,6.48780488 C15.5296222,6.50590678 15.6298826,6.50590678 15.7265625,6.48780488 L28.2626951,6.48780488 C28.3629555,6.50590678 28.4632159,6.50590678 28.5598958,6.48780488 L41.3251951,6.48780488 C41.8050133,6.48780488 42.1666667,6.85346776 42.1666667,7.3132622 L42.1666667,21.3170732 C42.1666667,21.8601377 41.7763674,22.2439024 41.3251951,22.2439024 L2.67480492,22.2439024 C2.22363258,22.2439024 1.83333333,21.8601377 1.83333333,21.3170732 L1.83333333,7.3132622 C1.83333333,6.85346776 2.19498675,6.48780488 2.67480492,6.48780488 Z M22,16.6829268 C20.9866534,16.6829268 20.1666667,17.5120043 20.1666667,18.5365854 C20.1666667,19.5611664 20.9866534,20.3902439 22,20.3902439 C23.0133466,20.3902439 23.8333333,19.5611664 23.8333333,18.5365854 C23.8333333,17.5120043 23.0133466,16.6829268 22,16.6829268 Z" id="Shape"></path>
        </g>
        <path d="M45,25 L40,22.6315789 L35,25 L35,11.5789474 C35,10.7105263 35.6923077,10 36.5384615,10 L43.4615385,10 C44.3076923,10 45,10.7105263 45,11.5789474 L45,25 Z" id="Path" fill="#EA0074" fill-rule="nonzero"></path>
        <g id="Group-3" transform="translate(31.000000, 33.000000)">
            <g id="Group-2">
                <path d="M7.74680582,3.13680185 L4.06005594,0.26049073 C3.68478466,-0.0868302434 3.07607959,-0.0868302434 2.7008083,0.26049073 C2.32553702,0.6078117 2.32553702,1.17086392 2.7008083,1.51850121 L6.47949624,5.01606771 C7.17740515,5.66136348 8.31278873,5.66136348 9.01103941,5.01575136 L12.7828918,1.52451132 C12.9705274,1.35085084 13.0645161,1.1234157 13.0645161,0.895664239 C13.0645161,0.667912778 12.9705274,0.440477646 12.7828918,0.266817159 C12.4076205,-0.0805038142 11.7992572,-0.0805038142 11.4239859,0.266817159 L7.74680582,3.13680185 Z" id="Fill-1" fill="#4FC3F4" fill-rule="nonzero"></path>
                <path d="M11.8145604,2.79166667 C11.8424867,2.76277778 11.8698759,2.73444444 11.895117,2.70833333 L11.8145604,2.79166667 Z" id="Fill-3" fill="#4E67F1" fill-rule="nonzero"></path>
                <path d="M11.900756,2.2025 L11.9458676,2.15583333 C11.8873298,2.21638889 11.8266439,2.27916666 11.7638098,2.34416666 L11.900756,2.2025 Z" id="Fill-5" fill="#4E67F1" fill-rule="nonzero"></path>
                <path d="M11.951238,2.65027778 L11.7584394,2.84972222 C11.8346996,2.77083333 11.9002189,2.70305556 11.951238,2.65027778" id="Fill-7" fill="#4E67F1" fill-rule="nonzero"></path>
                <path d="M11.8145604,2.29166667 C11.8424867,2.26277777 11.8698759,2.23444445 11.895117,2.20833333 L11.8145604,2.29166667 Z" id="Fill-9" fill="#4E67F1" fill-rule="nonzero"></path>
                <path d="M12.3846269,2.2025 L12.4297386,2.15583333 C12.3712008,2.21638889 12.3105149,2.27916666 12.2476808,2.34416666 L12.3846269,2.2025 Z" id="Fill-11" fill="#4E67F1" fill-rule="nonzero"></path>
                <path d="M12.435109,2.15027778 L12.2423104,2.34972222 C12.3185706,2.27083334 12.3840899,2.20305556 12.435109,2.15027778" id="Fill-13" fill="#4E67F1" fill-rule="nonzero"></path>
                <g id="Group-17" transform="translate(1.451613, 9.000000)">
                    <g id="Fill-15-Clipped">
                        <g>
                            <mask id="mask-2" fill="white">
                                <use xlink:href="#path-1"></use>
                            </mask>
                            <g id="path-1"></g>
                            <path d="M5.52202912,2.96357426 L9.15099004,6.29733411 C9.52037902,6.69989303 10.1195428,6.70025963 10.4889318,6.29733411 C10.8583208,5.8951418 10.8583208,5.24217508 10.4889318,4.83924953 L6.76947389,0.785429856 C6.08250457,0.0375061728 4.96491783,0.0375061728 4.27761207,0.785796486 L0.564882575,4.83228358 C0.380188075,5.03356304 0.287672616,5.29716947 0.287672616,5.56114252 C0.287672616,5.8251156 0.380188075,6.08872202 0.564882575,6.29036811 C0.934271569,6.69256042 1.53309891,6.69256042 1.90248791,6.29036811 L5.52202912,2.96357426 Z" id="Fill-15" fill="#FCB000" fill-rule="nonzero" mask="url(#mask-2)"></path>
                        </g>
                    </g>
                </g>
                <path d="M11.6827682,7.99726345 L14.7234487,4.1975137 C15.0906227,3.81079319 15.0922887,3.18215162 14.7277802,2.79295892 C14.3629385,2.40411939 13.7698625,2.40200037 13.4026885,2.78872089 L9.70729213,6.68135425 C9.02525477,7.40040714 9.02192285,8.57328281 9.69962879,9.29692696 L13.3657046,13.2068655 C13.548292,13.4011087 13.7875215,13.4989367 14.0274174,13.5 C14.2673133,13.5007025 14.5072092,13.4042873 14.6907962,13.2111036 C15.057637,12.8243831 15.0596361,12.1957415 14.6951277,11.8065488 L11.6827682,7.99726345 Z" id="Fill-18" fill="#5C469C" fill-rule="nonzero"></path>
                <g id="Group-22" transform="translate(0.000000, 1.500000)">
                    <g id="Fill-20-Clipped">
                        <g>
                            <mask id="mask-4" fill="white">
                                <use xlink:href="#path-3"></use>
                            </mask>
                            <g id="path-3"></g>
                            <path d="M3.49361996,5.59433825 L0.29128413,9.22932024 C-0.0954103783,9.59927144 -0.097515793,10.2006533 0.286722398,10.5726317 C0.67096059,10.9449479 1.29556696,10.946975 1.68226148,10.5770238 L5.57412065,6.853186 C6.292418,6.16531321 6.29592699,5.0429589 5.58219139,4.350694 L1.72121165,0.610639131 C1.5289171,0.424481024 1.27696913,0.330895189 1.02431936,0.33021578 C0.771669593,0.329543769 0.519019823,0.421440329 0.325672571,0.60658487 C-0.0606710348,0.976198242 -0.0627764501,1.577918 0.321110839,1.94989636 L3.49361996,5.59433825 Z" id="Fill-20" fill="#EA0074" fill-rule="nonzero" mask="url(#mask-4)"></path>
                        </g>
                    </g>
                </g>
            </g>
        </g>
    </g>
</svg>