<?xml version="1.0" encoding="UTF-8"?>
<svg width="53px" height="53px" viewBox="0 0 53 53" version="1.1" xmlns="http://www.w3.org/2000/svg" xmlns:xlink="http://www.w3.org/1999/xlink">
    <!-- Generator: Sketch 63.1 (92452) - https://sketch.com -->
    <title>Icon / PriceAfilliates CO@2x</title>
    <desc>Created with Sketch.</desc>
    <g id="Icon-/-PriceAfilliates-CO" stroke="none" stroke-width="1" fill="none" fill-rule="evenodd">
        <g id="icons8-user_groups" transform="translate(5.000000, 11.000000)" fill-rule="nonzero">
            <path d="M22.2777778,9.32587341e-14 C26.5857904,9.32587341e-14 30.0796903,3.51707317 30.0796903,7.85365854 C30.0796903,12.1902439 26.5857904,15.7073171 22.2777778,15.7073171 C17.9697652,15.7073171 14.4758653,12.1902439 14.4758653,7.85365854 C14.4758653,3.51707317 17.9697652,9.32587341e-14 22.2777778,9.32587341e-14 Z M22.2777778,2.04878049 C19.0891701,2.04878049 16.5111468,4.64390244 16.5111468,7.85365854 C16.5111468,11.0634146 19.0891701,13.6585366 22.2777778,13.6585366 C25.4663855,13.6585366 28.0444088,11.0634146 28.0444088,7.85365854 C28.0444088,4.64390244 25.4663855,2.04878049 22.2777778,2.04878049 Z" id="Combined-Shape" fill="#444B54"></path>
            <path d="M12.2709769,3.44864698 C8.67531291,3.65352502 5.82591877,6.72682927 5.82591877,10.4146341 C5.82591877,14.2731707 8.94668378,17.4146341 12.7797973,17.4146341 C14.0348876,17.4146341 15.2561892,17.0730372 16.3077513,16.4242567 C16.7826503,16.151086 16.9522571,15.502439 16.6469649,15.0243902 C16.375594,14.5463415 15.7312205,14.3756098 15.2563215,14.6829268 C14.5100516,15.1268293 13.6279639,15.3658537 12.7460086,15.3658537 C10.0322999,15.3658537 7.82741158,13.1463415 7.82741158,10.4146341 C7.82741158,7.8195122 9.82877175,5.66815917 12.406795,5.49742746 C12.9834581,5.46328112 13.3901169,4.98549937 13.3561955,4.40501156 C13.3222741,3.82452376 12.84764,3.41450063 12.2709769,3.44864698 Z" id="Path" fill="#444B54"></path>
            <path d="M32.2507899,3.44864698 C31.7080482,3.41450063 31.1988303,3.82452376 31.1649089,4.40501156 C31.1309875,4.98549937 31.5383088,5.46328112 32.1149719,5.49742746 C34.6929951,5.66815917 36.6943553,7.8195122 36.6943553,10.4146341 C36.6943553,13.1463415 34.489467,15.3658537 31.7757583,15.3658537 C30.8938029,15.3658537 30.011715,15.1268293 29.2654451,14.6829268 C28.7905461,14.4097561 28.1461729,14.5463415 27.874802,15.0243902 C27.6034311,15.502439 27.7391166,16.151086 28.2140156,16.4242567 C29.2655777,17.0730372 30.5208006,17.4146341 31.7419695,17.4146341 C35.6090041,17.3804878 38.7296368,14.2731707 38.7296368,10.4146341 C38.7296368,6.76097561 35.880375,3.68767137 32.2507899,3.44864698 Z" id="Path" fill="#444B54"></path>
            <path d="M22.2777778,18.5757433 C16.714675,18.5757433 11.5588933,21.6146341 8.81126327,26.4634146 C8.5398924,26.9756098 8.70923427,27.5901107 9.21805465,27.8632815 C9.38766145,27.9657205 9.55726824,28 9.72687504,28 C10.0660886,28 10.4390909,27.8292683 10.6086977,27.4878049 C12.9831929,23.2536585 17.4608122,20.6245238 22.3115665,20.6245238 C27.1283995,20.6245238 31.6060188,23.2536585 34.0144353,27.4878049 C34.2858062,27.9658537 34.8962587,28.1364522 35.4050791,27.8632815 C35.8799781,27.5901107 36.0501141,26.9756098 35.7787432,26.4634146 C32.9971921,21.6146341 27.8408807,18.5757433 22.2777778,18.5757433 Z" id="Path" fill="#EA0074"></path>
            <path d="M9.32074614,19.9789445 C9.25277113,19.9825459 9.18386837,19.9925494 9.11602565,20.0096226 C5.65604705,20.9998665 2.6712324,23.3560976 0.907321742,26.4634146 C0.635950871,26.9756098 0.805425158,27.5901107 1.28032419,27.8632815 C1.44993099,27.9657205 1.61953778,28 1.78914457,28 C2.12835816,28 2.50136058,27.8292683 2.67096741,27.4878049 C4.16350726,24.8243902 6.70813903,22.8098896 9.65929725,21.9903774 C10.202039,21.853792 10.5071989,21.272904 10.3715135,20.7265626 C10.2527887,20.2485138 9.79657291,19.9537349 9.32074614,19.9789445 Z" id="Path" fill="#444B54"></path>
            <path d="M35.2348108,19.9789445 C34.7589824,19.9537346 34.3027669,20.2485138 34.1840421,20.7265626 C34.0483567,21.272904 34.3535166,21.853792 34.8962587,21.9903774 C37.8134956,22.8098896 40.3581266,24.8243902 41.8845878,27.4878049 C42.0881159,27.8292683 42.4271972,28 42.7664108,28 C42.9360176,28 43.1056244,27.9657205 43.2752312,27.8632815 C43.7501302,27.5901107 43.9196047,26.9756098 43.6482339,26.4634146 C41.8843232,23.3560976 38.8995082,20.9998665 35.4395296,20.0096226 C35.3716869,19.9925494 35.3027858,19.9825459 35.2348108,19.9789445 Z" id="Path" fill="#444B54"></path>
        </g>
        <g id="icons8-colombia-2" transform="translate(37.000000, 40.000000)" fill-rule="nonzero">
            <g id="icons8-colombia">
                <polygon id="Shape" fill="#F5C276" points="12 0 0 0 0 5.25 12 5.25"></polygon>
                <polygon id="Shape" fill="#C74343" points="12 6 0 6 0 9 12 9"></polygon>
                <g id="Group" transform="translate(0.000000, 4.500000)" fill="#4E7AB5">
                    <polygon id="Shape" points="12 0 0 0 0 2.25 12 2.25"></polygon>
                </g>
            </g>
        </g>
        <path d="M43.5550936,15 L43.5550936,13.7697161 C44.3243243,13.6898002 44.9241164,13.4290221 45.3544699,12.9873817 C45.7848233,12.5457413 46,11.9695058 46,11.2586751 C46,10.8801262 45.9438669,10.5499474 45.8316008,10.2681388 C45.7193347,9.98633018 45.5592516,9.73711882 45.3513514,9.52050473 C45.1434511,9.30389064 44.8877339,9.11146162 44.5841996,8.94321767 C44.2806653,8.77497371 43.8627859,8.59200841 43.3305613,8.39432177 C42.7983368,8.19663512 42.4209979,7.9873817 42.1985447,7.76656151 C41.9760915,7.54574132 41.8648649,7.25236593 41.8648649,6.88643533 C41.8648649,6.47844374 41.977131,6.16508938 42.2016632,5.94637224 C42.4261954,5.7276551 42.7380457,5.61829653 43.1372141,5.61829653 C43.5405405,5.61829653 43.8596674,5.77076761 44.0945946,6.07570978 C44.3295218,6.38065195 44.4469854,6.79810726 44.4469854,7.32807571 L45.956341,7.32807571 C45.956341,6.50368034 45.7588358,5.8338591 45.3638254,5.31861199 C44.968815,4.80336488 44.4095634,4.49316509 43.6860707,4.38801262 L43.6860707,3 L42.6881497,3 L42.6881497,4.37539432 C41.968815,4.4595163 41.3991684,4.72660358 40.97921,5.17665615 C40.5592516,5.62670873 40.3492723,6.20084122 40.3492723,6.89905363 C40.3492723,7.92954784 40.8336798,8.70767613 41.8024948,9.23343849 C42.0935551,9.39327024 42.5010395,9.56677182 43.024948,9.75394322 C43.5488565,9.94111462 43.9230769,10.1514196 44.1476091,10.384858 C44.3721414,10.6182965 44.4844075,10.913775 44.4844075,11.2712934 C44.4844075,11.6540484 44.3607069,11.9610936 44.1133056,12.192429 C43.8659044,12.4237645 43.5051975,12.5394322 43.031185,12.5394322 C42.5488565,12.5394322 42.1756757,12.3943218 41.9116424,12.1041009 C41.6476091,11.8138801 41.5155925,11.4037855 41.5155925,10.873817 L40,10.873817 C40,11.7066246 40.2214137,12.3753943 40.6642412,12.8801262 C41.1070686,13.384858 41.7401247,13.6834911 42.5634096,13.7760252 L42.5634096,15 L43.5550936,15 Z" id="Combined-Shape" fill="#EA0074" fill-rule="nonzero"></path>
    </g>
</svg>