<?xml version="1.0" encoding="UTF-8"?>
<svg width="53px" height="53px" viewBox="0 0 53 53" version="1.1" xmlns="http://www.w3.org/2000/svg" xmlns:xlink="http://www.w3.org/1999/xlink">
    <!-- Generator: Sketch 63.1 (92452) - https://sketch.com -->
    <title>Icon / PDA access</title>
    <desc>Created with Sketch.</desc>
    <g id="Icon-/-PDA-access" stroke="none" stroke-width="1" fill="none" fill-rule="evenodd">
        <g id="icon-access" transform="translate(8.000000, 3.000000)" fill-rule="nonzero">
            <path d="M32.3218391,0 C35.3935311,0 37.8818398,2.45347511 37.9959138,5.54245339 L38,5.76415094 L38,41.2358491 C38,44.3540588 35.583126,46.8800504 32.5402293,46.995852 L32.3218391,47 L5.67816092,47 C2.60646886,47 0.118160174,44.5465249 0.00408615796,41.4575466 L0,41.2358491 L0,17 L2.62,17 L2.62068966,41.2358491 C2.62068966,42.9033356 3.87972379,44.2409896 5.49703145,44.3344094 L5.67816092,44.3396226 L32.3218391,44.3396226 C33.9644499,44.3396226 35.2821487,43.0615217 35.3741749,41.4197215 L35.3793103,41.2358491 L35.3793103,5.76415094 C35.3793103,4.09666442 34.1202762,2.7590104 32.5029685,2.66559058 L32.3218391,2.66037736 L5.67816092,2.66037736 C4.03555008,2.66037736 2.71785128,3.93847829 2.6258251,5.58027845 L2.62068966,5.76415094 L2.62,14 L0,14 L0,5.76415094 C0,2.6459412 2.41687399,0.11994959 5.45977066,0.0041480387 L5.67816092,0 L32.3218391,0 Z M32.3218391,5.76415094 L32.3218391,12.4150943 L5.67816092,12.4150943 L5.67816092,5.76415094 L32.3218391,5.76415094 Z" id="Combined-Shape" fill="#444B54"></path>
            <path d="M27.8,21 C26.568,21 25.6,21.9533333 25.6,23.1666667 C25.6,23.7733333 25.864,24.2933333 26.26,24.6833333 L22.783828,29.8401694 C22.519828,29.7101694 22.2116564,29.6666667 21.9476564,29.6666667 C21.5076564,29.6666667 21.068172,29.7970051 20.716172,30.0136718 L17.9,27.2401694 C18.12,26.8935028 18.2523436,26.5031639 18.2523436,26.0264972 C18.2523436,24.8131639 17.2843436,23.8598306 16.0523436,23.8598306 C14.8203436,23.8598306 13.8523436,24.8131639 13.8523436,26.0264972 C13.8523436,26.4598306 13.983828,26.8935028 14.203828,27.2401694 L11.3876564,30.0136718 C11.0796564,29.7970051 10.64,29.6666667 10.2,29.6666667 C8.968,29.6666667 8,30.62 8,31.8333333 C8,33.0466667 8.968,34 10.2,34 C11.432,34 12.4,33.0466667 12.4,31.8333333 C12.4,31.4 12.2676564,30.9663282 12.0476564,30.6196616 L14.863828,27.8470051 C15.215828,28.0636718 15.612172,28.1931639 16.096172,28.1931639 C16.580172,28.1931639 16.9756564,28.0636718 17.3276564,27.8470051 L20.143828,30.6196616 C19.879828,30.9663282 19.7476564,31.4 19.7476564,31.8333333 C19.7476564,33.0466667 20.7156564,34 21.9476564,34 C23.1796564,34 24.1476564,33.0466667 24.1476564,31.8333333 C24.1476564,31.2266667 23.8836564,30.7066667 23.4876564,30.3166667 L26.963828,25.1598306 C27.227828,25.2464972 27.492,25.3333333 27.8,25.3333333 C29.032,25.3333333 30,24.38 30,23.1666667 C30,21.9533333 29.032,21 27.8,21 Z" id="Path" fill="#EA0074"></path>
        </g>
    </g>
</svg>