<?xml version="1.0" encoding="UTF-8"?>
<svg width="53px" height="53px" viewBox="0 0 53 53" version="1.1" xmlns="http://www.w3.org/2000/svg" xmlns:xlink="http://www.w3.org/1999/xlink">
    <!-- Generator: Sketch 63.1 (92452) - https://sketch.com -->
    <title>Icon / Stock</title>
    <desc>Created with Sketch.</desc>
    <g id="Icon-/-Stock" stroke="none" stroke-width="1" fill="none" fill-rule="evenodd">
        <path d="M14.5613641,7.00006715 C15.1745906,6.99427654 15.7352552,7.36341663 15.9630256,7.93763263 L15.9630256,7.93763263 L28.250925,39.0625242 L43.7626459,33.1094199 C44.2707485,32.8164529 44.9073361,32.8516083 45.3803965,33.1973106 C45.8534584,33.5430129 46.0870686,34.1348073 45.9702635,34.7090233 C45.8534584,35.2890998 45.4095989,35.7461302 44.837253,35.8750353 L44.837253,35.8750353 L27.9238706,42.3906376 C27.4216093,42.5898564 26.8492634,42.5019657 26.428765,42.1562634 C26.1017106,44.3125059 24.2678709,46 22.0368922,46 C19.5781446,46 17.5515753,43.9668036 17.5515753,41.5000157 C17.5515753,39.0332278 19.5781446,37.0000314 22.0368922,37.0000314 C22.9362924,37.0000314 23.8064903,37.2344055 24.5131609,37.7031539 L24.5131609,37.7031539 L13.580201,10.14075 C10.8060788,10.5216076 9.88915897,12.2032428 9.88915897,12.2032428 C9.67890974,12.7423034 9.18248832,13.1173021 8.60430257,13.1583179 C8.02611681,13.1993338 7.47713346,12.9063653 7.19096053,12.4024616 C6.91062747,11.8926973 6.93982943,11.271605 7.27272412,10.7969977 C7.27272412,10.7969977 9.5329037,7.00006715 14.5613641,7.00006715 Z M22.0368922,40.0000209 C21.1958953,40.0000209 20.5417866,40.6562686 20.5417866,41.5000209 C20.5417866,42.3437627 21.1958953,43.0000105 22.0368922,43.0000105 C22.8778891,43.0000105 23.5319978,42.3437627 23.5319978,41.5000209 C23.5319978,40.6562686 22.8778891,40.0000209 22.0368922,40.0000209 Z" id="Combined-Shape" fill="#444B54" fill-rule="nonzero"></path>
        <path d="M34.2780695,8.54700551 C34.7628112,8.56458395 35.2183504,8.86341141 35.3993988,9.34387773 L35.3993988,9.34387773 L38.2961659,16.9844761 C38.5414574,17.6231454 38.2319227,18.3790032 37.5953351,18.6250954 L37.5953351,18.6250954 L26.0549886,23.03133 C25.4125611,23.2774237 24.6650083,22.9668768 24.4197168,22.3282075 L24.4197168,22.3282075 L21.5229496,14.6876091 C21.2776596,14.0489398 21.628075,13.2930835 22.2705025,13.0469898 L22.2705025,13.0469898 L33.810849,8.64075518 C33.9685363,8.58216239 34.1145424,8.54114653 34.2780695,8.54700551 Z M31.054248,12.437617 C30.9199218,12.431758 30.7680758,12.4786328 30.6337496,12.5313666 L30.6337496,12.5313666 L27.316484,13.7969872 C26.7791804,14.002065 26.5046879,14.570422 26.7090973,15.1094826 C26.9135066,15.6485433 27.4800111,15.9239333 28.0173147,15.7188555 L28.0173147,15.7188555 L31.3813024,14.4532349 C31.918606,14.2481571 32.1463763,13.6798001 31.941967,13.1407395 C31.7901211,12.7364444 31.4572253,12.4493364 31.054248,12.437617 Z" id="Combined-Shape" fill="#EA0074" fill-rule="nonzero"></path>
        <path d="M38.8304582,20.8248255 L38.9502746,20.8282127 C39.4350163,20.8457912 39.8905555,21.1446186 40.0716038,21.6250849 L40.0716038,21.6250849 L42.968371,29.2656833 C43.2136625,29.9043526 42.9041278,30.6133356 42.2675402,30.8594278 L42.2675402,30.8594278 L30.6804716,35.3125372 C30.0380442,35.5586309 29.3372134,35.2012091 29.0919219,34.5625399 L29.0919219,34.5625399 L26.1951547,26.9219415 C25.9498647,26.2832722 26.2593979,25.5742907 26.8959855,25.328197 L26.8959855,25.328197 L38.4830541,20.8750876 C38.6407414,20.8164948 38.7867474,20.8223537 38.9502746,20.8282127 Z M35.6797311,24.7188242 C35.5454048,24.7129652 35.3935589,24.7129652 35.2592326,24.765699 L35.2592326,24.765699 L31.941967,26.0313196 C31.4046634,26.2363974 31.130171,26.8516292 31.3345803,27.3906898 C31.5389897,27.9297505 32.1522162,28.1582657 32.6895198,27.9531879 L32.6895198,27.9531879 L36.0067854,26.7344421 C36.544089,26.5293643 36.8185814,25.9082735 36.6141721,25.3750719 C36.4623262,24.9707768 36.0827084,24.7305436 35.6797311,24.7188242 Z" id="Combined-Shape" fill="#EA0074" fill-rule="nonzero"></path>
    </g>
</svg>