<?xml version="1.0" encoding="UTF-8"?>
<svg width="53px" height="53px" viewBox="0 0 53 53" version="1.1" xmlns="http://www.w3.org/2000/svg" xmlns:xlink="http://www.w3.org/1999/xlink">
    <!-- Generator: Sketch 63.1 (92452) - https://sketch.com -->
    <title>Icon / SI</title>
    <desc>Created with Sketch.</desc>
    <g id="Icon-/-SI" stroke="none" stroke-width="1" fill="none" fill-rule="evenodd">
        <g id="icon-si" transform="translate(8.000000, 6.000000)">
            <path d="M13,36 C13.5522847,36 14,36.4477153 14,37 L14,40 C14,40.5522847 13.5522847,41 13,41 L10,41 C9.44771525,41 9,40.5522847 9,40 L9,37 C9,36.4477153 9.44771525,36 10,36 L13,36 Z M22,35 C22.5522847,35 23,35.4477153 23,36 L23,38 C23,38.5522847 22.5522847,39 22,39 L20,39 C19.4477153,39 19,38.5522847 19,38 L19,36 C19,35.4477153 19.4477153,35 20,35 L22,35 Z M31,32 C31.5522847,32 32,32.4477153 32,33 L32,35 C32,35.5522847 31.5522847,36 31,36 L29,36 C28.4477153,36 28,35.5522847 28,35 L28,33 C28,32.4477153 28.4477153,32 29,32 L31,32 Z M12,27 C12.5522847,27 13,27.4477153 13,28 L13,31 C13,31.5522847 12.5522847,32 12,32 L9,32 C8.44771525,32 8,31.5522847 8,31 L8,28 C8,27.4477153 8.44771525,27 9,27 L12,27 Z M23,25 C23.5522847,25 24,25.4477153 24,26 L24,29 C24,29.5522847 23.5522847,30 23,30 L20,30 C19.4477153,30 19,29.5522847 19,29 L19,26 C19,25.4477153 19.4477153,25 20,25 L23,25 Z" id="data" fill="#EA0074"></path>
            <path d="M35.303914,31 C35.9831593,31 36.5025822,30.4697368 36.5025822,29.7763158 L36.5425378,14.6842105 C36.5425378,13.9907895 36.0231149,13.4605263 35.3438696,13.4605263 C35.3438696,13.4605263 35.3438696,13.4605263 35.3438696,13.4605263 C34.6646243,13.4605263 34.1452015,13.9907895 34.1452015,14.6842105 L34.1052459,29.7763158 C34.1052459,30.4697368 34.6646243,31 35.303914,31 C35.303914,31 35.303914,31 35.303914,31 Z M36.5824934,9.21842105 C36.5425378,6.77105263 35.5836033,4.48684211 33.9054678,2.73289474 C32.1474212,0.978947368 29.8699518,0 27.3927043,0 C27.3927043,0 27.3927043,0 27.3927043,0 C27.3927043,0 27.3927043,0 27.3927043,0 C27.3927043,0 27.3927043,0 27.3927043,0 L5.81667761,0 C2.93987406,0 0.62244898,2.36578947 0.62244898,5.30263158 L0.62244898,29.7763158 C0.62244898,30.4697368 1.14187184,31 1.82111713,31 C2.50036241,31 3.01978527,30.4697368 3.01978527,29.7763158 L3.01978527,5.30263158 C3.01978527,3.71184211 4.25840902,2.44736842 5.81667761,2.44736842 L26.1940361,2.44736842 L26.1940361,5.30263158 C26.1940361,8.23947368 28.5114612,10.6052632 31.3882647,10.6052632 L35.2240028,10.6052632 C35.2639584,10.6052632 35.303914,10.6052632 35.3838252,10.6052632 C35.3838252,10.6052632 35.3838252,10.6052632 35.3838252,10.6052632 C35.8632925,10.6052632 36.3028041,10.2789474 36.5025822,9.87105263 C36.5824934,9.70789474 36.622449,9.54473684 36.622449,9.38157895 C36.5824934,9.34078947 36.5824934,9.25921053 36.5824934,9.21842105 Z M28.5913724,5.30263158 L28.5913724,2.56973684 C29.949863,2.81447368 31.1884867,3.46710526 32.1873768,4.48684211 C33.186267,5.50657895 33.8255566,6.77105263 34.0652903,8.15789474 L31.3882647,8.15789474 C29.8299961,8.15789474 28.5913724,6.89342105 28.5913724,5.30263158 Z" id="Shape" fill="#444B54" fill-rule="nonzero"></path>
            <path d="M16.013074,19.15625 C17.2734906,19.15625 18.2760948,18.8763021 19.0208865,18.3164062 C19.7656781,17.7565104 20.138074,16.984375 20.138074,16 C20.138074,15.1145833 19.8333865,14.375 19.2240115,13.78125 C18.6146365,13.1875 17.6432823,12.6901042 16.309949,12.2890625 C15.5859906,12.0703125 15.0378136,11.8359375 14.6654177,11.5859375 C14.2930219,11.3359375 14.106824,11.0260417 14.106824,10.65625 C14.106824,10.2604167 14.2656781,9.94140625 14.5833865,9.69921875 C14.9010948,9.45703125 15.3464073,9.3359375 15.919324,9.3359375 C16.513074,9.3359375 16.9740115,9.48046875 17.3021365,9.76953125 C17.6302615,10.0585938 17.794324,10.4635417 17.794324,10.984375 L17.794324,10.984375 L20.138074,10.984375 C20.138074,10.3020833 19.9622927,9.69270833 19.6107302,9.15625 C19.2591677,8.61979167 18.7656781,8.20442708 18.1302615,7.91015625 C17.4948448,7.61588542 16.7708865,7.46875 15.9583865,7.46875 C15.1510948,7.46875 14.4232302,7.60416667 13.7747927,7.875 C13.1263552,8.14583333 12.6289594,8.52213542 12.2826052,9.00390625 C11.9362511,9.48567708 11.763074,10.0338542 11.763074,10.6484375 C11.763074,11.8307292 12.4089073,12.7708333 13.700574,13.46875 C14.1745323,13.7239583 14.8177615,13.9830729 15.6302615,14.2460938 C16.4427615,14.5091146 17.0052615,14.7591146 17.3177615,14.9960938 C17.6302615,15.2330729 17.7865115,15.5729167 17.7865115,16.015625 C17.7865115,16.421875 17.6302615,16.7382812 17.3177615,16.9648438 C17.0052615,17.1914062 16.5703656,17.3046875 16.013074,17.3046875 C14.513074,17.3046875 13.763074,16.6770833 13.763074,15.421875 L13.763074,15.421875 L11.4115115,15.421875 C11.4115115,16.15625 11.6003136,16.8020833 11.9779177,17.359375 C12.3555219,17.9166667 12.903699,18.3554688 13.622449,18.6757812 C14.341199,18.9960938 15.138074,19.15625 16.013074,19.15625 Z M24.216199,19 L24.216199,7.625 L21.872449,7.625 L21.872449,19 L24.216199,19 Z" id="SI" fill="#444B54" fill-rule="nonzero"></path>
        </g>
    </g>
</svg>