<?xml version="1.0" encoding="UTF-8"?>
<svg width="53px" height="53px" viewBox="0 0 53 53" version="1.1" xmlns="http://www.w3.org/2000/svg" xmlns:xlink="http://www.w3.org/1999/xlink">
    <g id="Icon-/-SI" stroke="none" stroke-width="1" fill="none" fill-rule="evenodd">
        <g id="icon-si" transform="translate(8.000000, 3.000000)">
            <polygon id="Path" fill="#EA0074" fill-rule="nonzero" points="5.62244898 39 6.62244898 39 6.62244898 40 5.62244898 40"></polygon>
            <path d="M23.3951763,47 L21.7588126,47 C21.0633581,47 20.5315399,46.4428571 20.5315399,45.7142857 L20.5315399,44 C20.5315399,43.2714286 21.0633581,42.7142857 21.7588126,42.7142857 L23.3951763,42.7142857 C24.0906308,42.7142857 24.622449,43.2714286 24.622449,44 L24.622449,45.7142857 C24.622449,46.4428571 24.0906308,47 23.3951763,47 Z M15.622449,38 L17.2588126,38 L17.2588126,39.7142857 L15.622449,39.7142857 L15.622449,38 Z" id="Shape" fill="#EA0074" fill-rule="nonzero"></path>
            <g id="Group" transform="translate(28.622449, 27.000000)" fill="#EA0074" fill-rule="nonzero">
                <polygon id="Path" points="0.0333333333 0.0333333333 0.966666667 0.0333333333 0.966666667 0.966666667 0.0333333333 0.966666667"></polygon>
            </g>
            <g id="Group" transform="translate(9.622449, 32.000000)" fill="#EA0074" fill-rule="nonzero">
                <polygon id="Path" points="0.0714285714 0.0952380952 2.92857143 0.0952380952 2.92857143 3.9047619 0.0714285714 3.9047619"></polygon>
            </g>
            <g id="Group" transform="translate(21.622449, 33.000000)" fill="#EA0074" fill-rule="nonzero">
                <polygon id="Path" points="0.0714285714 0.0952380952 2.92857143 0.0952380952 2.92857143 3.9047619 0.0714285714 3.9047619"></polygon>
            </g>
            <g id="Group" transform="translate(15.622449, 24.000000)" fill="#EA0074" fill-rule="nonzero">
                <polygon id="Path" points="0.0714285714 0.0952380952 2.92857143 0.0952380952 2.92857143 3.9047619 0.0714285714 3.9047619"></polygon>
            </g>
            <path d="M35.303914,31 C35.9831593,31 36.5025822,30.4697368 36.5025822,29.7763158 L36.5425378,14.6842105 C36.5425378,13.9907895 36.0231149,13.4605263 35.3438696,13.4605263 C35.3438696,13.4605263 35.3438696,13.4605263 35.3438696,13.4605263 C34.6646243,13.4605263 34.1452015,13.9907895 34.1452015,14.6842105 L34.1052459,29.7763158 C34.1052459,30.4697368 34.6646243,31 35.303914,31 C35.303914,31 35.303914,31 35.303914,31 Z M36.5824934,9.21842105 C36.5425378,6.77105263 35.5836033,4.48684211 33.9054678,2.73289474 C32.1474212,0.978947368 29.8699518,0 27.3927043,0 C27.3927043,0 27.3927043,0 27.3927043,0 C27.3927043,0 27.3927043,0 27.3927043,0 C27.3927043,0 27.3927043,0 27.3927043,0 L5.81667761,0 C2.93987406,0 0.62244898,2.36578947 0.62244898,5.30263158 L0.62244898,29.7763158 C0.62244898,30.4697368 1.14187184,31 1.82111713,31 C2.50036241,31 3.01978527,30.4697368 3.01978527,29.7763158 L3.01978527,5.30263158 C3.01978527,3.71184211 4.25840902,2.44736842 5.81667761,2.44736842 L26.1940361,2.44736842 L26.1940361,5.30263158 C26.1940361,8.23947368 28.5114612,10.6052632 31.3882647,10.6052632 L35.2240028,10.6052632 C35.2639584,10.6052632 35.303914,10.6052632 35.3838252,10.6052632 C35.3838252,10.6052632 35.3838252,10.6052632 35.3838252,10.6052632 C35.8632925,10.6052632 36.3028041,10.2789474 36.5025822,9.87105263 C36.5824934,9.70789474 36.622449,9.54473684 36.622449,9.38157895 C36.5824934,9.34078947 36.5824934,9.25921053 36.5824934,9.21842105 Z M28.5913724,5.30263158 L28.5913724,2.56973684 C29.949863,2.81447368 31.1884867,3.46710526 32.1873768,4.48684211 C33.186267,5.50657895 33.8255566,6.77105263 34.0652903,8.15789474 L31.3882647,8.15789474 C29.8299961,8.15789474 28.5913724,6.89342105 28.5913724,5.30263158 Z" id="Shape" fill="#444B54" fill-rule="nonzero"></path>
            <text id="SI" font-family="Roboto-Bold, Roboto" font-size="16" font-weight="bold" fill="#444B54">
                <tspan x="10.872449" y="19">SI</tspan>
            </text>
        </g>
    </g>
</svg>