<?xml version="1.0" encoding="UTF-8"?>
<svg width="53px" height="53px" viewBox="0 0 53 53" version="1.1" xmlns="http://www.w3.org/2000/svg" xmlns:xlink="http://www.w3.org/1999/xlink">
    <!-- Generator: Sketch 63.1 (92452) - https://sketch.com -->
    <title>Icon / University</title>
    <desc>Created with Sketch.</desc>
    <defs>
        <polygon id="path-1" points="0.115069046 0.0884098346 4.30638942 0.0884098346 4.30638942 2.59848484 0.115069046 2.59848484"></polygon>
        <polygon id="path-3" points="0 0.130022463 2.44607085 0.130022463 2.44607085 4.27344091 0 4.27344091"></polygon>
    </defs>
    <g id="Icon-/-University" stroke="none" stroke-width="1" fill="none" fill-rule="evenodd">
        <g id="Group" transform="translate(4.000000, 9.000000)">
            <g id="icons8-student_male" fill="#444B54" fill-rule="nonzero">
                <path d="M23.3922414,0.103015985 L44.3405172,9.86475425 C44.7672414,10.059989 45,10.4895055 45,10.919022 C45,11.3485385 44.7284483,11.7780549 44.3405172,11.9732897 L39.642,14.162 L39.6428571,24.7126799 C39.6428571,26.3561151 38.9090532,27.8848921 37.6345515,28.8785971 C33.3089701,32.3183453 28.0178571,34 22.8039867,34 C17.5901163,34 12.4148671,32.3183453 8.35963455,28.9168165 C7.12375415,27.8848921 6.42857143,26.3561151 6.42857143,24.7126799 L6.428,14.548 L0.698275862,11.9732897 C0.271551724,11.8171019 0,11.3875854 0,10.919022 C0,10.4504585 0.271551724,10.0209421 0.698275862,9.86475425 L22.4224138,0.103015985 C22.7327586,-0.0531718275 23.0818966,-0.0141248745 23.3922414,0.103015985 Z M37.325,15.242 L23.3922414,21.735028 C23.237069,21.8131219 23.0431034,21.8521688 22.887931,21.8521688 C22.7327586,21.8521688 22.5775862,21.8131219 22.4224138,21.735028 L8.745,15.589 L8.74584718,24.7126799 C8.74584718,25.6681655 9.17068106,26.5472122 9.86586379,27.158723 C17.1652824,33.2738309 28.4813123,33.2356115 36.2055648,27.1205036 C36.9393688,26.5472122 37.3255814,25.6681655 37.3255814,24.7126799 L37.325,15.242 Z M22.887931,2.44583317 L4.03448276,10.919022 L22.887931,19.3922108 L41.0818966,10.919022 L22.887931,2.44583317 Z" id="Combined-Shape"></path>
            </g>
            <rect id="Rectangle" fill="#EA0074" x="42" y="14" width="2" height="14" rx="1"></rect>
            <path d="M43,35 C44.1045695,35 45,32.3868031 45,31.1818182 C45,29.9768333 44.1045695,29 43,29 C41.8954305,29 41,29.9768333 41,31.1818182 C41,32.3868031 41.8954305,35 43,35 Z" id="Oval" fill="#EA0074"></path>
        </g>
        <g id="Group-3" transform="translate(24.000000, 32.000000)">
            <g id="Group-2">
                <path d="M3.09872233,1.23511573 L1.62402238,0.102568225 C1.47391386,-0.0341894083 1.23043183,-0.0341894083 1.08032332,0.102568225 C0.930214807,0.239325857 0.930214807,0.461027667 1.08032332,0.597909853 L2.59179849,1.97507666 C2.87096206,2.22916187 3.32511549,2.22916187 3.60441576,1.9749521 L5.11315671,0.600276332 C5.18821097,0.531897517 5.22580645,0.442344932 5.22580645,0.352667794 C5.22580645,0.262990656 5.18821097,0.173438073 5.11315671,0.105059256 C4.9630482,-0.0316983768 4.7197029,-0.0316983768 4.56959437,0.105059256 L3.09872233,1.23511573 Z" id="Fill-1" fill="#4FC3F4" fill-rule="nonzero"></path>
                <path d="M4.72582418,1.09921875 C4.73699469,1.08784375 4.74795038,1.0766875 4.75804679,1.06640625 L4.72582418,1.09921875 Z" id="Fill-3" fill="#4E67F1" fill-rule="nonzero"></path>
                <path d="M4.76030238,0.867234375 L4.77834704,0.848859376 C4.75493194,0.872703125 4.73065756,0.897421874 4.70552393,0.923015624 L4.76030238,0.867234375 Z" id="Fill-5" fill="#4E67F1" fill-rule="nonzero"></path>
                <path d="M4.78049521,1.04354688 L4.70337576,1.12207812 C4.73387984,1.09101563 4.76008756,1.06432812 4.78049521,1.04354688" id="Fill-7" fill="#4E67F1" fill-rule="nonzero"></path>
                <path d="M4.72582418,0.902343749 C4.73699469,0.890968749 4.74795038,0.8798125 4.75804679,0.869531251 L4.72582418,0.902343749 Z" id="Fill-9" fill="#4E67F1" fill-rule="nonzero"></path>
                <path d="M4.95385077,0.867234375 L4.97189542,0.848859376 C4.94848033,0.872703125 4.92420595,0.897421874 4.89907232,0.923015624 L4.95385077,0.867234375 Z" id="Fill-11" fill="#4E67F1" fill-rule="nonzero"></path>
                <path d="M4.9740436,0.846671875 L4.89692415,0.925203125 C4.92742822,0.894140627 4.95363595,0.867453126 4.9740436,0.846671875" id="Fill-13" fill="#4E67F1" fill-rule="nonzero"></path>
                <g id="Group-17" transform="translate(0.580645, 3.543750)">
                    <g id="Fill-15-Clipped">
                        <g>
                            <mask id="mask-2" fill="white">
                                <use xlink:href="#path-1"></use>
                            </mask>
                            <g id="path-1"></g>
                            <path d="M2.20881165,1.16690737 L3.66039602,2.47957531 C3.80815161,2.63808288 4.04781713,2.63822723 4.19557274,2.47957531 C4.34332833,2.32121208 4.34332833,2.06410644 4.19557274,1.9054545 L2.70778955,0.309263006 C2.43300183,0.0147680556 1.98596713,0.0147680556 1.71104483,0.309407367 L0.22595303,1.90271166 C0.15207523,1.98196545 0.115069046,2.08576048 0.115069046,2.18969987 C0.115069046,2.29363927 0.15207523,2.3974343 0.22595303,2.47683244 C0.373708628,2.63519567 0.613239565,2.63519567 0.760995165,2.47683244 L2.20881165,1.16690737 Z" id="Fill-15" fill="#FCB000" fill-rule="nonzero" mask="url(#mask-2)"></path>
                        </g>
                    </g>
                </g>
                <path d="M4.67310728,3.14892248 L5.8893795,1.65277102 C6.03624909,1.50049982 6.03691547,1.2529722 5.89111206,1.09972758 C5.7451754,0.946622009 5.50794501,0.945787646 5.36107542,1.09805885 L3.88291685,2.63078323 C3.61010191,2.91391031 3.60876914,3.37573011 3.87985152,3.66066499 L5.34628183,5.2002033 C5.4193168,5.27668657 5.5150086,5.31520632 5.61096698,5.315625 C5.70692532,5.31590162 5.80288368,5.27793811 5.87631848,5.20187205 C6.02305482,5.04960084 6.02385445,4.80207321 5.87805107,4.6488286 L4.67310728,3.14892248 Z" id="Fill-18" fill="#5C469C" fill-rule="nonzero"></path>
                <g id="Group-22" transform="translate(0.000000, 0.590625)">
                    <g id="Fill-20-Clipped">
                        <g>
                            <mask id="mask-4" fill="white">
                                <use xlink:href="#path-3"></use>
                            </mask>
                            <g id="path-3"></g>
                            <path d="M1.39744798,2.20277069 L0.116513652,3.63404484 C-0.0381641513,3.77971313 -0.0390063172,4.01650724 0.114688959,4.16297374 C0.268384236,4.30957325 0.518226784,4.31037142 0.67290459,4.16470313 L2.22964826,2.69844199 C2.5169672,2.42759208 2.5183708,1.98566507 2.23287656,1.71308576 L0.688484658,0.240439158 C0.611566838,0.167139403 0.510787652,0.130289981 0.409727746,0.130022463 C0.308667837,0.129757859 0.207607929,0.16594213 0.130269028,0.238842793 C-0.0242684139,0.384378058 -0.02511058,0.621305213 0.128444336,0.76777169 L1.39744798,2.20277069 Z" id="Fill-20" fill="#EA0074" fill-rule="nonzero" mask="url(#mask-4)"></path>
                        </g>
                    </g>
                </g>
            </g>
        </g>
    </g>
</svg>