<?xml version="1.0" encoding="UTF-8"?>
<svg width="53px" height="53px" viewBox="0 0 53 53" version="1.1" xmlns="http://www.w3.org/2000/svg" xmlns:xlink="http://www.w3.org/1999/xlink">
    <!-- Generator: Sketch 63.1 (92452) - https://sketch.com -->
    <title>Icon / Case JEM</title>
    <desc>Created with Sketch.</desc>
    <g id="Icon-/-Case-JEM" stroke="none" stroke-width="1" fill="none" fill-rule="evenodd">
        <g id="Group" transform="translate(4.000000, 21.000000)" fill="#444B54">
            <g id="JEM-2" transform="translate(14.000000, 0.000000)" fill-rule="nonzero">
                <path d="M3.99387443,12 C4.76161307,12 5.45039986,11.8428184 6.06023481,11.5284553 C6.67006976,11.2140921 7.1424196,10.7682927 7.47728433,10.1910569 C7.81214906,9.61382114 7.97958142,8.94850949 7.97958142,8.19512195 L7.97958142,8.19512195 L7.97958142,0 L5.52935171,0 L5.52935171,8.19512195 C5.52935171,8.78590786 5.39050536,9.24119241 5.11281266,9.56097561 C4.83511996,9.88075881 4.46214055,10.0406504 3.99387443,10.0406504 C3.4657138,10.0406504 3.079122,9.90243902 2.83409903,9.62601626 C2.58907606,9.3495935 2.46656457,8.92140921 2.46656457,8.34146341 L2.46656457,8.34146341 L0,8.34146341 C0,9.50677507 0.351199592,10.4078591 1.05359877,11.0447154 C1.75599796,11.6815718 2.73608984,12 3.99387443,12 Z M18.0500255,11.8373984 L18.0500255,9.87804878 L12.5288412,9.87804878 L12.5288412,6.70731707 L17.2332823,6.70731707 L17.2332823,4.79674797 L12.5288412,4.79674797 L12.5288412,1.97560976 L18.0336907,1.97560976 L18.0336907,0 L10.0786115,0 L10.0786115,11.8373984 L18.0500255,11.8373984 Z M21.9377233,11.8373984 L21.9377233,8.60162602 L21.6927004,3.02439024 L24.8943338,11.8373984 L26.5768249,11.8373984 L29.7866258,3.01626016 L29.5416029,8.60162602 L29.5416029,11.8373984 L32,11.8373984 L32,0 L28.7820316,0 L25.7437468,8.58536585 L22.6891271,0 L19.4874936,0 L19.4874936,11.8373984 L21.9377233,11.8373984 Z" id="JEM"></path>
            </g>
            <g id="isotipo-2">
                <g id="isotipo">
                    <path d="M6.17134104,8.86601976 L8.8396731,11.3806272 C9.11128046,11.6842716 9.5518385,11.6845482 9.82344586,11.3806272 C10.0950532,11.0772593 10.0950532,10.5847358 9.82344586,10.2808148 L7.08857245,7.22307655 C6.58345201,6.6589284 5.76170372,6.6589284 5.25633592,7.22335309 L2.52640985,10.2755605 C2.39060617,10.4273827 2.32258065,10.6262173 2.32258065,10.8253284 C2.32258065,11.0244395 2.39060617,11.2232741 2.52640985,11.3753728 C2.79801721,11.6787407 3.23832787,11.6787407 3.50993523,11.3753728 L6.17134104,8.86601976 Z" id="up-arrow"></path>
                    <path d="M6.17134104,2.06601976 L8.8396731,4.58062719 C9.11128046,4.88427163 9.5518385,4.88454816 9.82344586,4.58062719 C10.0950532,4.27725928 10.0950532,3.78473581 9.82344586,3.48081482 L7.08857245,0.423076551 C6.58345201,-0.141071599 5.76170372,-0.141071599 5.25633592,0.423353093 L2.52640985,3.4755605 C2.39060617,3.62738272 2.32258065,3.82621729 2.32258065,4.0253284 C2.32258065,4.22443951 2.39060617,4.42327408 2.52640985,4.57537283 C2.79801721,4.87874074 3.23832787,4.87874074 3.50993523,4.57537283 L6.17134104,2.06601976 Z" id="top-arrow" transform="translate(6.174866, 2.404232) rotate(-180.000000) translate(-6.174866, -2.404232) "></path>
                    <path d="M9.65509451,5.67692984 L12.412371,8.11042089 C12.6930319,8.40427036 13.1482752,8.40453797 13.4289362,8.11042089 C13.7095971,7.81683904 13.7095971,7.34020343 13.4289362,7.04608635 L10.6029003,4.08698479 C10.0809425,3.54103497 9.23180261,3.54103497 8.70958922,4.08725242 L5.88866561,7.04100152 C5.74833514,7.18792625 5.6780421,7.3803468 5.6780421,7.57303497 C5.6780421,7.76572314 5.74833514,7.95814369 5.88866561,8.10533603 C6.16932655,8.39891788 6.62431423,8.39891788 6.90497517,8.10533603 L9.65509451,5.67692984 Z" id="rigth-arrow" transform="translate(9.658737, 6.004232) rotate(-90.000000) translate(-9.658737, -6.004232) "></path>
                    <path d="M2.68735258,5.67692984 L5.44462904,8.11042089 C5.72528997,8.40427036 6.18053329,8.40453797 6.46119422,8.11042089 C6.74185515,7.81683904 6.74185515,7.34020343 6.46119422,7.04608635 L3.63515837,4.08698479 C3.11320058,3.54103497 2.26406067,3.54103497 1.74184728,4.08725242 L-1.07907633,7.04100152 C-1.21940679,7.18792625 -1.28969983,7.3803468 -1.28969983,7.57303497 C-1.28969983,7.76572314 -1.21940679,7.95814369 -1.07907633,8.10533603 C-0.798415387,8.39891788 -0.343427706,8.39891788 -0.0627667662,8.10533603 L2.68735258,5.67692984 Z" id="left-arrow" transform="translate(2.690995, 6.004232) scale(-1, 1) rotate(-90.000000) translate(-2.690995, -6.004232) "></path>
                </g>
            </g>
        </g>
    </g>
</svg>