<?xml version="1.0" encoding="UTF-8"?>
<svg width="53px" height="53px" viewBox="0 0 53 53" version="1.1" xmlns="http://www.w3.org/2000/svg" xmlns:xlink="http://www.w3.org/1999/xlink">
    <!-- Generator: Sketch 63.1 (92452) - https://sketch.com -->
    <title>Icon / Isotipo MX</title>
    <desc>Created with Sketch.</desc>
    <g id="Icon-/-Isotipo-MX" stroke="none" stroke-width="1" fill="none" fill-rule="evenodd">
        <g id="icons8-mexico-2" transform="translate(37.000000, 40.000000)" fill-rule="nonzero">
            <g id="icons8-mexico">
                <polygon id="Path" fill="#F2FAFF" points="3.375 0.375 8.625 0.375 8.625 8.625 3.375 8.625"></polygon>
                <path d="M8.25,0.75 L8.25,8.25 L3.75,8.25 L3.75,0.75 L8.25,0.75 M9,0 L3,0 L3,9 L9,9 L9,0 L9,0 Z" id="Shape" fill="#A3B7CC"></path>
                <polygon id="Path" fill="#5E9C76" points="3.75 0 0 0 0 9 3.75 9"></polygon>
                <polygon id="Path" fill="#C74343" points="12 0 8.25 0 8.25 9 12 9"></polygon>
                <path d="M6,3.75 C5.58578644,3.75 5.25,4.08578644 5.25,4.5 C5.25,4.91421356 5.58578644,5.25 6,5.25 C6.41421356,5.25 6.75,4.91421356 6.75,4.5 C6.75,4.08578644 6.41421356,3.75 6,3.75 Z" id="Path" fill="#704E34"></path>
                <path d="M6,5.25 C5.586,5.25 5.25,4.914 5.25,4.5 L4.5,4.5 C4.5,5.32725 5.17275,6 6,6 C6.82725,6 7.5,5.32725 7.5,4.5 L6.75,4.5 C6.75,4.914 6.414,5.25 6,5.25 Z" id="Path" fill="#5E9C76"></path>
            </g>
        </g>
        <g id="isotipo" transform="translate(11.000000, 12.000000)">
            <path d="M15.942631,22.1650494 L22.8358222,28.451568 C23.5374745,29.2106791 24.6755828,29.2113704 25.3772351,28.451568 C26.0788875,27.6931482 26.0788875,26.4618395 25.3772351,25.7020371 L18.3121455,18.0576914 C17.007251,16.647321 14.8844013,16.647321 13.5788678,18.0583827 L6.52655877,25.6889013 C6.1757326,26.0684568 6,26.5655432 6,27.063321 C6,27.5610988 6.1757326,28.0581852 6.52655877,28.4384321 C7.22821112,29.1968519 8.36568032,29.1968519 9.06733267,28.4384321 L15.942631,22.1650494 Z" id="up-arrow" fill="#FCB000"></path>
            <path d="M15.942631,5.1650494 L22.8358222,11.451568 C23.5374745,12.2106791 24.6755828,12.2113704 25.3772351,11.451568 C26.0788875,10.6931482 26.0788875,9.46183952 25.3772351,8.70203705 L18.3121455,1.05769138 C17.007251,-0.352678997 14.8844013,-0.352678997 13.5788678,1.05838273 L6.52655877,8.68890125 C6.1757326,9.06845681 6,9.56554322 6,10.063321 C6,10.5610988 6.1757326,11.0581852 6.52655877,11.4384321 C7.22821112,12.1968519 8.36568032,12.1968519 9.06733267,11.4384321 L15.942631,5.1650494 Z" id="top-arrow" fill="#4FC3F4" transform="translate(15.951737, 6.010580) rotate(-180.000000) translate(-15.951737, -6.010580) "></path>
            <path d="M24.942631,14.1650494 L31.8358222,20.451568 C32.5374745,21.2106791 33.6755828,21.2113704 34.3772351,20.451568 C35.0788875,19.6931482 35.0788875,18.4618395 34.3772351,17.7020371 L27.3121455,10.0576914 C26.007251,8.647321 23.8844013,8.647321 22.5788678,10.0583827 L15.5265588,17.6889013 C15.1757326,18.0684568 15,18.5655432 15,19.063321 C15,19.5610988 15.1757326,20.0581852 15.5265588,20.4384321 C16.2282111,21.1968519 17.3656803,21.1968519 18.0673327,20.4384321 L24.942631,14.1650494 Z" id="rigth-arrow" fill="#5C469C" transform="translate(24.951737, 15.010580) rotate(-90.000000) translate(-24.951737, -15.010580) "></path>
            <path d="M6.94263103,14.1650494 L13.8358222,20.451568 C14.5374745,21.2106791 15.6755828,21.2113704 16.3772351,20.451568 C17.0788875,19.6931482 17.0788875,18.4618395 16.3772351,17.7020371 L9.3121455,10.0576914 C8.00725103,8.647321 5.88440127,8.647321 4.5788678,10.0583827 L-2.47344123,17.6889013 C-2.8242674,18.0684568 -3,18.5655432 -3,19.063321 C-3,19.5610988 -2.8242674,20.0581852 -2.47344123,20.4384321 C-1.77178888,21.1968519 -0.634319679,21.1968519 0.0673326711,20.4384321 L6.94263103,14.1650494 Z" id="left-arrow" fill="#EA0074" transform="translate(6.951737, 15.010580) scale(-1, 1) rotate(-90.000000) translate(-6.951737, -15.010580) "></path>
        </g>
    </g>
</svg>