<?xml version="1.0" encoding="UTF-8"?>
<svg width="53px" height="53px" viewBox="0 0 53 53" version="1.1" xmlns="http://www.w3.org/2000/svg" xmlns:xlink="http://www.w3.org/1999/xlink">
    <!-- Generator: Sketch 63.1 (92452) - https://sketch.com -->
    <title>Icon / MKT</title>
    <desc>Created with Sketch.</desc>
    <g id="Icon-/-MKT" stroke="none" stroke-width="1" fill="none" fill-rule="evenodd">
        <g id="Group-2" transform="translate(5.000000, 9.000000)" fill-rule="nonzero">
            <g id="Group">
                <path d="M18.6294667,0.00170976432 C21.874311,0.0791993215 25.8548414,2.78809689 29.2754635,7.46053808 C29.6638696,7.98516305 29.4875972,8.75461302 28.8520235,9.034413 C28.3929981,9.24426299 27.8636291,9.0695244 27.5458423,8.64982442 C23.9442583,3.75332465 19.5300008,1.12992662 17.0936351,2.42400156 C14.3041729,3.89295149 14.0925908,10.7133493 18.2591292,18.442824 C22.4256676,26.2072736 28.2163118,29.8441275 31.0057739,28.3751772 C32.5240888,27.6057272 33.2654537,25.2629487 32.9829765,22.1151988 L32.9829765,22.1151988 L31.111979,21.7654488 C30.6176439,21.6605238 30.2292378,21.2408238 30.2292378,20.7161989 C30.2292378,20.0166989 30.8646734,19.5270489 31.5002471,19.6669489 L31.5002471,19.6669489 L38.7035529,21.0659488 C39.2331976,21.1708738 39.6216037,21.6602507 39.5862941,22.1848756 C39.5509844,22.7444756 39.0566493,23.1644487 38.5270046,23.1644487 C38.4563853,23.1644487 38.3859037,23.1289274 38.3152845,23.1289274 L38.3152845,23.1289274 L35.2077601,22.5346256 C35.3843083,26.2769505 34.2895712,29.0749503 32.0650634,30.2291253 C31.3588704,30.6138502 30.5470246,30.7885888 29.6995931,30.7885888 C28.6756133,30.7885888 27.6163239,30.5439003 26.5217248,30.0542503 L26.5217248,30.0542503 L23.0611032,30.0542503 L23.0611032,32.8522501 C23.0611032,34.6010001 21.6487173,36 19.883235,36 L19.883235,36 L13.5274984,36 C11.762016,36 10.3496301,34.6010001 10.3496301,32.8522501 L10.3496301,32.8522501 L10.3496301,30.0542503 L7.03038556,30.0542503 C6.78321802,30.4040003 6.50087855,30.6139867 6.28902067,30.7189116 C6.04185313,30.8238366 5.7239286,30.9634638 5.26490318,30.9634638 C4.73525847,30.9634638 4.06451287,30.7887252 3.28770063,30.2291253 C2.47557887,29.6345503 1.66387077,28.6555235 1.06360673,27.5363235 C0.604581312,26.6969236 0.286242771,25.8222755 0.145004217,24.9828755 C0.109694534,24.7030755 0.0749365994,24.4231388 0.00431730431,24.1433388 C-0.0663019554,22.3945889 0.745819938,21.6605238 1.24015497,21.4156988 C1.38139356,21.3457488 1.55794183,21.2757988 1.76979968,21.2408238 C1.9816576,21.2058488 2.19323961,21.3452025 2.19323961,21.5550525 C2.26385891,22.3944525 2.54647401,24.4231388 3.74700216,26.0669637 C3.9941697,26.3817387 4.3116804,26.6264273 4.70008653,26.6264273 C4.91194441,26.6264273 5.12421613,26.5914523 5.30076436,26.4515523 C5.75978978,26.1367773 5.86516719,25.5422023 5.61799965,25.0525524 C4.34685234,22.6392775 3.7114164,20.5407776 4.52353829,18.2324277 C4.73539617,17.6728277 5.01801142,17.1133641 5.37110789,16.6237141 L5.37110789,16.6237141 L13.1392303,5.22200143 C13.5276365,3.05355153 14.5164447,1.40945345 16.1053788,0.570053488 C16.8700534,0.164562101 17.7209103,-0.0199873257 18.6294667,0.00170976432 Z M20.9073528,30.0542503 L12.4330374,30.0542503 L12.4330374,32.8522501 C12.4330374,33.4468251 12.8920628,33.9015001 13.4923268,33.9015001 L13.4923268,33.9015001 L19.8480634,33.9015001 C20.4483274,33.9015001 20.9073528,33.4468251 20.9073528,32.8522501 L20.9073528,32.8522501 L20.9073528,30.0542503 Z" id="Combined-Shape" fill="#444B54"></path>
                <path d="M30.0395862,0.12945035 C29.6999377,0.125010274 29.3554617,0.285881626 29.1347764,0.570053488 L28.2161741,1.82969974 C27.8630776,2.28437472 28.00473,2.94862653 28.4637554,3.29837652 C28.6403037,3.43827651 28.8518854,3.50808975 29.0637433,3.50808975 C29.3815302,3.50808975 29.7347647,3.36859967 29.9113129,3.05382468 L30.8643976,1.79417843 C31.2174941,1.33950345 31.0765313,0.675251638 30.6175059,0.325501654 C30.4453713,0.19434541 30.2433754,0.132114396 30.0395862,0.12945035 Z" id="Path" fill="#444B54"></path>
                <path d="M36.2829106,7.9264159 C36.0787078,7.9089966 35.8656777,7.94991455 35.6670609,8.05483954 L30.3706141,10.8528394 C30.4059238,10.8878144 30.3706141,10.887678 30.3706141,10.887678 C30.3353045,10.887678 30.3348906,10.8882243 30.299581,10.9231993 C29.7699363,11.2029993 29.5936642,11.8324129 29.8761413,12.3570378 C30.7235729,13.9309128 31.3940424,15.5047877 31.9236871,17.0786626 C32.0649257,17.5333376 32.4889172,17.8130009 32.912633,17.8130009 C33.0185619,17.8130009 33.1246289,17.813274 33.2305579,17.743324 C33.7955122,17.568449 34.0781271,16.9736009 33.9015789,16.4140009 C33.4425534,15.049976 32.8774614,13.6507029 32.1712684,12.2866779 L36.6904898,9.90878796 C37.2201346,9.62898797 37.3970959,8.99957441 37.1146187,8.47494943 C36.9380705,8.14705882 36.6232497,7.95544794 36.2829106,7.9264159 Z" id="Path" fill="#444B54"></path>
                <path d="M23.4700606,10.4832796 C22.6158535,10.4742711 21.7480257,10.6718165 20.9425244,11.0980743 C20.9072147,11.1330493 20.8723189,11.1327762 20.8370093,11.1677512 L20.6245999,11.2729493 C19.0356657,12.1123493 18.9300125,14.6649778 20.3777081,17.3580527 C21.5429265,19.4915276 23.1673083,20.7858757 24.5796942,20.7858757 C24.9327907,20.7858757 25.2860249,20.7161989 25.6038117,20.5413239 C25.674431,20.5063489 25.7450503,20.4711007 25.7803599,20.4361257 C25.8156696,20.4361257 25.8504277,20.4012875 25.921047,20.4012875 C27.1568847,19.7367625 28.0752113,18.6524008 28.498927,17.2883759 C28.9226428,15.9593259 28.7815423,14.5252142 28.110659,13.3010893 C27.163919,11.5217363 25.3493167,10.5030982 23.4700606,10.4832796 Z" id="Path" fill="#EA0074"></path>
                <path d="M42.9407106,21.8610838 C42.6670608,21.8610838 42.3935487,21.9576749 42.1993457,22.1500374 C41.9874878,22.3598874 41.8814211,22.6045756 41.8814211,22.8843756 C41.8814211,22.9543256 41.8812834,23.0241388 41.9165931,23.0940888 C41.8459738,23.1990138 41.8812834,23.2688274 41.9165931,23.3038024 C41.9519027,23.3737524 41.9874878,23.4437024 42.0227974,23.4786774 C42.0581071,23.5486274 42.0928659,23.5836024 42.1634852,23.6535524 C42.3753431,23.8634024 42.6230615,23.9684638 42.9055386,23.9684638 C43.1880158,23.9684638 43.4703553,23.8634024 43.6469035,23.6535524 C43.6822132,23.6185774 43.7529702,23.5486274 43.7882798,23.4786774 C43.8235895,23.4087274 43.858486,23.3737524 43.8937956,23.3038024 C43.9291053,23.2338524 43.9295184,23.1640388 43.9648281,23.0940888 C43.9648281,23.0241388 44,22.9543256 44,22.8843756 C44,22.6045756 43.8939333,22.3249124 43.6820755,22.1500374 C43.4878724,21.9576749 43.2143603,21.8610838 42.9407106,21.8610838 Z" id="Path" fill="#444B54"></path>
            </g>
        </g>
    </g>
</svg>