<?xml version="1.0" encoding="UTF-8"?>
<svg width="53px" height="53px" viewBox="0 0 53 53" version="1.1" xmlns="http://www.w3.org/2000/svg" xmlns:xlink="http://www.w3.org/1999/xlink">
    <!-- Generator: Sketch 63.1 (92452) - https://sketch.com -->
    <title>Icon / Nomina</title>
    <desc>Created with Sketch.</desc>
    <g id="Icon-/-Nomina" stroke="none" stroke-width="1" fill="none" fill-rule="evenodd">
        <path d="M8.13043478,8 C6.40452174,8 5,9.40860465 5,11.1395349 L5,42.5348837 C5,44.265814 6.40452174,45.6744186 8.13043478,45.6744186 L28.7982341,45.6744186 C28.3777123,45.0004651 28.0244616,44.3003488 27.7343746,43.5813953 L8.13043478,43.5813953 C7.55443478,43.5813953 7.08695652,43.1115116 7.08695652,42.5348837 L7.08695652,16.372093 L46.7391304,16.372093 L46.7391304,31.3814043 C47.5,32 48.5,33.5 48.826087,34.5873457 L48.826087,11.1395349 C48.826087,9.40860465 47.4215652,8 45.6956522,8 L8.13043478,8 Z M8.13043478,10.0930233 L45.6956522,10.0930233 C46.2716522,10.0930233 46.7391304,10.562907 46.7391304,11.1395349 L46.7391304,14.2790698 L7.08695652,14.2790698 L7.08695652,11.1395349 C7.08695652,10.562907 7.55443478,10.0930233 8.13043478,10.0930233 Z M9.17391304,11.1395349 C8.59761591,11.1395349 8.13043478,11.6080741 8.13043478,12.1860465 C8.13043478,12.7640189 8.59761591,13.2325581 9.17391304,13.2325581 C9.75021017,13.2325581 10.2173913,12.7640189 10.2173913,12.1860465 C10.2173913,11.6080741 9.75021017,11.1395349 9.17391304,11.1395349 Z M12.3043478,11.1395349 C11.7280507,11.1395349 11.2608696,11.6080741 11.2608696,12.1860465 C11.2608696,12.7640189 11.7280507,13.2325581 12.3043478,13.2325581 C12.880645,13.2325581 13.3478261,12.7640189 13.3478261,12.1860465 C13.3478261,11.6080741 12.880645,11.1395349 12.3043478,11.1395349 Z M15.4347826,11.1395349 C14.8584855,11.1395349 14.3913043,11.6080741 14.3913043,12.1860465 C14.3913043,12.7640189 14.8584855,13.2325581 15.4347826,13.2325581 C16.0110797,13.2325581 16.4782609,12.7640189 16.4782609,12.1860465 C16.4782609,11.6080741 16.0110797,11.1395349 15.4347826,11.1395349 Z" id="Shape" fill="#444B54" fill-rule="nonzero"></path>
        <path d="M36.8571429,27 C31.42175,27 27,31.42175 27,36.8571429 C27,42.2925357 31.42175,46.7142857 36.8571429,46.7142857 C36.99925,46.7142857 37.137802,46.6991788 37.2790877,46.6934288 C37.0967306,46.1751074 36.9677022,45.6317201 36.9052736,45.0682201 C36.8896665,45.0682201 36.8735714,45.0714286 36.8571429,45.0714286 C32.3277857,45.0714286 28.6428571,41.3865 28.6428571,36.8571429 C28.6428571,32.3277857 32.3277857,28.6428571 36.8571429,28.6428571 C41.3865,28.6428571 45.0714286,32.3277857 45.0714286,36.8571429 C45.0714286,36.8735714 45.0682201,36.8896665 45.0682201,36.9052736 C45.6317201,36.9677022 46.1751074,37.097552 46.6934288,37.2790877 C46.6991788,37.1386234 46.7142857,36.99925 46.7142857,36.8571429 C46.7142857,31.42175 42.2925357,27 36.8571429,27 Z M36.0357143,31.9285714 L36.0357143,33.0917274 C35.1266442,33.4559521 34.3928571,34.1820605 34.3928571,35.2142857 L34.3928571,36.0357143 L34.7345846,36.0357143 C35.0988093,36.9447844 35.8249176,37.6785714 36.8571429,37.6785714 C37.3212746,37.6785714 37.6785714,38.0358682 37.6785714,38.5 C37.6785714,38.9641318 37.3212746,39.3214286 36.8571429,39.3214286 C36.3930111,39.3214286 36.0357143,38.9641318 36.0357143,38.5 L35.2142857,37.6785714 L34.3928571,37.6785714 L34.3928571,38.5 C34.3928571,39.5322252 35.1266442,40.2583336 36.0357143,40.6225583 L36.0357143,41.7857143 L37.6785714,41.7857143 L37.6785714,40.6225583 C38.3067023,40.3708939 38.7280368,39.9495594 38.9797011,39.3214286 L39.3214286,39.3214286 L39.3214286,38.5 C39.3214286,37.1487746 38.2083682,36.0357143 36.8571429,36.0357143 C36.3930111,36.0357143 36.0357143,35.6784175 36.0357143,35.2142857 C36.0357143,34.7501539 36.3930111,34.3928571 36.8571429,34.3928571 C37.3212746,34.3928571 37.6785714,34.7501539 37.6785714,35.2142857 L37.6785714,36.0357143 L38.5,36.0357143 L39.3214286,36.0357143 L39.3214286,35.2142857 C39.3214286,34.1820605 38.5876415,33.4559521 37.6785714,33.0917274 L37.6785714,31.9285714 L36.0357143,31.9285714 Z M43.4285714,38.5 L43.4285714,40.3081056 C42.893842,40.4102691 42.421146,40.5786694 42.0055105,40.8439596 L40.7653456,39.6037946 L39.6037946,40.7653456 L40.8423545,42.0039062 C40.5637851,42.4500594 40.377559,42.9210731 40.2824359,43.4285714 L38.5,43.4285714 L38.5,45.0714286 L40.2824359,45.0714286 C40.377559,45.5789269 40.5637851,46.0499406 40.8423545,46.4960938 L39.6037946,47.7346544 L40.7653456,48.8962054 L42.0055105,47.6560404 C42.421146,47.9213306 42.893842,48.0897309 43.4285714,48.1918944 L43.4285714,50 L45.0714286,50 L45.0714286,48.1918944 C45.606158,48.0897309 46.078854,47.9213306 46.4944895,47.6560404 L47.7346544,48.8962054 L48.8962054,47.7346544 L47.6576455,46.4960938 C47.9362149,46.0499406 48.122441,45.5789269 48.2175641,45.0714286 L50,45.0714286 L50,43.4285714 L48.2175641,43.4285714 C48.122441,42.9210731 47.9362141,42.4500594 47.6576455,42.0039062 L48.8962054,40.7653456 L47.7346544,39.6037946 L46.4944895,40.8439596 C46.078854,40.5786694 45.606158,40.4102691 45.0714286,40.3081056 L45.0714286,38.5 L43.4285714,38.5 Z M44.25,41.7857143 C45.1398807,41.7857143 45.7027449,42.0898433 46.0998185,42.5365509 C46.4968922,42.9832594 46.7142857,43.6111109 46.7142857,44.25 C46.7142857,44.8888891 46.4968922,45.5167398 46.0998185,45.9634491 C45.7027449,46.4101567 45.1398807,46.7142857 44.25,46.7142857 C43.3601193,46.7142857 42.7972551,46.4101567 42.4001815,45.9634491 C42.0031078,45.5167406 41.7857143,44.8888891 41.7857143,44.25 C41.7857143,43.6111109 42.0031078,42.9832602 42.4001815,42.5365509 C42.7972551,42.0898433 43.3601193,41.7857143 44.25,41.7857143 Z M44.25,43.4285714 C43.7963375,43.4285714 43.4285714,43.7963375 43.4285714,44.25 C43.4285714,44.7036625 43.7963375,45.0714286 44.25,45.0714286 C44.7036625,45.0714286 45.0714286,44.7036625 45.0714286,44.25 C45.0714286,43.7963375 44.7036625,43.4285714 44.25,43.4285714 Z" id="Shape" fill="#EA0074" fill-rule="nonzero"></path>
    </g>
</svg>