<?xml version="1.0" encoding="UTF-8"?>
<svg width="53px" height="53px" viewBox="0 0 53 53" version="1.1" xmlns="http://www.w3.org/2000/svg" xmlns:xlink="http://www.w3.org/1999/xlink">
    <!-- Generator: Sketch 63.1 (92452) - https://sketch.com -->
    <title>Icon / Admin</title>
    <desc>Created with Sketch.</desc>
    <g id="Icon-/-Admin" stroke="none" stroke-width="1" fill="none" fill-rule="evenodd">
        <g id="Group-5" transform="translate(7.000000, 5.000000)" fill-rule="nonzero">
            <path d="M5.03125,24.0930233 C4.446875,24.0930233 4,23.6455814 4,23.0604651 L4,20.9953488 C4,20.4102326 4.446875,19.9627907 5.03125,19.9627907 C5.615625,19.9627907 6.0625,20.4102326 6.0625,20.9953488 L6.0625,23.0604651 C6.0625,23.6455814 5.58125,24.0930233 5.03125,24.0930233 Z M13.659375,37 C13.4875,37 13.315625,36.9655814 13.14375,36.8623256 L11.35625,35.8297674 C10.875,35.5544186 10.703125,34.9004651 10.978125,34.4186047 C11.253125,33.9367442 11.90625,33.7646512 12.3875,34.04 L14.175,35.0725581 C14.65625,35.347907 14.828125,36.0018605 14.553125,36.4837209 C14.3468817,36.827907 14.003125,37 13.659375,37 Z M27.340625,37 C26.996875,37 26.653125,36.827907 26.446875,36.4837209 C26.171875,36.0018605 26.34375,35.347907 26.825,35.0725581 L28.6125,34.04 C29.09375,33.7646512 29.746875,33.9367442 30.021875,34.4186047 C30.296875,34.9004651 30.125,35.5544186 29.64375,35.8297674 L27.85625,36.8623256 C27.684375,36.9655814 27.5125,37 27.340625,37 Z M35.96875,24.0930233 C35.384375,24.0930233 34.9375,23.6455814 34.9375,23.0604651 L34.9375,20.9953488 C34.9375,20.4102326 35.384375,19.9627907 35.96875,19.9627907 C36.553125,19.9627907 37,20.4102326 37,20.9953488 L37,23.0604651 C37,23.6455814 36.553125,24.0930233 35.96875,24.0930233 Z M29.128125,10.1534884 C28.95625,10.1534884 28.784375,10.1190698 28.6125,10.015814 L26.825,8.98325581 C26.34375,8.70790698 26.171875,8.05395349 26.446875,7.57209302 C26.721875,7.09023256 27.375,6.91813953 27.85625,7.19348837 L29.64375,8.22604651 C30.125,8.50139535 30.296875,9.15534884 30.021875,9.6372093 C29.85,9.98139535 29.471875,10.1534884 29.128125,10.1534884 Z M11.871875,10.1534884 C11.528125,10.1534884 11.184375,9.98139535 10.978125,9.6372093 C10.703125,9.15534884 10.875,8.50139535 11.35625,8.22604651 L13.14375,7.19348837 C13.625,6.91813953 14.278125,7.09023256 14.553125,7.57209302 C14.828125,8.05395349 14.65625,8.70790698 14.175,8.98325581 L12.3875,10.015814 C12.215625,10.1190698 12.04375,10.1534884 11.871875,10.1534884 Z M20.5,8.94883721 C18.025,8.94883721 16.03125,6.95255814 16.03125,4.4744186 C16.03125,1.99627907 18.025,0 20.5,0 C22.975,0 24.96875,1.99627907 24.96875,4.4744186 C24.96875,6.95255814 22.975,8.94883721 20.5,8.94883721 Z M20.5,2.06511628 C19.159375,2.06511628 18.09375,3.13209302 18.09375,4.4744186 C18.09375,5.81674419 19.159375,6.88372093 20.5,6.88372093 C21.840625,6.88372093 22.90625,5.81674419 22.90625,4.4744186 C22.90625,3.13209302 21.840625,2.06511628 20.5,2.06511628 Z" id="Shape" fill="#444B54"></path>
            <path d="M20.5,44 C18.0076923,44 16,41.9923077 16,39.5 C16,37.0076923 18.0076923,35 20.5,35 C22.9923077,35 25,37.0076923 25,39.5 C25,41.9923077 22.9923077,44 20.5,44 Z M20.5,37.0769231 C19.15,37.0769231 18.0769231,38.15 18.0769231,39.5 C18.0769231,40.85 19.15,41.9230769 20.5,41.9230769 C21.85,41.9230769 22.9230769,40.85 22.9230769,39.5 C22.9230769,38.15 21.85,37.0769231 20.5,37.0769231 Z" id="Shape" fill="#EA0074"></path>
            <path d="M35.5,36 C33.0076923,36 31,33.9923077 31,31.5 C31,29.0076923 33.0076923,27 35.5,27 C37.9923077,27 40,29.0076923 40,31.5 C40,33.9923077 37.9923077,36 35.5,36 Z M35.5,29.0769231 C34.15,29.0769231 33.0769231,30.15 33.0769231,31.5 C33.0769231,32.85 34.15,33.9230769 35.5,33.9230769 C36.85,33.9230769 37.9230769,32.85 37.9230769,31.5 C37.9230769,30.15 36.85,29.0769231 35.5,29.0769231 Z" id="Shape" fill="#EA0074"></path>
            <path d="M35.5,17 C33.0076923,17 31,14.9923077 31,12.5 C31,10.0076923 33.0076923,8 35.5,8 C37.9923077,8 40,10.0076923 40,12.5 C40,14.9923077 37.9923077,17 35.5,17 Z M35.5,10.0769231 C34.15,10.0769231 33.0769231,11.15 33.0769231,12.5 C33.0769231,13.85 34.15,14.9230769 35.5,14.9230769 C36.85,14.9230769 37.9230769,13.85 37.9230769,12.5 C37.9230769,11.15 36.85,10.0769231 35.5,10.0769231 Z" id="Shape" fill="#EA0074"></path>
            <path d="M4.5,17 C2.00769231,17 0,14.9923077 0,12.5 C0,10.0076923 2.00769231,8 4.5,8 C6.99230769,8 9,10.0076923 9,12.5 C9,14.9923077 6.99230769,17 4.5,17 Z M4.5,10.0769231 C3.15,10.0769231 2.07692308,11.15 2.07692308,12.5 C2.07692308,13.85 3.15,14.9230769 4.5,14.9230769 C5.85,14.9230769 6.92307692,13.85 6.92307692,12.5 C6.92307692,11.15 5.85,10.0769231 4.5,10.0769231 Z" id="Shape" fill="#EA0074"></path>
            <path d="M4.5,36 C2.00769231,36 0,33.9923077 0,31.5 C0,29.0076923 2.00769231,27 4.5,27 C6.99230769,27 9,29.0076923 9,31.5 C9,33.9923077 6.99230769,36 4.5,36 Z M4.5,29.0769231 C3.15,29.0769231 2.07692308,30.15 2.07692308,31.5 C2.07692308,32.85 3.15,33.9230769 4.5,33.9230769 C5.85,33.9230769 6.92307692,32.85 6.92307692,31.5 C6.92307692,30.15 5.85,29.0769231 4.5,29.0769231 Z" id="Shape" fill="#EA0074"></path>
            <g id="Group" transform="translate(13.000000, 14.000000)" fill="#333333">
                <path d="M7.5,9.40425532 C4.92857143,9.40425532 2.85714286,7.30638298 2.85714286,4.70212766 C2.85714286,2.09787234 4.92857143,0 7.5,0 C10.0714286,0 12.1428571,2.09787234 12.1428571,4.70212766 C12.1428571,7.30638298 10.0714286,9.40425532 7.5,9.40425532 Z M7.5,2.17021277 C6.10714286,2.17021277 5,3.29148936 5,4.70212766 C5,6.11276596 6.10714286,7.23404255 7.5,7.23404255 C8.89285714,7.23404255 10,6.11276596 10,4.70212766 C10,3.29148936 8.89285714,2.17021277 7.5,2.17021277 Z M1.28571429,16.6744681 C1.10714286,16.6744681 0.928571429,16.6382979 0.75,16.5297872 C0.25,16.2404255 0.0714285714,15.5893617 0.357142857,15.0468085 C1.82142857,12.4787234 4.53571429,10.8510638 7.5,10.8510638 C10.4642857,10.8510638 13.1785714,12.4787234 14.6428571,15.0829787 C14.9285714,15.5893617 14.75,16.2765957 14.25,16.5659574 C13.75,16.8553191 13.0714286,16.6744681 12.7857143,16.1680851 C11.7142857,14.2510638 9.67857143,13.0574468 7.5,13.0574468 C5.32142857,13.0574468 3.28571429,14.2510638 2.21428571,16.1680851 C2.03571429,16.493617 1.64285714,16.6744681 1.28571429,16.6744681 Z" id="Shape"></path>
            </g>
        </g>
    </g>
</svg>