<?xml version="1.0" encoding="UTF-8"?>
<svg width="53px" height="53px" viewBox="0 0 53 53" version="1.1" xmlns="http://www.w3.org/2000/svg" xmlns:xlink="http://www.w3.org/1999/xlink">
    <!-- Generator: Sketch 63.1 (92452) - https://sketch.com -->
    <title>Icon / Mesa de Servicios</title>
    <desc>Created with Sketch.</desc>
    <g id="Icon-/-Mesa-de-Servicios" stroke="none" stroke-width="1" fill="none" fill-rule="evenodd">
        <g id="Group" transform="translate(4.000000, 10.000000)" fill-rule="nonzero">
            <path d="M6.44,-1.42108547e-14 C4.37644,-1.42108547e-14 2.76,1.63177646 2.76,3.7149151 L2.76,24.1469482 C2.76,24.83235 2.9486575,25.4592419 3.2559375,26.0044057 L0.92,26.0044057 C0.41124,26.0044057 3.55271368e-15,26.4195475 3.55271368e-15,26.9331345 C3.55271368e-15,29.4936397 2.06356,31.5767784 4.6,31.5767784 L21.9847653,31.5767784 L23.8247653,29.7193208 L4.6,29.7193208 C3.40032,29.7193208 2.378085,28.9429036 1.998125,27.8618633 L6.44,27.8618633 L25.6647653,27.8618633 L27.5047653,26.0044057 L6.44,26.0044057 C5.39028,26.0044057 4.6,25.2066277 4.6,24.1469482 L4.6,3.7149151 C4.6,2.65523557 5.39028,1.85745755 6.44,1.85745755 L39.56,1.85745755 C40.60972,1.85745755 41.4,2.65523557 41.4,3.7149151 L41.4,13.4212193 C42.0486,13.6534015 42.66408,13.9524373 43.24,14.3118553 L43.24,3.7149151 C43.24,1.63177646 41.62356,-1.42108547e-14 39.56,-1.42108547e-14 L6.44,-1.42108547e-14 Z" id="Path" fill="#454B54"></path>
            <path d="M38.18,14.8596604 C39.0369193,14.8596604 39.860104,15.0040434 40.6273435,15.258724 L40.6273435,15.258724 L42.010937,15.7176461 L36.907813,21.1122545 L37.5457032,23.3941699 L39.8061718,24.0381123 L44.095313,19.9023679 L45.1482815,18.8865708 L45.604687,20.2814778 C45.8583044,21.0568911 46,21.8888055 46,22.753855 C46,27.1026089 42.4878816,30.6480496 38.18,30.6480496 C37.2743796,30.6480496 36.4504791,30.3785028 35.642813,30.0911755 L35.642813,30.0911755 L27.794063,38.0162067 C26.494666,39.3279311 24.3586928,39.3279311 23.0592968,38.0162067 C21.7599007,36.7044822 21.7599007,34.5500571 23.0592968,33.2383318 L23.0592968,33.2383318 L30.9116403,25.3133006 C30.6276105,24.4986522 30.36,23.667935 30.36,22.753855 C30.36,18.4051011 33.8721184,14.8596604 38.18,14.8596604 Z M38.18,16.717118 C34.8666016,16.717118 32.2,19.4090198 32.2,22.753855 C32.2,23.6428221 32.393614,24.4801946 32.7372653,25.2443722 L32.7372653,25.2443722 L33.0014065,25.8302691 L24.3602347,34.5516128 C23.7644298,35.1530696 23.7644298,36.1014688 24.3602347,36.7029257 C24.9560387,37.3043825 25.8955243,37.3043825 26.4913282,36.7029257 L26.4913282,36.7029257 L35.1325,27.9797682 L35.7128903,28.2464146 C36.4707026,28.5941446 37.299388,28.7905921 38.18,28.7905921 C41.4933984,28.7905921 44.16,26.0986903 44.16,22.753855 C44.16,22.6493331 44.1168152,22.5576657 44.1114847,22.4545573 L44.1114847,22.4545573 L40.3164847,26.1132416 L36.0542968,24.8997265 L34.852187,20.595286 L38.474687,16.7642797 C38.3732524,16.7589767 38.282845,16.717118 38.18,16.717118 Z" id="Combined-Shape" fill="#EA0074"></path>
            <g id="icons8-question_mark" transform="translate(16.000000, 3.000000)" fill="#444B54">
                <path d="M5,18 L7,18 L7,20 L5,20 L5,18 Z M6,0 C2.691,0 0,2.691 0,6 L2,6 C2,3.794 3.794,2 6,2 C8.206,2 10,3.794 10,6 C10,7.678 8.963,8.698 7.763,9.88 C6.468,11.155 5,12.601 5,15 L7,15 C7,13.438 8.004,12.449 9.166,11.306 C10.495,9.998 12,8.516 12,6 C12,2.691 9.309,0 6,0 Z" id="Shape"></path>
            </g>
        </g>
    </g>
</svg>