<?xml version="1.0" encoding="UTF-8"?>
<svg width="53px" height="53px" viewBox="0 0 53 53" version="1.1" xmlns="http://www.w3.org/2000/svg" xmlns:xlink="http://www.w3.org/1999/xlink">
    <!-- Generator: Sketch 63.1 (92452) - https://sketch.com -->
    <title>Icon / Dashboard Ejecutivo@2x</title>
    <desc>Created with Sketch.</desc>
    <g id="Icon-/-Dashboard-Ejecutivo" stroke="none" stroke-width="1" fill="none" fill-rule="evenodd">
        <path d="M44.6229778,28.9916257 L39.4803043,33.6579035 C39.2295989,33.8853846 38.9004678,33.9997084 38.5713367,33.9997084 C38.2422056,33.9997084 37.9130745,33.8853846 37.6623692,33.6579035 L33.4286633,29.8163903 L29.1949573,33.6579035 C28.692261,34.1140322 27.8797186,34.1140322 27.3770222,33.6579035 C26.8743259,33.2017749 26.8743259,32.464503 27.3770222,32.0083743 L32.5196957,27.3420965 C33.0223921,26.8859678 33.8349345,26.8859678 34.3376308,27.3420965 L38.5713367,31.1836097 L42.8050427,27.3420965 C43.307739,26.8859678 44.1202814,26.8859678 44.6229778,27.3420965 C45.1256741,27.7982251 45.1256741,28.535497 44.6229778,28.9916257 Z" id="Path" fill="#EA0074" fill-rule="nonzero"></path>
        <g id="$-2" transform="translate(35.000000, 18.000000)" fill="#EA0074" fill-rule="nonzero">
            <path d="M3.55509356,11 L3.55509356,9.87223975 C4.32432432,9.79898353 4.92411642,9.55993691 5.35446985,9.15509989 C5.78482328,8.75026288 6,8.22204697 6,7.57045216 C6,7.223449 5.94386694,6.92078514 5.83160083,6.66246057 C5.71933472,6.404136 5.55925156,6.17569225 5.35135135,5.97712934 C5.14345114,5.77856642 4.88773389,5.60217315 4.58419958,5.44794953 C4.28066528,5.2937259 3.86278586,5.12600771 3.33056133,4.94479495 C2.7983368,4.76358219 2.42099792,4.57176656 2.1985447,4.36934805 C1.97609148,4.16692955 1.86486486,3.8980021 1.86486486,3.56256572 C1.86486486,3.18857343 1.97713098,2.90133193 2.2016632,2.70084122 C2.42619543,2.50035051 2.73804574,2.40010515 3.13721414,2.40010515 C3.54054054,2.40010515 3.85966736,2.53987031 4.09459459,2.81940063 C4.32952183,3.09893095 4.44698545,3.48159832 4.44698545,3.96740273 L4.44698545,3.96740273 L5.95634096,3.96740273 C5.95634096,3.21170698 5.75883576,2.59770417 5.36382536,2.12539432 C4.96881497,1.65308447 4.40956341,1.36873467 3.68607069,1.2723449 L3.68607069,1.2723449 L3.68607069,0 L2.68814969,0 L2.68814969,1.26077813 C1.96881497,1.33788994 1.3991684,1.58271994 0.979209979,1.99526814 C0.559251559,2.40781633 0.349272349,2.93410445 0.349272349,3.57413249 C0.349272349,4.51875219 0.833679834,5.23203645 1.8024948,5.71398528 C2.09355509,5.86049772 2.5010395,6.01954083 3.02494802,6.19111462 C3.54885655,6.3626884 3.92307692,6.55546793 4.14760915,6.76945321 C4.37214137,6.98343849 4.48440748,7.25429373 4.48440748,7.58201893 C4.48440748,7.93287767 4.36070686,8.21433579 4.11330561,8.42639327 C3.86590437,8.63845075 3.50519751,8.7444795 3.03118503,8.7444795 C2.54885655,8.7444795 2.17567568,8.61146162 1.91164241,8.34542587 C1.64760915,8.07939012 1.51559252,7.70347003 1.51559252,7.21766562 L1.51559252,7.21766562 L0,7.21766562 C0,7.98107256 0.221413721,8.59411146 0.664241164,9.05678233 C1.10706861,9.51945321 1.74012474,9.79320014 2.56340956,9.87802313 L2.56340956,9.87802313 L2.56340956,11 L3.55509356,11 Z" id="$"></path>
        </g>
        <path d="M7.91304348,6 C5.76163359,6 4,7.75790526 4,9.9047619 L4,43.0952381 C4,45.2420947 5.76163359,47 7.91304348,47 L45.0869565,47 C47.2383664,47 49,45.2420947 49,43.0952381 L49,9.9047619 C49,7.75790526 47.2383664,6 45.0869565,6 L7.91304348,6 Z M7.91304348,7.95238095 L45.0869565,7.95238095 C46.1798578,7.95238095 47.0434783,8.8141746 47.0434783,9.9047619 L47.0434783,12.8333333 L5.95652174,12.8333333 L5.95652174,9.9047619 C5.95652174,8.8141746 6.82014315,7.95238095 7.91304348,7.95238095 Z M5.95652174,14.7857143 L47.0434783,14.7857143 L47.0434783,38.2142857 L5.95652174,38.2142857 L5.95652174,14.7857143 Z M8.89130435,17.7142857 L8.89130435,24.547619 L25.5217391,24.547619 L25.5217391,17.7142857 L8.89130435,17.7142857 Z M8.89130435,27.4761905 L8.89130435,34.3095238 L25.5217391,34.3095238 L25.5217391,27.4761905 L8.89130435,27.4761905 Z M10.8478261,19.6666667 L23.5652174,19.6666667 L23.5652174,22.5952381 L10.8478261,22.5952381 L10.8478261,19.6666667 Z M10.8478261,29.4285714 L23.5652174,29.4285714 L23.5652174,32.3571429 L10.8478261,32.3571429 L10.8478261,29.4285714 Z M5.95652174,40.1666667 L47.0434783,40.1666667 L47.0434783,43.0952381 C47.0434783,44.1858264 46.1798578,45.047619 45.0869565,45.047619 L7.91304348,45.047619 C6.82014315,45.047619 5.95652174,44.1858264 5.95652174,43.0952381 L5.95652174,40.1666667 Z" id="Shape" fill="#444B54" fill-rule="nonzero"></path>
    </g>
</svg>