<?xml version="1.0" encoding="UTF-8"?>
<svg width="53px" height="53px" viewBox="0 0 53 53" version="1.1" xmlns="http://www.w3.org/2000/svg" xmlns:xlink="http://www.w3.org/1999/xlink">
    <!-- Generator: Sketch 63.1 (92452) - https://sketch.com -->
    <title>Icon / JOIN@2x</title>
    <desc>Created with Sketch.</desc>
    <g id="Icon-/-JOIN" stroke="none" stroke-width="1" fill="none" fill-rule="evenodd">
        <g id="Group" transform="translate(8.000000, 3.000000)">
            <path d="M20.1428571,25.4716981 C21.7751679,25.4716981 23.1029954,26.7753457 23.1419763,28.3982775 L17.576,33.962 L17.5714286,33.9622642 C15.9145743,33.9622642 14.5714286,32.6191184 14.5714286,30.9622642 L14.5714286,28.4716981 C14.5714286,26.8148439 15.9145743,25.4716981 17.5714286,25.4716981 L20.1428571,25.4716981 Z M20.1428571,14.4339623 C21.7997114,14.4339623 23.1428571,15.777108 23.1428571,17.4339623 L23.1428571,19.9245283 C23.1428571,21.5813826 21.7997114,22.9245283 20.1428571,22.9245283 L17.5714286,22.9245283 C15.9145743,22.9245283 14.5714286,21.5813826 14.5714286,19.9245283 L14.5714286,17.4339623 C14.5714286,15.777108 15.9145743,14.4339623 17.5714286,14.4339623 L20.1428571,14.4339623 Z M7.28571429,-7.10542736e-15 C8.94256854,-6.96569734e-15 10.2857143,1.34314575 10.2857143,3 L10.2857143,7.18867925 C10.2857143,8.84553349 8.94256854,10.1886792 7.28571429,10.1886792 L3,10.1886792 C1.34314575,10.1886792 -3.31037846e-14,8.84553349 -3.37507799e-14,7.18867925 L-3.37507799e-14,3 C-3.35095969e-14,1.34314575 1.34314575,-6.35697896e-15 3,-7.10542736e-15 L7.28571429,-7.10542736e-15 Z" id="Combined-Shape" fill="#444B54"></path>
            <path d="M5.06493506,40.412889 C5.49528682,40.412889 6,40.3040656 6,40.754717 L6,40.754717 L7.01298701,40.8208772 C7.44333877,40.8208772 7.79220779,41.1862023 7.79220779,41.6368537 C7.79220779,42.0875051 7.44333877,42.4528302 7.01298701,42.4528302 L7.01298701,42.4528302 L5.06493506,42.4528302 C4.63458331,42.4528302 4.28571429,42.0875051 4.28571429,41.6368537 L4.28571429,41.6368537 L4.28571429,41.2288655 C4.28571429,40.7782141 4.63458331,40.412889 5.06493506,40.412889 Z M11.6883117,40.8208772 C12.1186634,40.8208772 12.4675325,41.1862023 12.4675325,41.6368537 C12.4675325,42.0875051 12.1186634,42.4528302 11.6883117,42.4528302 L11.6883117,42.4528302 L9.35064935,42.4528302 C8.9202976,42.4528302 8.57142857,42.0875051 8.57142857,41.6368537 C8.57142857,41.1862023 8.9202976,40.8208772 9.35064935,40.8208772 L9.35064935,40.8208772 Z M5.06493506,35.5170301 C5.49528682,35.5170301 5.84415584,35.8823553 5.84415584,36.3330066 L5.84415584,36.3330066 L5.84415584,38.780936 C5.84415584,39.2315874 5.49528682,39.5969125 5.06493506,39.5969125 C4.63458331,39.5969125 4.28571429,39.2315874 4.28571429,38.780936 L4.28571429,38.780936 L4.28571429,36.3330066 C4.28571429,35.8823553 4.63458331,35.5170301 5.06493506,35.5170301 Z M7.4025974,30.213183 C7.83294916,30.213183 8.18181818,30.5785082 8.18181818,31.0291595 C8.18181818,31.4798109 7.83294916,31.845136 7.4025974,31.845136 L7.4025974,31.845136 L5.84415584,31.845136 L5.84415584,31.845136 L5.84415584,33.8850772 C5.84415584,34.3357286 5.49528682,34.7010537 5.06493506,34.7010537 C4.63458331,34.7010537 4.28571429,34.3357286 4.28571429,33.8850772 L4.28571429,33.8850772 L4.28571429,31.4371478 C4.28571429,30.9864964 4.63458331,30.6211713 5.06493506,30.6211713 C5.0994329,30.6211713 5.13340713,30.6235188 5.16672002,30.6280697 C5.29928557,30.3803058 5.55308304,30.213183 5.84415584,30.213183 L5.84415584,30.213183 Z M12.0779221,30.213183 C12.5082738,30.213183 12.8571429,30.5785082 12.8571429,31.0291595 C12.8571429,31.4798109 12.5082738,31.845136 12.0779221,31.845136 L12.0779221,31.845136 L9.74025974,31.845136 C9.30990799,31.845136 8.96103896,31.4798109 8.96103896,31.0291595 C8.96103896,30.5785082 9.30990799,30.213183 9.74025974,30.213183 L9.74025974,30.213183 Z M5.06493506,25.7253124 C5.49528682,25.7253124 5.84415584,26.0906375 5.84415584,26.5412889 L5.84415584,26.5412889 L5.84415584,28.9892183 C5.84415584,29.4398697 5.49528682,29.8051948 5.06493506,29.8051948 C4.63458331,29.8051948 4.28571429,29.4398697 4.28571429,28.9892183 L4.28571429,28.9892183 L4.28571429,26.5412889 C4.28571429,26.0906375 4.63458331,25.7253124 5.06493506,25.7253124 Z M5.06493506,15.9335947 C5.49528682,15.9335947 5.84415584,16.2989198 5.84415584,16.7495712 L5.84415584,16.7495712 L5.84415584,19.1975006 C5.84415584,19.3501133 5.80414641,19.4929405 5.73451213,19.6151078 L5.74641205,19.6118465 L5.74641205,19.6118465 L5.84415584,19.6054889 L7.4025974,19.6054889 C7.83294916,19.6054889 8.18181818,19.970814 8.18181818,20.4214653 C8.18181818,20.8721167 7.83294916,21.2374418 7.4025974,21.2374418 L7.4025974,21.2374418 L5.84415584,21.2374418 C5.80647365,21.2374418 5.76941619,21.2346409 5.73316296,21.2292269 C5.80401544,21.349523 5.84415584,21.4925678 5.84415584,21.64543 L5.84415584,21.64543 L5.84415584,24.0933595 C5.84415584,24.5440108 5.49528682,24.9093359 5.06493506,24.9093359 C4.63458331,24.9093359 4.28571429,24.5440108 4.28571429,24.0933595 L4.28571429,24.0933595 L4.28571429,21.64543 C4.28571429,21.1947787 4.63458331,20.8294536 5.06493506,20.8294536 C5.10291753,20.8294536 5.14026527,20.8322993 5.17679445,20.8377984 C5.10516646,20.7176965 5.06493506,20.5745008 5.06493506,20.4214653 C5.06493506,20.268603 5.10507546,20.1255583 5.17492065,20.0032589 L5.16267886,20.0071195 L5.16267886,20.0071195 L5.06493506,20.0134771 C4.63458331,20.0134771 4.28571429,19.648152 4.28571429,19.1975006 L4.28571429,19.1975006 L4.28571429,16.7495712 C4.28571429,16.2989198 4.63458331,15.9335947 5.06493506,15.9335947 Z M12.0779221,19.6054889 C12.5082738,19.6054889 12.8571429,19.970814 12.8571429,20.4214653 C12.8571429,20.8721167 12.5082738,21.2374418 12.0779221,21.2374418 L12.0779221,21.2374418 L9.74025974,21.2374418 C9.30990799,21.2374418 8.96103896,20.8721167 8.96103896,20.4214653 C8.96103896,19.970814 9.30990799,19.6054889 9.74025974,19.6054889 L9.74025974,19.6054889 Z M5.06493506,11.0377358 C5.49528682,11.0377358 5.84415584,11.403061 5.84415584,11.8537123 L5.84415584,11.8537123 L5.84415584,14.3016418 C5.84415584,14.7522931 5.49528682,15.1176182 5.06493506,15.1176182 C4.63458331,15.1176182 4.28571429,14.7522931 4.28571429,14.3016418 L4.28571429,14.3016418 L4.28571429,11.8537123 C4.28571429,11.403061 4.63458331,11.0377358 5.06493506,11.0377358 Z" id="conection" fill="#444B54" fill-rule="nonzero"></path>
            <path d="M14.6271657,40.2149589 L20.0138847,45.5157399 L14.2599787,47.0508959 C14.1740407,47.0743339 14.0881037,47.0821459 14.0021657,47.0821459 C13.7365407,47.0821459 13.4787287,46.9805839 13.2873217,46.7852709 C13.0373217,46.5313649 12.9396657,46.1602709 13.0373217,45.8126149 L13.0373217,45.8126149 L14.6271657,40.2149589 Z M29.6935717,24.6758959 L35.5060717,30.4962089 L21.6154467,44.2891779 L15.8029467,38.5665209 L29.6935717,24.6758959 Z M34.0451347,22.0001149 C35.1076347,22.0040209 36.1584157,22.4024589 36.9045097,23.1837089 C38.4084157,24.7618339 38.3224787,27.2344899 36.9045097,28.9844899 L36.9045097,28.9844899 L31.0998217,23.1837089 C31.9006037,22.3829279 32.9787287,21.9923029 34.0451347,22.0001149 Z" id="pensil" fill="#EA0074" fill-rule="nonzero"></path>
        </g>
    </g>
</svg>