<?xml version="1.0" encoding="UTF-8"?>
<svg width="53px" height="53px" viewBox="0 0 53 53" version="1.1" xmlns="http://www.w3.org/2000/svg" xmlns:xlink="http://www.w3.org/1999/xlink">
    <!-- Generator: Sketch 63.1 (92452) - https://sketch.com -->
    <title>Icon / Admin Price agencies</title>
    <desc>Created with Sketch.</desc>
    <g id="Icon-/-Admin-Price-agencies" stroke="none" stroke-width="1" fill="none" fill-rule="evenodd">
        <g id="icons8-checked_laptop" transform="translate(6.000000, 8.000000)" fill-rule="nonzero">
            <path d="M38.9047218,1.70472864 C38.9697276,1.76962057 40.107329,3.16479715 40.1398319,3.22968908 C41.5699594,5.69558257 41.2124275,8.94017926 39.0997392,11.0491671 C36.5320104,13.6448445 32.4366454,13.6448445 29.9014195,11.0816131 C27.3661935,8.55082766 27.3661935,4.43018986 29.9014195,1.89940444 C32.3716396,-0.566489044 36.336993,-0.631380978 38.9047218,1.70472864 Z M35.0717256,2 L34.2401247,2 L34.2401247,3.03154574 C33.6406791,3.09463722 33.1659737,3.29495268 32.8160083,3.63249211 C32.466043,3.97003155 32.2910603,4.40063091 32.2910603,4.92429022 C32.2910603,5.69716088 32.6947332,6.2807571 33.502079,6.67507886 C33.7446292,6.79495268 34.0841996,6.92507886 34.52079,7.06545741 C34.9573805,7.20583596 35.2692308,7.36356467 35.456341,7.53864353 C35.6434511,7.7137224 35.7370062,7.93533123 35.7370062,8.20347003 C35.7370062,8.49053628 35.6339224,8.72082019 35.4277547,8.89432177 C35.221587,9.06782334 34.9209979,9.15457413 34.5259875,9.15457413 C34.1240471,9.15457413 33.8130631,9.04574132 33.5930353,8.82807571 C33.4044402,8.64150518 33.2966715,8.38888174 33.2697293,8.07020537 L33.2629938,7.90536278 L32,7.90536278 C32,8.52996845 32.1845114,9.03154574 32.5535343,9.41009464 C32.8815546,9.74658254 33.3348284,9.9609378 33.9133557,10.0531604 L34.1361746,10.0820189 L34.1361746,11 L34.962578,11 L34.962578,10.0772871 C35.6036036,10.0173502 36.1034304,9.82176656 36.4620582,9.49053628 C36.8206861,9.15930599 37,8.72712934 37,8.19400631 C37,7.91009464 36.9532225,7.66246057 36.8596674,7.4511041 C36.7661123,7.23974763 36.6327096,7.05283912 36.4594595,6.89037855 C36.2862093,6.72791798 36.0731116,6.58359621 35.8201663,6.45741325 C35.5672211,6.33123028 35.2189882,6.19400631 34.7754678,6.04574132 C34.3319473,5.89747634 34.0174983,5.74053628 33.8321206,5.57492114 C33.6467429,5.40930599 33.5540541,5.18927445 33.5540541,4.9148265 C33.5540541,4.60883281 33.6476091,4.37381703 33.8347193,4.20977918 C34.0218295,4.04574132 34.2817048,3.9637224 34.6143451,3.9637224 C34.9504505,3.9637224 35.2163895,4.07807571 35.4121622,4.30678233 C35.5799673,4.50281658 35.675856,4.76084787 35.6998282,5.0808762 L35.7058212,5.24605678 L36.9636175,5.24605678 C36.9636175,4.62776025 36.7990298,4.12539432 36.4698545,3.73895899 C36.1772542,3.39546092 35.7765116,3.17347237 35.2676266,3.07299334 L35.0717256,3.04100946 L35.0717256,2 Z" id="Combined-Shape" fill="#EA0074"></path>
            <path d="M23.9615385,34 L17.0384615,34 C16.45,34 16,33.5666667 16,33 C16,32.4333333 16.45,32 17.0384615,32 L23.9615385,32 C24.55,32 25,32.4333333 25,33 C25,33.5666667 24.55,34 23.9615385,34 Z" id="Path" fill="#444B54"></path>
            <path d="M36.7698413,38 L4.23015873,38 C1.88730159,38 0,36.1252525 0,33.7979798 L0,32.8282828 C0,32.2787879 0.423015873,31.8585859 0.976190476,31.8585859 L12.3650794,31.8585859 C12.918254,31.8585859 13.3412698,32.2787879 13.3412698,32.8282828 C13.3412698,33.3777778 12.918254,33.7979798 12.3650794,33.7979798 L1.95238095,33.7979798 C1.95238095,35.0585859 2.96111111,36.0606061 4.23015873,36.0606061 L36.7698413,36.0606061 C38.0388889,36.0606061 39.047619,35.0585859 39.047619,33.7979798 L28.6349206,33.7979798 C28.081746,33.7979798 27.6587302,33.3777778 27.6587302,32.8282828 C27.6587302,32.2787879 28.081746,31.8585859 28.6349206,31.8585859 L40.0238095,31.8585859 C40.5769841,31.8585859 41,32.2787879 41,32.8282828 L41,33.7979798 C41,36.1252525 39.1126984,38 36.7698413,38 Z M4.23015873,30.2424242 C3.67698413,30.2424242 3.25396825,29.8222222 3.25396825,29.2727273 L3.25396825,10.2020202 C3.25396825,7.87474747 5.14126984,6 7.48412698,6 L24.4047619,6 C24.9579365,6 25.3809524,6.42020202 25.3809524,6.96969697 C25.3809524,7.51919192 24.9579365,7.93939394 24.4047619,7.93939394 L7.48412698,7.93939394 C6.21507937,7.93939394 5.20634921,8.94141414 5.20634921,10.2020202 L5.20634921,29.2727273 C5.20634921,29.8222222 4.78333333,30.2424242 4.23015873,30.2424242 Z M36.7698413,30.2424242 C36.2166667,30.2424242 35.7936508,29.8222222 35.7936508,29.2727273 L35.7936508,16.6666667 C35.7936508,16.1171717 36.2166667,15.6969697 36.7698413,15.6969697 C37.3230159,15.6969697 37.7460317,16.1171717 37.7460317,16.6666667 L37.7460317,29.2727273 C37.7460317,29.8222222 37.3230159,30.2424242 36.7698413,30.2424242 Z" id="Shape" fill="#444B54"></path>
        </g>
        <g id="icons8-user_groups-copy" transform="translate(18.000000, 19.000000)" fill="#444B54" fill-rule="nonzero">
            <path d="M9.07142857,1.0658141e-14 C11.5562112,1.0658141e-14 13.5714286,2.01521739 13.5714286,4.5 C13.5714286,6.98478261 11.5562112,9 9.07142857,9 C6.58664596,9 4.57142857,6.98478261 4.57142857,4.5 C4.57142857,2.01521739 6.58664596,1.0658141e-14 9.07142857,1.0658141e-14 Z M9.07142857,1.17391304 C7.23229814,1.17391304 5.74534161,2.66086957 5.74534161,4.5 C5.74534161,6.33913043 7.23229814,7.82608696 9.07142857,7.82608696 C10.910559,7.82608696 12.3975155,6.33913043 12.3975155,4.5 C12.3975155,2.66086957 10.910559,1.17391304 9.07142857,1.17391304 Z" id="Combined-Shape"></path>
            <path d="M8.56103083,10 C5.29165927,10 2.2616657,11.934725 0.64691511,15.0217253 C0.48743357,15.3478168 0.586953838,15.739042 0.885981726,15.9129575 C0.985657688,15.9781758 1.08533365,16 1.18500961,16 C1.38436154,16 1.60357071,15.8913028 1.70324667,15.6739084 C3.09871015,12.9782181 5.73015555,11.3043663 8.58088808,11.3043663 C11.4116854,11.3043663 14.0431308,12.9782181 15.4585295,15.6739084 C15.618011,15.9782606 15.9767669,16.086873 16.2757948,15.9129575 C16.5548875,15.739042 16.6548745,15.3478168 16.4953929,15.0217253 C14.8607074,11.934725 11.8304024,10 8.56103083,10 Z" id="Path"></path>
        </g>
    </g>
</svg>