<?xml version="1.0" encoding="UTF-8"?>
<svg width="53px" height="53px" viewBox="0 0 53 53" version="1.1" xmlns="http://www.w3.org/2000/svg" xmlns:xlink="http://www.w3.org/1999/xlink">
    <!-- Generator: Sketch 63.1 (92452) - https://sketch.com -->
    <title>Icon / Config</title>
    <desc>Created with Sketch.</desc>
    <g id="Icon-/-Config" stroke="none" stroke-width="1" fill="none" fill-rule="evenodd">
        <g id="Group" transform="translate(4.000000, 6.000000)" fill="#444B54" fill-rule="nonzero">
            <path d="M3.91304348,0 C1.76163359,0 0,1.75790526 0,3.9047619 L0,37.0952381 C0,39.2420947 1.76163359,41 3.91304348,41 L41.0869565,41 C43.2383664,41 45,39.2420947 45,37.0952381 L45,3.9047619 C45,1.75790526 43.2383664,0 41.0869565,0 L3.91304348,0 Z M3.91304348,1.95238095 L41.0869565,1.95238095 C42.1798578,1.95238095 43.0434783,2.8141746 43.0434783,3.9047619 L43.0434783,6.83333333 L1.95652174,6.83333333 L1.95652174,3.9047619 C1.95652174,2.8141746 2.82014315,1.95238095 3.91304348,1.95238095 Z M1.95652174,8.78571429 L43.0434783,8.78571429 L43.0434783,32.2142857 L1.95652174,32.2142857 L1.95652174,8.78571429 Z M1.95652174,34.1666667 L43.0434783,34.1666667 L43.0434783,37.0952381 C43.0434783,38.1858264 42.1798578,39.047619 41.0869565,39.047619 L3.91304348,39.047619 C2.82014315,39.047619 1.95652174,38.1858264 1.95652174,37.0952381 L1.95652174,34.1666667 Z" id="Shape"></path>
        </g>
        <rect id="Rectangle-Copy" stroke="#444B54" stroke-width="2" fill="#FFFFFF" x="33" y="18" width="11" height="3"></rect>
        <rect id="Rectangle-Copy-2" stroke="#444B54" stroke-width="2" fill="#FFFFFF" x="33" y="25" width="11" height="3"></rect>
        <rect id="Rectangle-Copy-3" stroke="#444B54" stroke-width="2" fill="#FFFFFF" x="33" y="32" width="11" height="3"></rect>
        <g id="icons8-automatic" transform="translate(9.000000, 17.000000)" fill="#EA0074" fill-rule="nonzero">
            <path d="M2.26190476,0 C1.01333333,0 0,1.01333333 0,2.26190476 L0,16.7380952 C0,17.9866667 1.01333333,19 2.26190476,19 L16.7380952,19 C17.9866667,19 19,17.9866667 19,16.7380952 L19,2.26190476 C19,1.01333333 17.9866667,0 16.7380952,0 L2.26190476,0 Z M8.78962076,2.71428571 L10.1379277,2.71428571 L10.5311105,4.84984183 C11.0287296,4.95841326 11.4541799,5.17092645 11.879418,5.41973598 L13.7251675,4.21191412 L14.6891275,5.17057314 L13.4813057,7.02515817 C13.7301152,7.45039626 13.9427343,7.88026402 14.0467819,8.37788307 L16.2132628,8.80375767 L16.2857143,8.80375767 L16.2857143,10.1609005 L14.1192339,10.5858912 C14.010662,11.0835102 13.7972657,11.513378 13.5484562,11.9386161 L14.7562781,13.7932011 L13.797619,14.7518601 L11.9518695,13.5440383 C11.5266314,13.7928478 11.0967632,14.005361 10.5991446,14.1139324 L10.1741535,16.2857143 L8.82584652,16.2857143 L8.40085543,14.1139324 C7.90323638,14.005361 7.47336862,13.7928478 7.04813052,13.5440383 L5.20238095,14.7518601 L4.24372193,13.7932011 L5.45154379,11.9386161 C5.20273426,11.513378 4.98933802,11.0835102 4.88076614,10.5858912 L2.71428571,10.1609005 L2.71428571,8.80375767 L4.84542433,8.41410883 C4.95399576,7.91648979 5.1665085,7.48662202 5.41531802,7.06138393 L4.20749617,5.2067989 L5.16615519,4.24813988 L7.01190476,5.45596174 C7.44166667,5.20715221 7.86701062,4.99463902 8.36462967,4.8860676 L8.78962076,2.71428571 Z M9.5,7.23809524 C8.25595238,7.23809524 7.23809524,8.25595238 7.23809524,9.5 C7.23809524,10.7440476 8.25595238,11.7619048 9.5,11.7619048 C10.7440476,11.7619048 11.7619048,10.7440476 11.7619048,9.5 C11.7619048,8.25595238 10.7440476,7.23809524 9.5,7.23809524 Z" id="Shape"></path>
        </g>
    </g>
</svg>