<?xml version="1.0" encoding="UTF-8"?>
<svg width="53px" height="53px" viewBox="0 0 53 53" version="1.1" xmlns="http://www.w3.org/2000/svg" xmlns:xlink="http://www.w3.org/1999/xlink">
    <!-- Generator: Sketch 63.1 (92452) - https://sketch.com -->
    <title>Icon / CC@2x</title>
    <desc>Created with Sketch.</desc>
    <g id="Icon-/-CC" stroke="none" stroke-width="1" fill="none" fill-rule="evenodd">
        <g id="Group" transform="translate(5.000000, 6.000000)" fill-rule="nonzero">
            <path d="M28.1346929,10.0273357 L28.3529123,10.3094784 C28.4762272,10.4650674 28.6336095,10.6587531 28.8209107,10.8818971 C29.3695217,11.5354925 29.9664773,12.1889665 30.5876562,12.7951625 C31.5294454,13.7142357 32.437616,14.4354878 33.2528231,14.879639 C33.9676596,15.2691051 34.5396128,15.4078684 34.9471427,15.3302828 L35.0768667,15.2964551 C35.7500638,15.0690347 36.4777091,15.4377561 36.7021082,16.1200174 C36.7582079,16.2905827 36.7775438,16.4645969 36.7644728,16.6332286 L36.7680433,16.7162721 L36.7638672,17.0045481 C36.7509966,17.4236039 36.7049975,17.8931007 36.5804391,18.9190948 L36.3812764,20.5275927 C36.2206608,21.8410918 36.1376865,22.7948936 36.1321367,23.3713751 L36.1316062,23.4671359 L36.2562096,23.5577836 C37.0796404,24.2007016 37.5999093,25.1896428 37.6700322,26.2480222 L37.6781568,26.4933703 C37.6781568,28.0570781 36.6694885,29.4268182 35.2878123,29.9583714 L35.1743809,29.9974997 L35.1686244,30.0349272 C34.0381112,36.201144 27.6353766,41.7930879 22.1360248,41.9943929 L21.8314739,42 C16.4811802,42 9.89796619,36.4744842 8.56333434,30.3674214 L8.48899515,29.9974997 L8.37513548,29.9583714 C7.05925336,29.4521302 6.08170043,28.1856288 5.99158401,26.715368 L5.98479096,26.4933703 C5.98479096,25.3438351 6.51996659,24.2501569 7.40673817,23.5577836 L7.59858289,23.4176536 L7.61653489,23.2545148 C7.66147845,22.7455471 7.65051666,22.0375954 7.58591193,21.1372342 L7.50505452,20.1796135 L7.32742737,18.3392774 C7.30687248,18.1130751 7.292326,17.9371912 7.28209706,17.788324 C7.17990492,17.6309597 7.11155187,17.4470159 7.08684911,17.246733 C6.99883258,16.5331199 7.49829308,15.88231 8.20242537,15.7931084 L8.99075089,15.6849011 C9.49844082,15.612192 10.0530261,15.5281576 10.6450195,15.4329242 L11.0958803,15.3594013 C13.2728856,14.9996324 15.4489597,14.5728628 17.4736826,14.0820502 C22.1674942,12.9442245 25.3560473,11.5620441 25.8476046,10.5154173 L25.8857503,10.4182968 C26.2016742,9.41202445 27.5059343,9.18528901 28.1346929,10.0273357 Z M24.1164673,0.350431676 L24.6643257,0.446768934 C24.9185992,0.494501631 25.1428646,0.541102526 25.3347617,0.584421045 L25.5584424,0.636255148 L25.6381557,0.629350091 C28.1665079,0.406298869 31.1814581,0.980603769 34.100934,2.98995012 L34.4811459,3.26022942 C37.4048379,5.40556038 39.7302865,8.78001162 41.2578937,13.5536051 C43.5624436,20.8788317 44.5093729,26.9766695 43.7337415,31.4460671 C42.7552452,37.0844261 39.0190662,39.9912919 32.6382324,39.41218 C31.9314488,39.3480338 31.4097975,38.715357 31.4730915,37.9990569 C31.5363856,37.2827569 32.1606569,36.7540817 32.8674405,36.818228 C37.9175718,37.2765679 40.4553853,35.3020685 41.2028556,30.994943 C41.889303,27.0394484 40.9982934,21.3017114 38.8115508,14.3508932 C37.4489088,10.0928431 35.4419161,7.18050224 32.9741256,5.36970018 C31.5691708,4.33878008 30.072854,3.70939738 28.5509727,3.40414331 C27.6374193,3.22090569 26.8163746,3.1715012 26.1412516,3.20472365 L25.736659,3.23623939 L25.6758082,3.24405623 C25.4948128,3.27353644 25.3096882,3.26342362 25.1328682,3.21439698 L24.9012942,3.1553545 C24.6256543,3.08967821 24.2200305,3.00596988 23.7043452,2.92105389 C20.6220571,2.41350489 17.2999917,2.46936713 14.2212809,3.46193863 C9.03763676,5.1331373 5.44813222,9.1905232 4.07404674,16.4463373 L3.80040328,17.99619 C0.924852871,34.6862449 2.40029102,37.4904139 10.7539472,36.4537444 C11.4582984,36.3663361 12.0992049,36.8741552 12.185452,37.5879901 C12.2716991,38.301825 11.7706267,38.9513611 11.0662755,39.0387694 L10.4306162,39.1114887 C0.319087163,40.165886 -1.81025073,35.2895712 1.35376841,17.0607056 L1.45330948,16.4926607 C2.91896983,7.97118576 7.22971107,2.98307665 13.4422768,0.980155263 C16.9625789,-0.154784554 20.6697719,-0.217122917 24.1164673,0.350431676 Z M27.1683797,12.924798 L27.0065044,13.069418 C25.4042441,14.4285722 22.5317596,15.5032194 18.5720814,16.4917971 L18.0714724,16.6149354 C15.9789773,17.1221766 13.7437463,17.560548 11.5094466,17.9297853 L10.5996804,18.0761798 C10.357503,18.1140786 10.1221658,18.1500335 9.89432383,18.1840389 L10.0841039,20.1590026 L10.120031,20.5743144 C10.2760986,22.4723421 10.2587702,23.7367844 9.94476991,24.6914688 C9.84232726,25.0029347 9.62835908,25.2616799 9.34833332,25.4188339 L9.20302614,25.4887187 C8.8197665,25.6440867 8.55452333,26.0595273 8.55452333,26.4933703 C8.55452333,27.0215072 8.99494356,27.5084834 9.50673199,27.5802777 L9.63595237,27.5893602 C10.3030304,27.5893602 10.8591553,28.10673 10.9161245,28.78032 C11.3601169,34.029976 17.3946,39.3956675 21.8314739,39.3956675 C26.3852424,39.3956675 32.2979044,34.0882258 32.7468233,28.78032 C32.7994103,28.1585446 33.2773133,27.6698799 33.8752006,27.5983799 L34.0269954,27.5893602 C34.5915424,27.5893602 35.1084244,27.0655186 35.1084244,26.4933703 C35.1084244,26.1077321 34.8988496,25.736634 34.5831019,25.5498088 L34.4599216,25.4887187 C34.0908456,25.3391005 33.8108829,25.0247791 33.7016793,24.6374203 C33.5049803,23.9397041 33.5221995,22.9946699 33.7031997,21.3104585 L34.0966011,18.0350779 L34.1106527,17.9135214 C33.4395527,17.81587 32.7464189,17.5605484 32.036036,17.1735087 C30.9825013,16.5995089 29.901544,15.7410328 28.805229,14.671161 C28.2892924,14.1676688 27.7927533,13.6394416 27.3234786,13.1050819 L27.1683797,12.924798 Z" id="Combined-Shape" fill="#333132"></path>
            <path d="M36.6834096,25.0000482 L36.8332545,25.0103409 C39.3616286,25.332063 40.7205719,28.3746578 39.6080582,31.359703 L39.506617,31.6153582 C37.9731098,35.5179694 34.5691301,36.6229162 26.6594086,36.6980082 C26.1690203,37.4899994 25.2551384,38 24.2890326,38 L24.2890326,38 L23.742646,38 C22.4292034,38 21.1966488,37.0518553 21.0123174,35.6258699 L21.0123174,35.6258699 L21,35.3935035 C21,33.9018751 22.3142418,32.787007 23.742646,32.787007 L23.742646,32.787007 L24.2890326,32.787007 C25.250255,32.787007 26.15978,33.2918647 26.6519049,34.0766551 L27.1316143,34.0746679 C33.6303911,33.9742396 36.1508379,33.107951 37.1312862,30.6137962 C37.7812727,29.0699267 37.3052843,27.8157877 36.610366,27.626649 L36.5143326,27.6075314 C35.8097898,27.5178821 35.3100381,26.8638061 35.3981059,26.1466118 C35.4798832,25.4806456 36.0397495,24.9944304 36.6834096,25.0000482 Z" id="Combined-Shape" fill="#EA0074"></path>
        </g>
    </g>
</svg>