<?xml version="1.0" encoding="UTF-8"?>
<svg width="53px" height="53px" viewBox="0 0 53 53" version="1.1" xmlns="http://www.w3.org/2000/svg" xmlns:xlink="http://www.w3.org/1999/xlink">
    <!-- Generator: Sketch 63.1 (92452) - https://sketch.com -->
    <title>Icon / Case Managment</title>
    <desc>Created with Sketch.</desc>
    <g id="Icon-/-Case-Managment" stroke="none" stroke-width="1" fill="none" fill-rule="evenodd">
        <g id="Group-7" transform="translate(6.000000, 7.000000)" fill-rule="nonzero">
            <path d="M1.18867925,9.14772727 C1.86226415,9.14772727 2.37735849,9.66477273 2.37735849,10.3409091 L2.37735849,29.8295455 C2.37735849,31.3806818 3.60566038,32.6136364 5.1509434,32.6136364 C5.8245283,32.6136364 6.33962264,33.1306818 6.33962264,33.8068182 C6.33962264,34.4829545 5.8245283,35 5.1509434,35 C2.29811321,35 0,32.6931818 0,29.8295455 L0,10.3409091 C0,9.66477273 0.51509434,9.14772727 1.18867925,9.14772727 Z M40.8113208,9.14772727 C41.4849057,9.14772727 42,9.66477273 42,10.3409091 L42,25.0568182 C42,25.7329545 41.4849057,26.25 40.8113208,26.25 C40.1377358,26.25 39.6226415,25.7329545 39.6226415,25.0568182 L39.6226415,10.3409091 C39.6226415,9.66477273 40.1377358,9.14772727 40.8113208,9.14772727 Z M35.6207547,11.4943182 C36.0962264,11.9318182 36.0962264,12.6875 35.6603774,13.1647727 C31.8566038,17.2613636 26.6264151,19.4886364 21,19.4886364 C15.3735849,19.4886364 10.1433962,17.2613636 6.26037736,13.1647727 C5.8245283,12.6875 5.8245283,11.9318182 6.3,11.4943182 C6.7754717,11.0568182 7.52830189,11.0568182 7.96415094,11.5340909 C11.4113208,15.1136364 16.0075472,17.1022727 20.9603774,17.1022727 C25.9132075,17.1022727 30.5490566,15.1136364 33.9566038,11.5340909 C34.3924528,11.0568182 35.145283,11.0568182 35.6207547,11.4943182 Z M36.8490566,0 C39.7018868,0 42,2.30681818 42,5.17045455 C42,5.84659091 41.4849057,6.36363636 40.8113208,6.36363636 C40.1377358,6.36363636 39.6226415,5.84659091 39.6226415,5.17045455 C39.6226415,3.61931818 38.3943396,2.38636364 36.8490566,2.38636364 L5.1509434,2.38636364 C3.60566038,2.38636364 2.37735849,3.61931818 2.37735849,5.17045455 C2.37735849,5.84659091 1.86226415,6.36363636 1.18867925,6.36363636 C0.51509434,6.36363636 0,5.84659091 0,5.17045455 C0,2.30681818 2.29811321,0 5.1509434,0 L36.8490566,0 Z" id="Combined-Shape" fill="#444B54"></path>
            <g id="Group" transform="translate(10.000000, 28.000000)" fill="#EA0074">
                <path d="M16,0 C19.32,0 22,2.68 22,6 C22,6.68 21.48,7.2 20.8,7.2 C20.12,7.2 19.6,6.68 19.6,6 C19.6,4 18,2.4 16,2.4 L6,2.4 C4,2.4 2.4,4 2.4,6 C2.4,8 4,9.6 6,9.6 L8,9.6 C8.68,9.6 9.2,10.12 9.2,10.8 C9.2,11.48 8.68,12 8,12 L6,12 C2.68,12 0,9.32 0,6 C0,2.68 2.68,0 6,0 L16,0 Z M26,0 C29.32,0 32,2.68 32,6 C32,9.32 29.32,12 26,12 L16,12 C12.68,12 10,9.32 10,6 C10,5.32 10.52,4.8 11.2,4.8 C11.88,4.8 12.4,5.32 12.4,6 C12.4,8 14,9.6 16,9.6 L26,9.6 C28,9.6 29.6,8 29.6,6 C29.6,4 28,2.4 26,2.4 L24,2.4 C23.32,2.4 22.8,1.88 22.8,1.2 C22.8,0.52 23.32,0 24,0 L26,0 Z" id="Combined-Shape"></path>
            </g>
        </g>
    </g>
</svg>