<?xml version="1.0" encoding="UTF-8"?>
<svg width="53px" height="53px" viewBox="0 0 53 53" version="1.1" xmlns="http://www.w3.org/2000/svg" xmlns:xlink="http://www.w3.org/1999/xlink">
    <!-- Generator: Sketch 63.1 (92452) - https://sketch.com -->
    <title>Icon / Statistics</title>
    <desc>Created with Sketch.</desc>
    <g id="Icon-/-Statistics" stroke="none" stroke-width="1" fill="none" fill-rule="evenodd">
        <g id="icons8-statistics-2" transform="translate(5.000000, 5.000000)" fill-rule="nonzero">
            <g id="icons8-statistics">
                <path d="M41.535049,1.74603175 L22.7541667,1.74603175 L22.7541667,1.04761905 C22.7541667,0.453968254 22.3020343,0 21.7107843,0 C21.1195343,0 20.667402,0.453968254 20.667402,1.04761905 L20.667402,1.74603175 L1.88651961,1.74603175 C1.29526961,1.74603175 0.843137255,2.2 0.843137255,2.79365079 L0.843137255,28.2857143 C0.843137255,30.8 2.86034314,32.8253968 5.36446078,32.8253968 L38.0571078,32.8253968 C40.5612255,32.8253968 42.5784314,30.8 42.5784314,28.2857143 L42.5784314,2.79365079 C42.5784314,2.2 42.126299,1.74603175 41.535049,1.74603175 Z M38.0571078,30.7301587 L5.36446078,30.7301587 C4.00806373,30.7301587 2.92990196,29.647619 2.92990196,28.2857143 L2.92990196,3.84126984 L40.4916667,3.84126984 L40.4916667,28.2857143 C40.4916667,29.647619 39.4135049,30.7301587 38.0571078,30.7301587 Z M29.3970343,42.2190476 L22.441152,35.2349206 C22.4063725,35.2 22.3368137,35.1301587 22.2672549,35.0952381 C22.2324755,35.0952381 22.2324755,35.0603175 22.1976961,35.0603175 C22.1629167,35.0253968 22.1281373,35.0253968 22.0933578,34.9904762 C22.0585784,34.9904762 22.023799,34.9555556 21.9890196,34.9555556 C21.9542402,34.9555556 21.9194608,34.9206349 21.8846814,34.9206349 C21.8151225,34.9206349 21.7455637,34.8857143 21.6760049,34.8857143 C21.6760049,34.8857143 21.6760049,34.8857143 21.6760049,34.8857143 C21.6760049,34.8857143 21.6760049,34.8857143 21.6760049,34.8857143 C21.6064461,34.8857143 21.5368873,34.8857143 21.4673284,34.9206349 C21.432549,34.9206349 21.3977696,34.9206349 21.3977696,34.9555556 C21.3629902,34.9555556 21.3282108,34.9904762 21.2934314,34.9904762 C21.258652,34.9904762 21.2238725,35.0253968 21.1890931,35.0253968 C21.1543137,35.0253968 21.1195343,35.0603175 21.1195343,35.0603175 C21.0499755,35.0952381 21.0151961,35.1301587 20.9456373,35.2 L13.9897549,42.184127 C13.572402,42.6031746 13.572402,43.2666667 13.9897549,43.6507937 C14.1984314,43.8603175 14.4766667,43.9650794 14.7201225,43.9650794 C14.9635784,43.9650794 15.2418137,43.8603175 15.4504902,43.6507937 L20.667402,38.4825397 L20.667402,42.952381 C20.667402,43.5460317 21.1195343,44 21.7107843,44 C22.3020343,44 22.7541667,43.5460317 22.7541667,42.952381 L22.7541667,38.4825397 L27.936299,43.6857143 C28.1449755,43.8952381 28.4232108,44 28.6666667,44 C28.9101225,44 29.1883578,43.8952381 29.3970343,43.6857143 C29.8143873,43.2666667 29.8143873,42.6380952 29.3970343,42.2190476 Z" id="Shape" fill="#444B54"></path>
                <path d="M35.9637634,6.6138604 C36.282943,6.97360839 36.3538718,7.47725558 36.105621,7.90895317 L36.0649503,7.9772127 C36.1859394,8.12247654 36.254902,8.29618577 36.254902,8.48571429 L36.254902,11.6285714 C36.254902,12.1628571 35.7068627,12.5714286 34.9901961,12.5714286 C34.3843542,12.5714286 33.8990193,12.2794492 33.7634034,11.8663712 L25.4662996,25.8963528 C25.2889775,26.1841512 25.0052623,26.3640252 24.6860827,26.4 L24.5796894,26.4 L24.5796894,26.4 C24.2959742,26.4 24.012259,26.2920756 23.8349369,26.0762268 L14.2240832,16.3270562 L11.3514664,21.8671753 C11.0677512,22.4067973 10.4293919,22.5866713 9.89742584,22.3348477 C9.36545977,22.0470493 9.18813774,21.3995029 9.43638858,20.8598809 L12.9828291,14.024669 C13.1246867,13.7368707 13.4438663,13.5210219 13.763046,13.4490723 C14.0822256,13.4130975 14.4368697,13.5210219 14.6851205,13.7368707 L24.366903,23.5579909 L32.4882517,9.85159233 C32.0626789,9.88756713 31.637106,9.67171834 31.4243196,9.27599554 C31.1760687,8.73637356 31.3888552,8.08882717 31.8853568,7.83700357 L34.7225092,6.3980116 C35.1480821,6.18216281 35.6445837,6.2900872 35.9637634,6.6138604 Z M8.47884965,24.1695624 C8.54977846,24.1695624 8.62070726,24.2055372 8.69163607,24.241512 C8.76256488,24.2774868 8.83349369,24.3134616 8.8689581,24.3494364 C8.93988691,24.3854112 8.97535131,24.421386 9.04628012,24.4933356 C9.08174453,24.5293104 9.15267334,24.60126 9.18813774,24.6732096 C9.22360215,24.7451592 9.25906655,24.781134 9.29453096,24.8530836 C9.32999536,24.9250332 9.32999536,24.9969828 9.36545977,25.0689324 C9.36545977,25.140882 9.40092417,25.2128316 9.40092417,25.2847812 C9.40092417,25.3567308 9.40092417,25.4286804 9.36545977,25.50063 C9.36545977,25.5725796 9.32999536,25.6445292 9.29453096,25.7164788 C9.25906655,25.7884284 9.22360215,25.860378 9.18813774,25.8963528 C9.15267334,25.9683024 9.11720893,26.0042772 9.04628012,26.040252 C9.01081572,26.0762268 8.93988691,26.1481764 8.8689581,26.1841512 C8.79802929,26.220126 8.76256488,26.2561008 8.69163607,26.2920756 C8.62070726,26.3280504 8.54977846,26.3280504 8.47884965,26.3640252 C8.40792084,26.4 8.33699203,26.4 8.26606322,26.4 C8.19513441,26.4 8.1242056,26.4 8.05327679,26.3640252 C7.98234798,26.3640252 7.91141917,26.3280504 7.84049036,26.2920756 C7.76956155,26.2561008 7.73409714,26.220126 7.66316833,26.1841512 C7.59223952,26.1481764 7.55677512,26.1122016 7.52131071,26.040252 C7.48584631,26.0042772 7.4149175,25.9323276 7.3794531,25.8963528 C7.34398869,25.8244032 7.30852429,25.7884284 7.27305988,25.7164788 C7.23759548,25.6445292 7.23759548,25.5725796 7.20213107,25.50063 C7.20213107,25.4286804 7.16666667,25.3567308 7.16666667,25.2847812 C7.16666667,25.2128316 7.16666667,25.140882 7.20213107,25.0689324 C7.20213107,24.9969828 7.23759548,24.9250332 7.27305988,24.8530836 C7.30852429,24.781134 7.34398869,24.7451592 7.3794531,24.6732096 C7.4149175,24.60126 7.45038191,24.5652852 7.52131071,24.4933356 C7.59223952,24.421386 7.62770393,24.3854112 7.66316833,24.3494364 C7.73409714,24.3134616 7.76956155,24.2774868 7.84049036,24.241512 C7.91141917,24.2055372 7.98234798,24.2055372 8.05327679,24.1695624 C8.19513441,24.1335876 8.33699203,24.1335876 8.47884965,24.1695624 Z" id="Combined-Shape" fill="#EA0074"></path>
            </g>
        </g>
    </g>
</svg>