<?xml version="1.0" encoding="UTF-8"?>
<svg width="53px" height="53px" viewBox="0 0 53 53" version="1.1" xmlns="http://www.w3.org/2000/svg" xmlns:xlink="http://www.w3.org/1999/xlink">
    <!-- Generator: Sketch 63.1 (92452) - https://sketch.com -->
    <title>Icon / Extranet</title>
    <desc>Created with Sketch.</desc>
    <g id="Icon-/-Extranet" stroke="none" stroke-width="1" fill="none" fill-rule="evenodd">
        <g id="icons8-downloads_folder" transform="translate(8.000000, 17.000000)" fill="#EA0074" fill-rule="nonzero">
            <path d="M1.69230769,0 C0.757307692,0 0,0.772954545 0,1.72727273 L0,4.31818182 L0,17.2727273 C0,18.2270455 0.757307692,19 1.69230769,19 L20.3076923,19 C21.2426923,19 22,18.2270455 22,17.2727273 L22,3.45454545 C22,2.50022727 21.2426923,1.72727273 20.3076923,1.72727273 L7.78395454,1.72727273 L7.26171854,0.838334495 C6.956257,0.318425405 6.40554327,0 5.81069712,0 L1.69230769,0 Z M11,5.18181818 C11.4679231,5.18181818 11.8461538,5.56872727 11.8461538,6.04545455 L11.8461538,12.5969465 L13.7863584,10.616655 C14.1172045,10.2789732 14.6520262,10.2789732 14.9828724,10.616655 C15.3137185,10.9543369 15.3137185,11.5002086 14.9828724,11.8378904 L11.598257,15.2924359 C11.433257,15.460845 11.2166154,15.5454545 11,15.5454545 C10.7833846,15.5454545 10.566743,15.460845 10.401743,15.2924359 L7.01712762,11.8378904 C6.68628121,11.5002086 6.68628129,10.9543369 7.01712762,10.616655 C7.34797377,10.2789732 7.88279546,10.2789732 8.21364162,10.616655 L10.1538462,12.5969465 L10.1538462,6.04545455 C10.1538462,5.56872727 10.5320769,5.18181818 11,5.18181818 Z" id="Shape"></path>
        </g>
        <g id="Group-Copy" transform="translate(4.000000, 6.000000)" fill="#444B54" fill-rule="nonzero">
            <path d="M3.91304348,0 C1.76163359,0 0,1.75790526 0,3.9047619 L0,37.0952381 C0,39.2420947 1.76163359,41 3.91304348,41 L41.0869565,41 C43.2383664,41 45,39.2420947 45,37.0952381 L45,3.9047619 C45,1.75790526 43.2383664,0 41.0869565,0 L3.91304348,0 Z M3.91304348,1.95238095 L41.0869565,1.95238095 C42.1798578,1.95238095 43.0434783,2.8141746 43.0434783,3.9047619 L43.0434783,6.83333333 L1.95652174,6.83333333 L1.95652174,3.9047619 C1.95652174,2.8141746 2.82014315,1.95238095 3.91304348,1.95238095 Z M1.95652174,8.78571429 L43.0434783,8.78571429 L43.0434783,32.2142857 L1.95652174,32.2142857 L1.95652174,8.78571429 Z M1.95652174,34.1666667 L43.0434783,34.1666667 L43.0434783,37.0952381 C43.0434783,38.1858264 42.1798578,39.047619 41.0869565,39.047619 L3.91304348,39.047619 C2.82014315,39.047619 1.95652174,38.1858264 1.95652174,37.0952381 L1.95652174,34.1666667 Z" id="Shape"></path>
        </g>
        <rect id="Rectangle-Copy" stroke="#444B54" stroke-width="2" fill="#FFFFFF" x="33" y="18" width="11" height="3"></rect>
        <rect id="Rectangle-Copy-2" stroke="#444B54" stroke-width="2" fill="#FFFFFF" x="33" y="25" width="11" height="3"></rect>
        <rect id="Rectangle-Copy-3" stroke="#444B54" stroke-width="2" fill="#FFFFFF" x="33" y="32" width="11" height="3"></rect>
    </g>
</svg>