<?xml version="1.0" encoding="UTF-8"?>
<svg width="53px" height="53px" viewBox="0 0 53 53" version="1.1" xmlns="http://www.w3.org/2000/svg" xmlns:xlink="http://www.w3.org/1999/xlink">
    <!-- Generator: Sketch 63.1 (92452) - https://sketch.com -->
    <title>Icon / PDA Admin@2x</title>
    <desc>Created with Sketch.</desc>
    <g id="Icon-/-PDA-Admin" stroke="none" stroke-width="1" fill="none" fill-rule="evenodd">
        <g id="icon-access" transform="translate(8.000000, 3.000000)" fill="#444B54" fill-rule="nonzero">
            <path d="M32.3218391,0 C35.4666667,0 38,2.57169811 38,5.76415094 L38,5.76415094 L38,41.2358491 C38,44.4283019 35.4666667,47 32.3218391,47 L32.3218391,47 L5.67816092,47 C2.53333333,47 0,44.4283019 0,41.2358491 L0,41.2358491 L0,5.76415094 C0,2.57169811 2.53333333,0 5.67816092,0 L5.67816092,0 Z M32.3218391,2.66037736 L5.67816092,2.66037736 C3.97471264,2.66037736 2.62068966,4.03490566 2.62068966,5.76415094 L2.62068966,5.76415094 L2.62068966,41.2358491 C2.62068966,42.9650943 3.97471264,44.3396226 5.67816092,44.3396226 L5.67816092,44.3396226 L32.3218391,44.3396226 C34.0252874,44.3396226 35.3793103,42.9650943 35.3793103,41.2358491 L35.3793103,41.2358491 L35.3793103,5.76415094 C35.3793103,4.03490566 34.0252874,2.66037736 32.3218391,2.66037736 L32.3218391,2.66037736 Z" id="Combined-Shape"></path>
        </g>
        <path d="M24,40 C25.1045695,40 26,40.8954305 26,42 L26,42 L26,43 C26,44.1045695 25.1045695,45 24,45 L24,45 L16,45 C14.8954305,45 14,44.1045695 14,43 L14,43 L14,42 C14,40.8954305 14.8954305,40 16,40 L16,40 Z M38,40 C39.1045695,40 40,40.8954305 40,42 L40,42 L40,43 C40,44.1045695 39.1045695,45 38,45 L38,45 L30,45 C28.8954305,45 28,44.1045695 28,43 L28,43 L28,42 C28,40.8954305 28.8954305,40 30,40 L30,40 Z M24,42 L16,42 L16,43 L24,43 L24,42 Z M38,42 L30,42 L30,43 L38,43 L38,42 Z M24,33 C25.1045695,33 26,33.8954305 26,35 L26,35 L26,36 C26,37.1045695 25.1045695,38 24,38 L24,38 L16,38 C14.8954305,38 14,37.1045695 14,36 L14,36 L14,35 C14,33.8954305 14.8954305,33 16,33 L16,33 Z M38,33 C39.1045695,33 40,33.8954305 40,35 L40,35 L40,36 C40,37.1045695 39.1045695,38 38,38 L38,38 L30,38 C28.8954305,38 28,37.1045695 28,36 L28,36 L28,35 C28,33.8954305 28.8954305,33 30,33 L30,33 Z M24,35 L16,35 L16,36 L24,36 L24,35 Z M38,35 L30,35 L30,36 L38,36 L38,35 Z M38,26 C39.1045695,26 40,26.8954305 40,28 L40,28 L40,29 C40,30.1045695 39.1045695,31 38,31 L38,31 L16,31 C14.8954305,31 14,30.1045695 14,29 L14,29 L14,28 C14,26.8954305 14.8954305,26 16,26 L16,26 Z M38,28 L16,28 L16,29 L38,29 L38,28 Z" id="Combined-Shape" fill="#444B54" fill-rule="nonzero"></path>
        <g id="Group-3" transform="translate(13.000000, 9.000000)" fill-rule="nonzero">
            <path d="M1.09626082,6.36038075 L5.63847527,9.74019322 C5.24893472,10.0441432 4.95774269,10.4862926 4.82636074,11.0001864 L0.305182118,7.61824851 C-0.0205561701,7.39183231 -0.0903572318,6.91384256 0.119045953,6.56163959 C0.328449139,6.20943661 0.77052253,6.13396455 1.09626082,6.36038075 Z M12.7009431,5.46522502 L8.73698706,10.4481202 C8.49500435,10.0024866 8.11902738,9.6521778 7.66889146,9.46189038 L11.6433708,4.47354983 C11.8819633,4.91953016 12.2542341,5.2714396 12.7009431,5.46522502 Z M15.5332902,4.03387863 L18.5205877,6.55779915 C18.2419552,6.75346447 18.0046501,7.01972993 17.8328258,7.34151758 C17.7640281,7.47035985 17.7076087,7.60458141 17.6635674,7.74224656 L14.6739649,5.25028026 C15.0748589,4.96461251 15.3816639,4.53712772 15.5332902,4.03387863 Z M26.8528526,2.28488919 C27.0855228,2.6119348 27.0389888,3.08992456 26.7365175,3.34149811 L21.7002158,7.71336829 C21.6576469,7.58580382 21.6043732,7.46133467 21.5403948,7.34151758 C21.3645831,7.01226241 21.1202161,6.74113627 20.8331682,6.54429136 L25.8756378,2.15910241 C26.178109,1.90752886 26.6201824,1.95784357 26.8528526,2.28488919 Z" id="Combined-Shape" fill="#454B54"></path>
            <path d="M6.91939547,14 C5.31612091,14 4,12.6561955 4,11.0191972 C4,9.38219895 5.31612091,8.03839442 6.91939547,8.03839442 C8.52267003,8.03839442 9.83879093,9.38219895 9.83879093,11.0191972 C9.83879093,12.6806283 8.52267003,14 6.91939547,14 Z M6.91939547,9.52879581 C6.10579345,9.52879581 5.43576826,10.2129145 5.43576826,11.04363 C5.43576826,11.8743455 6.10579345,12.5584642 6.91939547,12.5584642 C7.73299748,12.5584642 8.40302267,11.8743455 8.40302267,11.04363 C8.40302267,10.2129145 7.73299748,9.52879581 6.91939547,9.52879581 Z M20.0806045,10.9947644 C18.47733,10.9947644 17.1612091,9.65095986 17.1612091,8.01396161 C17.1612091,6.37696335 18.47733,5.03315881 20.0806045,5.03315881 C21.6838791,5.03315881 23,6.37696335 23,8.01396161 C23,9.65095986 21.6838791,10.9947644 20.0806045,10.9947644 Z M20.0806045,6.4991274 C19.2670025,6.4991274 18.5969773,7.18324607 18.5969773,8.01396161 C18.5969773,8.84467714 19.2670025,9.52879581 20.0806045,9.52879581 C20.8942065,9.52879581 21.5642317,8.84467714 21.5642317,8.01396161 C21.5642317,7.18324607 20.8942065,6.4991274 20.0806045,6.4991274 Z M13.7153652,5.93717277 C12.1120907,5.93717277 10.7959698,4.59336824 10.7959698,2.95636998 C10.7959698,1.34380454 12.1120907,1.39888101e-13 13.7153652,1.39888101e-13 C15.3186398,1.39888101e-13 16.6347607,1.34380454 16.6347607,2.98080279 C16.6347607,4.61780105 15.3186398,5.93717277 13.7153652,5.93717277 Z M13.7153652,1.46596859 C12.9017632,1.46596859 12.231738,2.15008726 12.231738,2.98080279 C12.231738,3.81151832 12.9017632,4.495637 13.7153652,4.495637 C14.5289673,4.495637 15.1989924,3.81151832 15.1989924,2.98080279 C15.1989924,2.15008726 14.5289673,1.46596859 13.7153652,1.46596859 Z" id="Shape" fill="#EA0074"></path>
        </g>
    </g>
</svg>