<?xml version="1.0" encoding="UTF-8"?>
<svg width="53px" height="53px" viewBox="0 0 53 53" version="1.1" xmlns="http://www.w3.org/2000/svg" xmlns:xlink="http://www.w3.org/1999/xlink">
    <!-- Generator: Sketch 63.1 (92452) - https://sketch.com -->
    <title>Icon / PM@2x</title>
    <desc>Created with Sketch.</desc>
    <g id="Icon-/-PM" stroke="none" stroke-width="1" fill="none" fill-rule="evenodd">
        <g id="icon-pm-2" transform="translate(5.000000, 4.000000)">
            <g id="icon-pm">
                <path d="M34.0097081,21.0052761 L33.9207396,21.0202139 L33.7108215,21.0777092 C33.2572462,21.2341909 32.9283791,21.6904968 32.9412136,22.2062599 L32.9406357,39.4809975 L28.0145823,34.6128097 C27.8059035,34.3933452 27.502583,34.2638578 27.1822465,34.2593359 C26.691679,34.263845 26.2637853,34.5517372 26.08433,34.992804 C25.9062325,35.4374023 26.0154848,35.9446969 26.3623784,36.2737825 L33.2802303,43.1297821 L34.120808,43.9245283 L34.9521771,43.1386949 L41.8877332,36.265545 C42.196824,36.0200181 42.3568016,35.5661503 42.2552718,35.1283446 C42.1530056,34.6919454 41.8080762,34.3510886 41.37018,34.250879 L41.2232531,34.2270768 C40.8312825,34.1884228 40.4434219,34.3463368 40.1900531,34.6532502 L35.2998865,39.4820793 L35.3005692,22.19285 C35.3140126,21.8762231 35.1771936,21.5492764 34.9295496,21.3184075 C34.6820865,21.0874521 34.3467198,20.9733411 34.0097081,21.0052761 Z" id="arrow" fill="#EA0074" fill-rule="nonzero"></path>
                <path d="M20.1428571,36.509434 C21.7997114,36.509434 23.1428571,37.8525797 23.1428571,39.509434 L23.1428571,42 C23.1428571,43.6568542 21.7997114,45 20.1428571,45 L17.5714286,45 C15.9145743,45 14.5714286,43.6568542 14.5714286,42 L14.5714286,39.509434 C14.5714286,37.8525797 15.9145743,36.509434 17.5714286,36.509434 L20.1428571,36.509434 Z M20.4285714,38.2075472 L17.2857143,38.2075472 C16.7728784,38.2075472 16.3502071,38.5935874 16.292442,39.090926 L16.2857143,39.2075472 L16.2857143,42.3018868 C16.2857143,42.8147226 16.6717545,43.237394 17.1690932,43.2951591 L17.2857143,43.3018868 L20.4285714,43.3018868 C20.9414073,43.3018868 21.3640786,42.9158466 21.4218437,42.4185079 L21.4285714,42.3018868 L21.4285714,39.2075472 C21.4285714,38.6552624 20.9808562,38.2075472 20.4285714,38.2075472 Z M20.1428571,25.4716981 C21.7997114,25.4716981 23.1428571,26.8148439 23.1428571,28.4716981 L23.1428571,30.9622642 C23.1428571,32.6191184 21.7997114,33.9622642 20.1428571,33.9622642 L17.5714286,33.9622642 C15.9145743,33.9622642 14.5714286,32.6191184 14.5714286,30.9622642 L14.5714286,28.4716981 C14.5714286,26.8148439 15.9145743,25.4716981 17.5714286,25.4716981 L20.1428571,25.4716981 Z M20.4285714,27.1698113 L17.2857143,27.1698113 C16.7728784,27.1698113 16.3502071,27.5558515 16.292442,28.0531902 L16.2857143,28.1698113 L16.2857143,31.2641509 C16.2857143,31.7769868 16.6717545,32.1996581 17.1690932,32.2574232 L17.2857143,32.2641509 L20.4285714,32.2641509 C20.9414073,32.2641509 21.3640786,31.8781108 21.4218437,31.3807721 L21.4285714,31.2641509 L21.4285714,28.1698113 C21.4285714,27.6175266 20.9808562,27.1698113 20.4285714,27.1698113 Z M20.1428571,14.4339623 C21.7997114,14.4339623 23.1428571,15.777108 23.1428571,17.4339623 L23.1428571,19.9245283 C23.1428571,21.5813826 21.7997114,22.9245283 20.1428571,22.9245283 L17.5714286,22.9245283 C15.9145743,22.9245283 14.5714286,21.5813826 14.5714286,19.9245283 L14.5714286,17.4339623 C14.5714286,15.777108 15.9145743,14.4339623 17.5714286,14.4339623 L20.1428571,14.4339623 Z M20.4285714,16.1320755 L17.2857143,16.1320755 C16.7728784,16.1320755 16.3502071,16.5181157 16.292442,17.0154543 L16.2857143,17.1320755 L16.2857143,20.2264151 C16.2857143,20.7392509 16.6717545,21.1619223 17.1690932,21.2196874 L17.2857143,21.2264151 L20.4285714,21.2264151 C20.9414073,21.2264151 21.3640786,20.8403749 21.4218437,20.3430362 L21.4285714,20.2264151 L21.4285714,17.1320755 C21.4285714,16.5797907 20.9808562,16.1320755 20.4285714,16.1320755 Z M7.28571429,0 C8.94256854,1.39730022e-16 10.2857143,1.34314575 10.2857143,3 L10.2857143,7.18867925 C10.2857143,8.84553349 8.94256854,10.1886792 7.28571429,10.1886792 L3,10.1886792 C1.34314575,10.1886792 6.46995335e-16,8.84553349 0,7.18867925 L0,3 C2.41183085e-16,1.34314575 1.34314575,7.48448398e-16 3,0 L7.28571429,0 Z M5.14285714,1.69811321 C3.24930943,1.69811321 1.71428571,3.21865557 1.71428571,5.09433962 C1.71428571,6.97002368 3.24930943,8.49056604 5.14285714,8.49056604 C7.03640486,8.49056604 8.57142857,6.97002368 8.57142857,5.09433962 C8.57142857,3.21865557 7.03640486,1.69811321 5.14285714,1.69811321 Z" id="itmes" fill="#444B54"></path>
                <path d="M5.06493506,40.412889 C5.49528682,40.412889 6,40.3040656 6,40.754717 L6,40.754717 L7.01298701,40.8208772 C7.44333877,40.8208772 7.79220779,41.1862023 7.79220779,41.6368537 C7.79220779,42.0875051 7.44333877,42.4528302 7.01298701,42.4528302 L7.01298701,42.4528302 L5.06493506,42.4528302 C4.63458331,42.4528302 4.28571429,42.0875051 4.28571429,41.6368537 L4.28571429,41.6368537 L4.28571429,41.2288655 C4.28571429,40.7782141 4.63458331,40.412889 5.06493506,40.412889 Z M11.6883117,40.8208772 C12.1186634,40.8208772 12.4675325,41.1862023 12.4675325,41.6368537 C12.4675325,42.0875051 12.1186634,42.4528302 11.6883117,42.4528302 L11.6883117,42.4528302 L9.35064935,42.4528302 C8.9202976,42.4528302 8.57142857,42.0875051 8.57142857,41.6368537 C8.57142857,41.1862023 8.9202976,40.8208772 9.35064935,40.8208772 L9.35064935,40.8208772 Z M5.06493506,35.5170301 C5.49528682,35.5170301 5.84415584,35.8823553 5.84415584,36.3330066 L5.84415584,36.3330066 L5.84415584,38.780936 C5.84415584,39.2315874 5.49528682,39.5969125 5.06493506,39.5969125 C4.63458331,39.5969125 4.28571429,39.2315874 4.28571429,38.780936 L4.28571429,38.780936 L4.28571429,36.3330066 C4.28571429,35.8823553 4.63458331,35.5170301 5.06493506,35.5170301 Z M7.4025974,30.213183 C7.83294916,30.213183 8.18181818,30.5785082 8.18181818,31.0291595 C8.18181818,31.4798109 7.83294916,31.845136 7.4025974,31.845136 L7.4025974,31.845136 L5.84415584,31.845136 L5.84415584,31.845136 L5.84415584,33.8850772 C5.84415584,34.3357286 5.49528682,34.7010537 5.06493506,34.7010537 C4.63458331,34.7010537 4.28571429,34.3357286 4.28571429,33.8850772 L4.28571429,33.8850772 L4.28571429,31.4371478 C4.28571429,30.9864964 4.63458331,30.6211713 5.06493506,30.6211713 C5.0994329,30.6211713 5.13340713,30.6235188 5.16672002,30.6280697 C5.29928557,30.3803058 5.55308304,30.213183 5.84415584,30.213183 L5.84415584,30.213183 Z M12.0779221,30.213183 C12.5082738,30.213183 12.8571429,30.5785082 12.8571429,31.0291595 C12.8571429,31.4798109 12.5082738,31.845136 12.0779221,31.845136 L12.0779221,31.845136 L9.74025974,31.845136 C9.30990799,31.845136 8.96103896,31.4798109 8.96103896,31.0291595 C8.96103896,30.5785082 9.30990799,30.213183 9.74025974,30.213183 L9.74025974,30.213183 Z M5.06493506,25.7253124 C5.49528682,25.7253124 5.84415584,26.0906375 5.84415584,26.5412889 L5.84415584,26.5412889 L5.84415584,28.9892183 C5.84415584,29.4398697 5.49528682,29.8051948 5.06493506,29.8051948 C4.63458331,29.8051948 4.28571429,29.4398697 4.28571429,28.9892183 L4.28571429,28.9892183 L4.28571429,26.5412889 C4.28571429,26.0906375 4.63458331,25.7253124 5.06493506,25.7253124 Z M5.06493506,15.9335947 C5.49528682,15.9335947 5.84415584,16.2989198 5.84415584,16.7495712 L5.84415584,16.7495712 L5.84415584,19.1975006 C5.84415584,19.3501133 5.80414641,19.4929405 5.73451213,19.6151078 L5.74641205,19.6118465 L5.74641205,19.6118465 L5.84415584,19.6054889 L7.4025974,19.6054889 C7.83294916,19.6054889 8.18181818,19.970814 8.18181818,20.4214653 C8.18181818,20.8721167 7.83294916,21.2374418 7.4025974,21.2374418 L7.4025974,21.2374418 L5.84415584,21.2374418 C5.80647365,21.2374418 5.76941619,21.2346409 5.73316296,21.2292269 C5.80401544,21.349523 5.84415584,21.4925678 5.84415584,21.64543 L5.84415584,21.64543 L5.84415584,24.0933595 C5.84415584,24.5440108 5.49528682,24.9093359 5.06493506,24.9093359 C4.63458331,24.9093359 4.28571429,24.5440108 4.28571429,24.0933595 L4.28571429,24.0933595 L4.28571429,21.64543 C4.28571429,21.1947787 4.63458331,20.8294536 5.06493506,20.8294536 C5.10291753,20.8294536 5.14026527,20.8322993 5.17679445,20.8377984 C5.10516646,20.7176965 5.06493506,20.5745008 5.06493506,20.4214653 C5.06493506,20.268603 5.10507546,20.1255583 5.17492065,20.0032589 L5.16267886,20.0071195 L5.16267886,20.0071195 L5.06493506,20.0134771 C4.63458331,20.0134771 4.28571429,19.648152 4.28571429,19.1975006 L4.28571429,19.1975006 L4.28571429,16.7495712 C4.28571429,16.2989198 4.63458331,15.9335947 5.06493506,15.9335947 Z M12.0779221,19.6054889 C12.5082738,19.6054889 12.8571429,19.970814 12.8571429,20.4214653 C12.8571429,20.8721167 12.5082738,21.2374418 12.0779221,21.2374418 L12.0779221,21.2374418 L9.74025974,21.2374418 C9.30990799,21.2374418 8.96103896,20.8721167 8.96103896,20.4214653 C8.96103896,19.970814 9.30990799,19.6054889 9.74025974,19.6054889 L9.74025974,19.6054889 Z M5.06493506,11.0377358 C5.49528682,11.0377358 5.84415584,11.403061 5.84415584,11.8537123 L5.84415584,11.8537123 L5.84415584,14.3016418 C5.84415584,14.7522931 5.49528682,15.1176182 5.06493506,15.1176182 C4.63458331,15.1176182 4.28571429,14.7522931 4.28571429,14.3016418 L4.28571429,14.3016418 L4.28571429,11.8537123 C4.28571429,11.403061 4.63458331,11.0377358 5.06493506,11.0377358 Z" id="conection" fill="#979797" fill-rule="nonzero"></path>
                <path d="M22.3433979,11.0377358 L22.3433979,7.14875337 L24.3977768,7.14875337 C25.7465325,7.14875337 26.8023634,6.83667453 27.5652696,6.21251685 C28.3281759,5.58835916 28.709629,4.73551213 28.709629,3.65397574 C28.709629,2.94137466 28.535176,2.30584569 28.1862701,1.74738881 C27.8373642,1.18893194 27.3387412,0.758086253 26.6904011,0.454851752 C26.042061,0.151617251 25.2908718,6.21724894e-15 24.4368334,6.21724894e-15 L24.4368334,6.21724894e-15 L20,6.21724894e-15 L20,11.0377358 L22.3433979,11.0377358 Z M24.4368334,5.30660377 L22.3433979,5.30660377 L22.3433979,1.8421496 L24.4915127,1.8421496 C25.0695508,1.85225741 25.5226078,2.0240903 25.8506835,2.35764825 C26.1787592,2.6912062 26.3427971,3.12836927 26.3427971,3.66913747 C26.3427971,4.19474394 26.1800611,4.5990566 25.8545892,4.88207547 C25.5291172,5.16509434 25.056532,5.30660377 24.4368334,5.30660377 L24.4368334,5.30660377 Z M32.6621601,11.0377358 L32.6621601,8.02055256 L32.4278203,2.82008086 L35.4898603,11.0377358 L37.0989935,11.0377358 L40.1688448,2.8125 L39.934505,8.02055256 L39.934505,11.0377358 L42.2857143,11.0377358 L42.2857143,6.21724894e-15 L39.2080517,6.21724894e-15 L36.3022382,8.00539084 L33.3808022,6.21724894e-15 L30.3187622,6.21724894e-15 L30.3187622,11.0377358 L32.6621601,11.0377358 Z" id="PM" fill="#444B54" fill-rule="nonzero"></path>
            </g>
        </g>
    </g>
</svg>