<?xml version="1.0" encoding="UTF-8"?>
<svg width="53px" height="53px" viewBox="0 0 53 53" version="1.1" xmlns="http://www.w3.org/2000/svg" xmlns:xlink="http://www.w3.org/1999/xlink">
    <!-- Generator: Sketch 63.1 (92452) - https://sketch.com -->
    <title>Icon / Travelinn MX</title>
    <desc>Created with Sketch.</desc>
    <g id="Icon-/-Travelinn-MX" stroke="none" stroke-width="1" fill="none" fill-rule="evenodd">
        <g id="Group" transform="translate(10.000000, 10.000000)">
            <path d="M0.443364741,3.49188325 L10.7711888,16.2457132 L0.443364741,29.4396839 C0.646660576,30.6394483 1.03822757,31.5110436 1.61806571,32.0544697 C2.19790386,32.5978959 3.07262793,32.9130726 4.24223792,33 L20.0632272,17.7563605 C20.3105494,17.4615458 20.4342105,17.1427014 20.4342105,16.7998275 C20.4342105,16.4569535 20.3105494,16.1075477 20.0632272,15.7516101 L3.70245084,0 C2.65508869,0 1.83422829,0.289635001 1.23986965,0.868905004 C0.645511003,1.44817501 0.380009367,2.32250109 0.443364741,3.49188325 Z" id="Path-2" fill="#143B66"></path>
            <path d="M13.4433647,3.49188325 L23.7711888,16.2457132 L13.4433647,29.4396839 C13.6466606,30.6394483 14.0382276,31.5110436 14.6180657,32.0544697 C15.1979039,32.5978959 16.0726279,32.9130726 17.2422379,33 L33.0632272,17.7563605 C33.3105494,17.4615458 33.4342105,17.1427014 33.4342105,16.7998275 C33.4342105,16.4569535 33.3105494,16.1075477 33.0632272,15.7516101 L16.7024508,0 C15.6550887,0 14.8342283,0.289635001 14.2398696,0.868905004 C13.645511,1.44817501 13.3800094,2.32250109 13.4433647,3.49188325 Z" id="Path-2-Copy" fill="#EA0074"></path>
        </g>
        <g id="icons8-mexico-2" transform="translate(37.000000, 40.000000)" fill-rule="nonzero">
            <g id="icons8-mexico">
                <polygon id="Path" fill="#F2FAFF" points="3.375 0.375 8.625 0.375 8.625 8.625 3.375 8.625"></polygon>
                <path d="M8.25,0.75 L8.25,8.25 L3.75,8.25 L3.75,0.75 L8.25,0.75 M9,0 L3,0 L3,9 L9,9 L9,0 L9,0 Z" id="Shape" fill="#A3B7CC"></path>
                <polygon id="Path" fill="#99C99E" points="0.375 0.375 3.375 0.375 3.375 8.625 0.375 8.625"></polygon>
                <path d="M3,0.75 L3,8.25 L0.75,8.25 L0.75,0.75 L3,0.75 M3.75,0 L0,0 L0,9 L3.75,9 L3.75,0 L3.75,0 Z" id="Shape" fill="#5E9C76"></path>
                <polygon id="Path" fill="#F78F8F" points="8.625 0.375 11.625 0.375 11.625 8.625 8.625 8.625"></polygon>
                <path d="M11.25,0.75 L11.25,8.25 L9,8.25 L9,0.75 L11.25,0.75 M12,0 L8.25,0 L8.25,9 L12,9 L12,0 L12,0 Z" id="Shape" fill="#C74343"></path>
                <path d="M6,3.75 C5.58578644,3.75 5.25,4.08578644 5.25,4.5 C5.25,4.91421356 5.58578644,5.25 6,5.25 C6.41421356,5.25 6.75,4.91421356 6.75,4.5 C6.75,4.08578644 6.41421356,3.75 6,3.75 Z" id="Path" fill="#704E34"></path>
                <path d="M6,5.25 C5.586,5.25 5.25,4.914 5.25,4.5 L4.5,4.5 C4.5,5.32725 5.17275,6 6,6 C6.82725,6 7.5,5.32725 7.5,4.5 L6.75,4.5 C6.75,4.914 6.414,5.25 6,5.25 Z" id="Path" fill="#5E9C76"></path>
            </g>
        </g>
    </g>
</svg>