<?xml version="1.0" encoding="UTF-8"?>
<svg width="53px" height="53px" viewBox="0 0 53 53" version="1.1" xmlns="http://www.w3.org/2000/svg" xmlns:xlink="http://www.w3.org/1999/xlink">
    <!-- Generator: Sketch 63.1 (92452) - https://sketch.com -->
    <title>Icon / Content</title>
    <desc>Created with Sketch.</desc>
    <g id="Icon-/-Content" stroke="none" stroke-width="1" fill="none" fill-rule="evenodd">
        <g id="Group" transform="translate(4.000000, 6.000000)" fill="#444B54" fill-rule="nonzero">
            <path d="M3.91304348,0 C1.76163359,0 0,1.75790526 0,3.9047619 L0,37.0952381 C0,39.2420947 1.76163359,41 3.91304348,41 L41.0869565,41 C43.2383664,41 45,39.2420947 45,37.0952381 L45,3.9047619 C45,1.75790526 43.2383664,0 41.0869565,0 L3.91304348,0 Z M3.91304348,1.95238095 L41.0869565,1.95238095 C42.1798578,1.95238095 43.0434783,2.8141746 43.0434783,3.9047619 L43.0434783,6.83333333 L1.95652174,6.83333333 L1.95652174,3.9047619 C1.95652174,2.8141746 2.82014315,1.95238095 3.91304348,1.95238095 Z M1.95652174,8.78571429 L43.0434783,8.78571429 L43.0434783,32.2142857 L1.95652174,32.2142857 L1.95652174,8.78571429 Z M4.89130435,11.7142857 L4.89130435,18.547619 L21.5217391,18.547619 L21.5217391,11.7142857 L4.89130435,11.7142857 Z M4.89130435,21.4761905 L4.89130435,28.3095238 L21.5217391,28.3095238 L21.5217391,21.4761905 L4.89130435,21.4761905 Z M6.84782609,13.6666667 L19.5652174,13.6666667 L19.5652174,16.5952381 L6.84782609,16.5952381 L6.84782609,13.6666667 Z M6.84782609,23.4285714 L19.5652174,23.4285714 L19.5652174,26.3571429 L6.84782609,26.3571429 L6.84782609,23.4285714 Z M1.95652174,34.1666667 L43.0434783,34.1666667 L43.0434783,37.0952381 C43.0434783,38.1858264 42.1798578,39.047619 41.0869565,39.047619 L3.91304348,39.047619 C2.82014315,39.047619 1.95652174,38.1858264 1.95652174,37.0952381 L1.95652174,34.1666667 Z" id="Shape"></path>
        </g>
        <path d="M44,17 L44,34 L39.0796875,34 L34.8796875,29.8 L31.5,29.8 L31.5,33.1796875 L32.3203125,34 L28,34 L28,17 L44,17 Z M42,25 L30,25 L30,27 L42,27 L42,25 Z M42,22 L30,22 L30,24 L42,24 L42,22 Z M42,19 L30,19 L30,21 L42,21 L42,19 Z M33,31 L33,32.3992895 L36.6007105,36 L38,34.6007105 L34.3992895,31 L33,31 Z M38.1927783,35 L37,36.1927783 L37.8072217,37 L39,35.8072217 L38.1927783,35 Z" id="Shape" fill="#EA0074" fill-rule="nonzero"></path>
    </g>
</svg>