<?xml version="1.0" encoding="UTF-8"?>
<svg width="172px" height="25px" viewBox="0 0 172 25" version="1.1" xmlns="http://www.w3.org/2000/svg" xmlns:xlink="http://www.w3.org/1999/xlink">
    <!-- Generator: Sketch 63.1 (92452) - https://sketch.com -->
    <title>logo-pricetravel</title>
    <desc>Created with Sketch.</desc>
    <defs>
        <polygon id="path-1" points="0.465279187 0.352837435 17.412792 0.352837435 17.412792 10.3703703 0.465279187 10.3703703"></polygon>
        <polygon id="path-3" points="0 0.521054769 10.0646777 0.521054769 10.0646777 17.1254775 0 17.1254775"></polygon>
    </defs>
    <g id="home" stroke="none" stroke-width="1" fill="none" fill-rule="evenodd">
        <g id="Home-V-1" transform="translate(-153.000000, -25.000000)">
            <g id="topbar" transform="translate(0.000000, -1.000000)">
                <g id="logo-pricetravel" transform="translate(153.000000, 26.000000)">
                    <path d="M12.2934971,5.28081118 L6.40206341,0.438536582 C5.80237915,-0.14617886 4.82966724,-0.14617886 4.22998298,0.438536582 C3.63029871,1.02325202 3.63029871,1.97115137 4.22998298,2.55639934 L10.2683338,8.44455842 C11.3835937,9.53091492 13.1979389,9.53091492 14.3137449,8.44402583 L20.3411725,2.56651737 C20.6410146,2.27415965 20.7912088,1.89127222 20.7912088,1.50785225 C20.7912088,1.12443228 20.6410146,0.741544857 20.3411725,0.449187136 C19.7414883,-0.135528306 18.7693226,-0.135528306 18.1696382,0.449187136 L12.2934971,5.28081118 Z" id="Fill-1" fill="#4FC3F4" fill-rule="nonzero"></path>
                    <path d="M19.3027473,4.23611111 C19.3518901,4.18796297 19.4000879,4.14074074 19.4445055,4.09722222 L19.3027473,4.23611111 Z" id="Fill-3" fill="#4E67F1" fill-rule="nonzero"></path>
                    <path d="M19.4544286,3.16157408 L19.5338132,3.0837963 C19.4308022,3.18472223 19.324011,3.28935185 19.2134396,3.39768518 L19.4544286,3.16157408 Z" id="Fill-5" fill="#4E67F1" fill-rule="nonzero"></path>
                    <path d="M19.5432637,4.00046297 L19.203989,4.33287037 C19.3381868,4.20138889 19.4534835,4.08842593 19.5432637,4.00046297" id="Fill-7" fill="#4E67F1" fill-rule="nonzero"></path>
                    <path d="M19.3027473,3.31018518 C19.3518901,3.26203703 19.4000879,3.21481482 19.4445055,3.1712963 L19.3027473,3.31018518 Z" id="Fill-9" fill="#4E67F1" fill-rule="nonzero"></path>
                    <path d="M20.3994835,3.16157408 L20.4788681,3.0837963 C20.3758571,3.18472223 20.2690659,3.28935185 20.1584945,3.39768518 L20.3994835,3.16157408 Z" id="Fill-11" fill="#4E67F1" fill-rule="nonzero"></path>
                    <path d="M20.4883186,3.07453703 L20.149044,3.40694444 C20.2832418,3.27546297 20.3985385,3.1625 20.4883186,3.07453703" id="Fill-13" fill="#4E67F1" fill-rule="nonzero"></path>
                    <g id="Group-17" transform="translate(2.835446, 13.889167)">
                        <g id="Fill-15-Clipped">
                            <g>
                                <mask id="mask-2" fill="white">
                                    <use xlink:href="#path-1"></use>
                                </mask>
                                <g id="path-1"></g>
                                <path d="M8.93128188,4.65704527 L14.8007317,9.89581075 C15.3981782,10.5284033 16.3672606,10.5289794 16.9647072,9.89581075 C17.5621537,9.26379425 17.5621537,8.2377037 16.9647072,7.60453498 L10.9488882,1.23424692 C9.83779,0.0589382716 8.03021492,0.0589382716 6.91857256,1.23482305 L0.913636165,7.59358848 C0.614912886,7.90988477 0.465279187,8.32412345 0.465279187,8.73893825 C0.465279187,9.15375308 0.614912886,9.56799175 0.913636165,9.88486417 C1.51108271,10.5168807 2.47962085,10.5168807 3.07706741,9.88486417 L8.93128188,4.65704527 Z" id="Fill-15" fill="#FCB000" fill-rule="nonzero" mask="url(#mask-2)"></path>
                            </g>
                        </g>
                    </g>
                    <path d="M19.1723199,12.4956233 L24.1213153,6.4185825 C24.7189257,5.8000901 24.7216371,4.79468693 24.128365,4.17224069 C23.5345507,3.55035928 22.5692635,3.54697028 21.971653,4.16546269 L15.9570457,10.3910547 C14.8469653,11.5410552 14.8415423,13.4168664 15.9445729,14.5742097 L21.9114581,20.8274785 C22.2086364,21.1381368 22.5980051,21.2945957 22.9884585,21.2962962 C23.3789117,21.2974198 23.7693649,21.1432203 24.0681701,20.8342566 C24.6652383,20.2157642 24.668492,19.2103609 24.07522,18.5879147 L19.1723199,12.4956233 Z" id="Fill-18" fill="#5C469C" fill-rule="nonzero"></path>
                    <g id="Group-22" transform="translate(0.000000, 2.777500)">
                        <g id="Fill-20-Clipped">
                            <g>
                                <mask id="mask-4" fill="white">
                                    <use xlink:href="#path-3"></use>
                                </mask>
                                <g id="path-3"></g>
                                <path d="M5.74998204,8.82742983 L0.479410622,14.5631482 C-0.15703138,15.1469023 -0.160496581,16.0958361 0.471902686,16.682789 C1.10430195,17.270275 2.13231172,17.2734736 2.76875373,16.6897194 L9.17417866,10.8137935 C10.3563899,9.72838383 10.3621652,7.95739618 9.18746191,6.86505612 L2.83285995,0.963540967 C2.51637155,0.66979798 2.10170243,0.522126824 1.68587827,0.52105477 C1.27005409,0.519994388 0.854229911,0.665 0.536008913,0.957143658 C-0.0998555554,1.54036476 -0.103320758,2.48983165 0.528500977,3.07678451 L5.74998204,8.82742983 Z" id="Fill-20" fill="#EA0074" fill-rule="nonzero" mask="url(#mask-4)"></path>
                            </g>
                        </g>
                    </g>
                    <path d="M62.3736264,8.02902622 L62.3736264,20.6746775 C62.3736264,21.0179983 62.6538946,21.2962963 62.999646,21.2962963 L64.5827686,21.2962963 C64.9290439,21.2962963 65.2098361,21.016958 65.2087912,20.6736372 L65.1846904,8.02798585 C65.1841666,7.68518518 64.9044222,7.40740741 64.5586708,7.40740741 L62.999646,7.40740741 C62.6538946,7.40740741 62.3736264,7.68570537 62.3736264,8.02902622" id="Fill-23" fill="#333132" fill-rule="nonzero"></path>
                    <path d="M93.2666509,5.3605308 L98.625098,5.3605308 L98.625098,20.6493849 C98.625098,21.0065452 98.9168007,21.2962963 99.2763641,21.2962963 L101.047371,21.2962963 C101.407484,21.2962963 101.699186,21.0065452 101.699186,20.6493849 L101.699186,5.3605308 L107.084997,5.3605308 C107.444562,5.3605308 107.736264,5.07077973 107.736264,4.71361939 L107.736264,3.42468918 C107.736264,3.06698523 107.444562,2.77777778 107.084997,2.77777778 L93.2666509,2.77777778 C92.9070866,2.77777778 92.6153848,3.06698523 92.6153848,3.42468918 L92.6153848,4.71361939 C92.6153848,5.07077973 92.9070866,5.3605308 93.2666509,5.3605308" id="Fill-25" fill="#333132" fill-rule="nonzero"></path>
                    <path d="M164.427447,16.0750793 L164.427447,14.7478931 C164.43008,14.7495168 164.433767,14.7511407 164.4364,14.7533058 L164.403746,7.10304078 C164.402692,7.10304078 164.401639,7.10358205 164.400585,7.10358205 L164.400585,3.43108681 C164.400585,3.07006185 164.116174,2.77777778 163.764872,2.77777778 L162.240636,2.77777778 C161.889334,2.77777778 161.604396,3.07006185 161.604396,3.43108681 L161.604396,10.1038239 L161.604396,16.8220275 C161.604396,18.4003615 162.115283,19.5483883 163.138113,20.2634018 C163.499422,20.5167147 163.887591,20.7251023 164.302095,20.8880237 C164.811929,21.0920812 165.87584,21.2257742 166.58371,21.2934325 C166.956078,21.3291561 167.274725,21.0260467 167.274725,20.6422885 L167.274725,19.225252 C167.274725,18.9123998 167.058783,18.6358125 166.75857,18.5854748 C165.205366,18.3262078 164.427447,17.6458356 164.427447,16.0750793" id="Fill-27" fill="#333132" fill-rule="nonzero"></path>
                    <path d="M57.0956804,7.40740741 L56.6312527,7.41156887 C55.6902035,7.4230129 54.8292097,7.56294216 54.0514524,7.84332085 C53.2763459,8.11693716 52.5823553,8.52684142 51.9705407,9.06783192 C50.7140411,10.1753017 50.0879121,11.9678527 50.0879121,14.4475656 L50.0879121,20.6767582 C50.0879121,21.0190387 50.3704919,21.2962963 50.7188128,21.2962963 L52.3003056,21.2962963 C52.6486264,21.2962963 52.9317364,21.0190387 52.9317364,20.6767582 L52.9317364,14.9646276 L52.9317364,13.5533707 C53.0223952,12.375156 53.3654142,11.491365 53.9607936,10.9009572 C54.2974505,10.5643987 54.7194648,10.3089888 55.2231249,10.1368082 C55.7538238,9.951623 56.3794226,9.86007075 57.0956804,9.85486892 L57.0956804,9.8538285 L57.962506,9.8538285 C58.3108268,9.8538285 58.5934066,9.57605075 58.5934066,9.2342905 L58.5934066,8.02642531 C58.5934066,7.684665 58.3108268,7.40740741 57.962506,7.40740741 L57.0956804,7.40740741 Z" id="Fill-29" fill="#333132" fill-rule="nonzero"></path>
                    <path d="M78.4395604,9.20032725 L78.4395604,8.02619355 C78.4395604,7.6845612 78.1452254,7.40740741 77.7824147,7.40740741 L74.9820901,7.40740741 C72.9692361,7.40740741 71.3120138,7.96067502 70.0054533,9.06721025 C68.6961318,10.1742655 68.043956,11.9661453 68.043956,14.4449298 C68.043956,16.8529958 68.7071762,18.5959968 70.0330645,19.6765326 C71.3572961,20.7570683 73.0167272,21.2962963 75.0102535,21.2962963 C75.0643714,21.2962963 77.7465201,21.2942164 77.7465201,21.2942164 C78.1292109,21.2942164 78.4395604,21.0025028 78.4395604,20.6416309 L78.4395604,19.4742572 C78.4395604,19.1139052 78.1292109,18.8216718 77.7465201,18.8216718 L75.2129194,18.808152 C73.782661,18.764993 72.7179744,18.4124409 72.0481274,17.7244963 C71.3335505,16.9887128 70.9784709,15.8254988 70.9784709,14.2322545 C70.9784709,12.7097286 71.3440427,11.5990335 72.0779476,10.8996492 C72.7765101,10.2325042 73.8284955,9.89243175 75.2129194,9.86175242 L77.7465201,9.85291258 C78.1292109,9.85291258 78.4395604,9.56067917 78.4395604,9.20032725" id="Fill-31" fill="#333132" fill-rule="nonzero"></path>
                    <path d="M113.79854,7.40740741 L113.334142,7.41156887 C112.393151,7.4230129 111.532211,7.56294216 110.754501,7.84332085 C109.979974,8.11693716 109.285496,8.52684142 108.67372,9.06783192 C107.4173,10.1753017 106.791208,11.9678527 106.791208,14.4475656 L106.791208,20.6767582 C106.791208,21.0190387 107.07377,21.2962963 107.4226,21.2962963 L109.003464,21.2962963 C109.352294,21.2962963 109.634855,21.0190387 109.634855,20.6767582 L109.634855,14.9646276 L109.634855,13.5533707 C109.725509,12.375156 110.068507,11.491365 110.663849,10.9009572 C111.000484,10.5643987 111.422474,10.3089888 111.926632,10.1368082 C112.456767,9.951623 113.082857,9.86007075 113.79854,9.85486892 L113.79854,9.8538285 L114.665312,9.8538285 C115.013611,9.8538285 115.296703,9.57605075 115.296703,9.2342905 L115.296703,8.02642531 C115.296703,7.684665 115.013611,7.40740741 114.665312,7.40740741 L113.79854,7.40740741 Z" id="Fill-33" fill="#333132" fill-rule="nonzero"></path>
                    <path d="M121.373605,14.881184 L125.595612,14.8708353 L125.595612,15.3784353 L125.595612,15.8963841 L125.595612,17.9402374 C125.595612,18.4162741 125.35229,18.7324247 124.863988,18.8917934 C124.373481,19.0511623 123.539232,19.1298118 122.356275,19.1298118 C121.491679,19.1298118 120.742952,18.9445714 120.115058,18.5751255 C119.484957,18.206197 119.17101,17.649441 119.17101,16.9110667 C119.17101,16.2052905 119.448541,15.6769933 120.003604,15.3235877 C120.336311,15.1124758 120.774401,14.9722518 121.295808,14.8879106 M126.933059,8.45054875 C125.853831,7.75667348 124.543972,7.40740741 123.004031,7.40740741 L122.702223,7.40740741 L122.683464,7.40740741 L119.605239,7.40740741 C119.242738,7.40740741 118.948655,7.68319825 118.948655,8.02366799 L118.948655,9.163569 C118.948655,9.50352133 119.242738,9.77931217 119.605239,9.77931217 L123.235767,9.78810842 C125.169107,9.92781492 125.595612,11.0392572 125.595612,12.6831362 L125.595612,12.7095252 L121.337189,12.7095252 L121.337189,12.7115949 C119.7189,12.7167692 118.465871,13.0758665 117.579758,13.7930261 C116.687022,14.5148427 116.241759,15.5983437 116.241759,17.0424942 C116.241759,18.5751255 116.785786,19.6684577 117.876599,20.3199036 C118.964655,20.9713494 120.345139,21.2962963 122.016396,21.2962963 C124.10257,21.2962963 125.709272,21.0624174 126.836503,20.5962118 C127.963181,20.1305238 128.527071,19.2974594 128.527071,18.0990888 L128.527071,11.8205783 C128.544175,10.2698369 128.015045,9.14804608 126.933059,8.45054875" id="Fill-35" fill="#333132" fill-rule="nonzero"></path>
                    <path d="M148.660691,12.8947884 C148.832764,11.7225568 149.210307,10.8906836 149.788225,10.3996831 C150.366143,9.910739 151.164814,9.66600992 152.186501,9.66600992 C153.265923,9.66600992 154.084404,9.92462075 154.644776,10.4397857 C155.202883,10.9570073 155.549293,11.7744845 155.684009,12.8947884 L148.660691,12.8947884 Z M157.230407,9.3899185 C156.180419,8.06910134 154.527606,7.40740741 152.272537,7.40740741 C150.134637,7.40740741 148.477863,8.00689081 147.30165,9.20534342 C146.125436,10.4058527 145.538462,12.1333519 145.538462,14.3919545 C145.538462,16.5965727 146.160529,18.3004218 147.402969,19.4988743 C148.645408,20.6968128 150.35539,21.2962963 152.532912,21.2962963 L152.868002,21.2962963 L152.869135,21.2962963 L154.110442,21.2962963 L154.111573,21.2962963 L154.446099,21.2962963 C155.432692,21.2962963 156.32136,21.1703328 157.115503,20.9230331 C157.512291,20.7996402 157.709269,20.3950147 157.527574,20.0510572 L156.960411,18.9806247 C156.809279,18.6947645 156.449283,18.5616032 156.119853,18.665973 C155.524388,18.8546611 154.815151,18.9035041 153.992708,18.9060748 L153.929311,18.9060748 C153.920821,18.9055607 153.912331,18.9045323 153.90384,18.9045323 L153.90384,18.9060748 L153.07517,18.9060748 L153.07517,18.9045323 C153.067246,18.9045323 153.058755,18.9055607 153.050264,18.9060748 L153.002718,18.9060748 C151.645941,18.9024758 150.598217,18.5667445 149.861244,17.8973385 C149.117478,17.2238194 148.69805,16.2377053 148.603522,14.9431091 L158.073228,14.9431091 C158.459827,14.9431091 158.781333,14.6500511 158.768881,14.2988958 C158.697561,12.2258966 158.18417,10.5904278 157.230407,9.3899185 Z" id="Fill-37" fill="#333132" fill-rule="nonzero"></path>
                    <path d="M82.5068474,12.8947884 C82.6789211,11.7225568 83.0564643,10.8906836 83.6343828,10.3996831 C84.2123015,9.910739 85.0109725,9.66600992 86.0326604,9.66600992 C87.1115168,9.66600992 87.9305655,9.92462075 88.4909364,10.4397857 C89.049044,10.9570073 89.3954554,11.7744845 89.5301714,12.8947884 L82.5068474,12.8947884 Z M91.0765706,9.3899185 C90.0265813,8.06910134 88.3737677,7.40740741 86.118697,7.40740741 C83.9807945,7.40740741 82.323453,8.00689081 81.1478048,9.20534342 C79.9715904,10.4058527 79.3846154,12.1333519 79.3846154,14.3919545 C79.3846154,16.5965727 80.0066844,18.3004218 81.2491245,19.4988743 C82.4915645,20.6968128 84.2015469,21.2962963 86.3790718,21.2962963 L86.7141627,21.2962963 L86.7147281,21.2962963 L87.9566022,21.2962963 L87.9571684,21.2962963 L88.2922593,21.2962963 C89.2964004,21.2962963 90.1992208,21.1657056 91.0035524,20.9096655 C91.39185,20.7862727 91.5593959,20.4022126 91.3810958,20.0649389 L90.7963843,18.9621157 C90.6463859,18.6788263 90.2863899,18.564688 89.9597891,18.6680294 C89.3660221,18.8546611 88.6584822,18.9035041 87.8383019,18.9060748 L87.7749063,18.9060748 C87.7664162,18.9055607 87.7584914,18.9045323 87.7500012,18.9045323 L87.7500012,18.9060748 L86.9213299,18.9060748 L86.9213299,18.9045323 C86.9128398,18.9045323 86.904915,18.9055607 86.8964248,18.9060748 L86.8488779,18.9060748 C85.4920993,18.9024758 84.4443745,18.5667445 83.707401,17.8973385 C82.9636351,17.2238194 82.5442055,16.2377053 82.4496782,14.9431091 L91.9409013,14.9431091 C92.325237,14.9431091 92.6269318,14.6510794 92.6150451,14.3019806 C92.5442909,12.227439 92.0308999,10.591456 91.0765706,9.3899185 Z" id="Fill-39" fill="#333132" fill-rule="nonzero"></path>
                    <path d="M44.1258879,11.1479416 C43.5707522,11.7497323 42.5509803,12.0508994 41.0671237,12.0508994 L38.0596792,12.0508994 L37.122129,12.0508994 L37.122129,5.3605308 L38.0596792,5.3605308 L41.0671237,5.3605308 C42.5509803,5.3605308 43.5707522,5.66604693 44.1258879,6.27599198 C44.6788162,6.88648064 44.9558323,7.71061315 44.9558323,8.74675867 C44.9558323,9.747025 44.6788162,10.5477818 44.1258879,11.1479416 M46.4512771,4.2629559 C45.2852716,3.27356198 43.6226237,2.77777778 41.462782,2.77777778 L36.4511103,2.77777778 L34.6935487,2.77777778 L34.683064,2.77777778 C34.3183078,2.77777778 34.0219781,3.0686161 34.0219781,3.42849455 L34.0219781,3.43827976 L34.0219781,4.70981403 L34.0219781,12.7016162 L34.0219781,13.5583661 L34.0219781,20.6450359 C34.0219781,21.0049143 34.3183078,21.2962963 34.683064,21.2962963 L36.4610431,21.2962963 C36.8257993,21.2962963 37.122129,21.0049143 37.122129,20.6450359 L37.122129,14.6613773 L41.462782,14.6613773 C43.6033099,14.6613773 45.261543,14.1378683 46.4363778,13.0913939 C47.6106607,12.0465505 48.1978022,10.5608287 48.1978022,8.63640317 C48.1978022,6.71034678 47.6150754,5.25452431 46.4512771,4.2629559" id="Fill-41" fill="#333132" fill-rule="nonzero"></path>
                    <path d="M143.936735,7.40740741 L142.185276,7.40740741 C141.919169,7.40740741 141.679506,7.55930087 141.578133,7.79130253 L137.133096,18.0019767 C137.114915,18.0446317 137.073593,18.0654391 137.032823,18.0649189 C136.992054,18.0654391 136.951283,18.0446317 136.932551,18.0019767 L132.487515,7.79130253 C132.386691,7.55930087 132.14703,7.40740741 131.880923,7.40740741 L130.128913,7.40740741 C129.660058,7.40740741 129.342712,7.85840616 129.524524,8.2667499 L135.151341,20.9165626 C135.253817,21.1464835 135.491827,21.2962963 135.75628,21.2962963 L137.032272,21.2962963 L137.033925,21.2962963 L138.309918,21.2962963 C138.573821,21.2962963 138.812381,21.1464835 138.914857,20.9165626 L144.541673,8.2667499 C144.722935,7.85840616 144.40559,7.40740741 143.936735,7.40740741" id="Fill-43" fill="#333132" fill-rule="nonzero"></path>
                    <path d="M64.5802803,5.55555556 L63.0021372,5.55555556 C62.6551358,5.55555556 62.3736264,5.24287223 62.3736264,4.85744457 L62.3736264,3.47588877 C62.3736264,3.0904611 62.6551358,2.77777778 63.0021372,2.77777778 L64.5802803,2.77777778 C64.9272817,2.77777778 65.2087912,3.0904611 65.2087912,3.47588877 L65.2087912,4.85744457 C65.2087912,5.24287223 64.9272817,5.55555556 64.5802803,5.55555556" id="Fill-45" fill="#333132" fill-rule="nonzero"></path>
                    <path d="M171.22379,5.79699953 C171.010512,6.15464469 170.721355,6.4384502 170.356322,6.64690911 C169.990775,6.85587033 169.592416,6.95984864 169.160734,6.95984864 C168.734177,6.95984864 168.338895,6.85587033 167.973349,6.64690911 C167.607801,6.4384502 167.318645,6.15464469 167.10588,5.79699953 C166.892601,5.43885206 166.785963,5.05157056 166.785963,4.63364811 C166.785963,4.21070257 166.892601,3.8204072 167.10588,3.46225973 C167.318645,3.10461457 167.607801,2.82131136 167.973349,2.61235015 C168.338895,2.40389123 168.734177,2.29941062 169.160734,2.29941062 C169.592416,2.29941062 169.990775,2.40389123 170.356322,2.61235015 C170.721355,2.82131136 171.010512,3.10461457 171.22379,3.46225973 C171.437069,3.8204072 171.543195,4.21070257 171.543195,4.63364811 C171.543195,5.05157056 171.437069,5.43885206 171.22379,5.79699953 M171.618048,3.2387315 C171.363242,2.8132744 171.018715,2.47572166 170.584468,2.22607327 C170.149709,1.97692719 169.674959,1.85185185 169.160734,1.85185185 C168.651123,1.85185185 168.179449,1.97692719 167.745202,2.22607327 C167.310443,2.47572166 166.965916,2.8132744 166.711622,3.2387315 C166.456817,3.6641886 166.32967,4.12932824 166.32967,4.63364811 C166.32967,5.13294488 166.456817,5.59507066 166.711622,6.02052776 C166.965916,6.44648718 167.310443,6.78403992 167.745202,7.03318599 C168.179449,7.28283437 168.651123,7.40740741 169.160734,7.40740741 C169.674959,7.40740741 170.149709,7.28283437 170.584468,7.03318599 C171.018715,6.78403992 171.363242,6.44648718 171.618048,6.02052776 C171.872853,5.59507066 172,5.13294488 172,4.63364811 C172,4.12932824 171.872853,3.6641886 171.618048,3.2387315" id="Fill-47" fill="#333132" fill-rule="nonzero"></path>
                    <path d="M170.581,6.94259259 L170.583835,6.9462963 C170.581945,6.94537037 170.581945,6.94351852 170.581,6.94259259" id="Fill-49" fill="#5C469C" fill-rule="nonzero"></path>
                    <path d="M170.58667,6.94351852 L170.578165,6.94351852 C170.580055,6.94351852 170.581,6.94537037 170.58289,6.94537037 C170.583835,6.94537037 170.585725,6.94351852 170.58667,6.94351852" id="Fill-51" fill="#5C469C" fill-rule="nonzero"></path>
                    <path d="M169.687866,4.36858669 C169.598246,4.4627367 169.467182,4.51034063 169.293638,4.51034063 L168.697892,4.51034063 L168.697892,3.50801332 L169.293638,3.50801332 C169.467182,3.50801332 169.598246,3.55508833 169.687866,3.64923833 C169.777488,3.74338834 169.822039,3.86451391 169.822039,4.01314398 C169.822039,4.15595578 169.777488,4.27443668 169.687866,4.36858669 M170.517248,6.03525336 L170.515694,6.03313763 L169.830327,4.95517296 C170.015267,4.89804824 170.17586,4.78855919 170.313141,4.62564794 C170.449904,4.4627367 170.518802,4.24164287 170.518802,3.96183751 C170.518802,3.62490743 170.405352,3.36625939 170.17845,3.18695123 C169.952067,3.00658521 169.648495,2.91666667 169.268254,2.91666667 L168.264811,2.91666667 C168.119759,2.91666667 168.001646,3.0372633 168.001646,3.18589337 L168.001646,5.97019465 C168.001128,5.97654184 167.99802,5.98183117 167.99802,5.98817836 C167.99802,5.99452555 168.001128,5.99928594 168.001646,6.00563313 C168.010971,6.13998202 168.116133,6.24576854 168.249269,6.24894213 C168.251342,6.24894213 168.252377,6.25 168.25445,6.25 C168.256522,6.25 168.258076,6.24894213 168.260148,6.24894213 L168.435764,6.24894213 C168.437836,6.24894213 168.43939,6.25 168.441462,6.25 C168.443534,6.25 168.445089,6.24894213 168.446643,6.24894213 C168.585995,6.24576854 168.697892,6.13099016 168.697892,5.98817836 L168.697892,5.98764942 L168.697892,5.06677774 L169.193138,5.06677774 L169.796137,6.11618005 C169.843278,6.1981646 169.929791,6.24894213 170.023038,6.24894213 L170.426073,6.24894213 L170.430736,6.24894213 C170.498081,6.24735533 170.552475,6.19181741 170.552475,6.12305618 C170.552475,6.08867555 170.538488,6.05799746 170.517248,6.03525336" id="Fill-53" fill="#333132" fill-rule="nonzero"></path>
                </g>
            </g>
        </g>
    </g>
</svg>